<svg>
	<symbol id="adr"  viewBox="0 0 14 23">
		<path fill-rule="evenodd"  fill="currentColor" d="M13.452,9.260 C12.901,10.855 11.896,12.217 10.923,13.533 C9.963,14.832 10.351,14.322 7.528,18.353 C7.271,18.721 6.727,18.719 6.472,18.353 C3.661,14.340 4.053,14.854 3.077,13.533 C2.104,12.217 1.098,10.855 0.548,9.260 C-0.250,6.951 0.095,4.666 1.518,2.826 C2.822,1.142 4.871,0.137 7.000,0.137 C9.128,0.137 11.177,1.142 12.481,2.826 C12.482,2.826 12.482,2.826 12.482,2.826 C13.905,4.666 14.250,6.951 13.452,9.260 ZM11.463,3.615 L11.463,3.615 C10.401,2.243 8.733,1.424 7.000,1.424 C5.267,1.424 3.599,2.243 2.537,3.615 C1.388,5.099 1.114,6.956 1.765,8.841 C2.251,10.248 3.198,11.530 4.113,12.768 C4.825,13.732 4.614,13.441 7.000,16.859 C9.388,13.437 9.175,13.732 9.887,12.768 C10.802,11.530 11.748,10.248 12.235,8.841 C12.886,6.956 12.612,5.099 11.463,3.615 ZM7.000,10.662 C5.013,10.662 3.397,9.047 3.397,7.061 C3.397,5.075 5.013,3.459 7.000,3.459 C8.986,3.459 10.603,5.075 10.603,7.061 C10.603,9.047 8.986,10.662 7.000,10.662 ZM7.000,4.746 C5.723,4.746 4.685,5.785 4.685,7.061 C4.685,8.337 5.723,9.376 7.000,9.376 C8.276,9.376 9.315,8.337 9.315,7.061 C9.315,5.785 8.276,4.746 7.000,4.746 ZM0.886,17.280 L2.717,16.124 C3.018,15.934 3.416,16.024 3.606,16.324 C3.796,16.625 3.706,17.022 3.405,17.212 L2.436,17.824 L7.000,20.707 L11.564,17.824 L10.595,17.212 C10.294,17.022 10.204,16.625 10.394,16.324 C10.584,16.024 10.982,15.934 11.282,16.124 L13.113,17.280 C13.513,17.532 13.513,18.116 13.113,18.368 L7.344,22.012 C7.134,22.144 6.866,22.144 6.656,22.012 L0.886,18.368 C0.487,18.116 0.487,17.532 0.886,17.280 Z"/>
	</symbol>
</svg>