<svg 
 xmlns="http://www.w3.org/2000/svg"
 xmlns:xlink="http://www.w3.org/1999/xlink"
 width="27px" height="26px">
<path fill-rule="evenodd"  fill="currentColor"
 d="M26.367,4.995 L24.936,10.987 C24.616,12.337 23.482,13.339 22.103,13.492 L9.551,14.803 L9.312,15.340 C9.139,15.814 9.193,16.343 9.461,16.771 C9.732,17.204 10.202,17.473 10.713,17.486 L22.312,17.486 C22.641,17.486 22.908,17.753 22.908,18.082 C22.908,18.412 22.641,18.679 22.312,18.679 L10.713,18.679 C9.808,18.652 8.973,18.184 8.477,17.427 C7.976,16.655 7.876,15.690 8.209,14.833 L8.507,14.147 L4.720,2.730 C4.508,2.117 3.937,1.700 3.289,1.686 L1.291,1.686 C0.962,1.686 0.695,1.419 0.695,1.090 C0.695,0.760 0.962,0.494 1.291,0.494 L3.289,0.494 C4.449,0.506 5.475,1.246 5.853,2.342 L6.390,3.981 L25.800,4.250 C25.983,4.268 26.153,4.353 26.277,4.488 C26.397,4.628 26.432,4.822 26.367,4.995 ZM6.778,5.174 L9.551,13.581 L21.954,12.298 C22.842,12.228 23.579,11.587 23.773,10.719 L25.055,5.442 L6.778,5.174 ZM8.895,20.139 C10.377,20.139 11.578,21.341 11.578,22.822 C11.578,24.304 10.377,25.505 8.895,25.505 C7.412,25.505 6.211,24.304 6.211,22.822 C6.211,21.341 7.412,20.139 8.895,20.139 ZM8.895,24.312 C9.718,24.312 10.385,23.645 10.385,22.822 C10.385,22.000 9.718,21.332 8.895,21.332 C8.071,21.332 7.404,22.000 7.404,22.822 C7.404,23.645 8.071,24.312 8.895,24.312 ZM20.225,20.139 C21.707,20.139 22.908,21.341 22.908,22.822 C22.908,24.304 21.707,25.505 20.225,25.505 C18.743,25.505 17.541,24.304 17.541,22.822 C17.541,21.341 18.743,20.139 20.225,20.139 ZM20.225,24.312 C21.048,24.312 21.716,23.645 21.715,22.822 C21.715,22.000 21.048,21.332 20.225,21.332 C19.401,21.332 18.734,22.000 18.734,22.822 C18.734,23.645 19.401,24.312 20.225,24.312 Z"/>
</svg>