<svg>
	<symbol id="basket"  viewBox="0 0 23 16">
		<path fill-rule="evenodd" fill="currentColor" d="M17.868,15.997 C16.834,15.997 15.964,15.222 15.845,14.195 C15.715,13.080 16.518,12.066 17.635,11.936 L17.612,11.542 L12.909,11.542 L12.886,11.936 C13.830,12.046 14.566,12.781 14.675,13.724 C14.805,14.840 14.002,15.854 12.886,15.983 C12.807,15.993 12.726,15.997 12.647,15.997 C11.614,15.997 10.744,15.222 10.625,14.195 C10.495,13.080 11.297,12.066 12.414,11.936 L12.391,11.542 L10.413,11.542 C10.169,11.542 9.953,11.378 9.886,11.145 L7.016,1.108 L0.392,1.096 L0.399,0.001 L7.434,0.016 C7.675,0.018 7.890,0.182 7.956,0.413 L10.826,10.447 L19.700,10.447 L20.495,7.800 L12.848,7.800 L12.848,6.706 L20.824,6.706 L21.609,4.091 L11.357,4.091 L11.357,2.996 L22.345,2.996 C22.517,2.996 22.681,3.079 22.784,3.217 C22.887,3.355 22.919,3.536 22.869,3.701 L20.632,11.152 C20.562,11.385 20.351,11.542 20.108,11.542 L18.129,11.542 L18.106,11.936 C19.050,12.046 19.786,12.781 19.896,13.724 C20.026,14.840 19.223,15.854 18.106,15.983 C18.027,15.993 17.947,15.997 17.868,15.997 ZM17.870,13.016 C17.350,13.016 16.926,13.438 16.926,13.959 C16.926,14.479 17.350,14.901 17.870,14.901 C18.391,14.901 18.814,14.479 18.814,13.959 C18.814,13.438 18.391,13.016 17.870,13.016 ZM12.650,13.016 C12.130,13.016 11.706,13.438 11.706,13.959 C11.706,14.479 12.130,14.901 12.650,14.901 C13.170,14.901 13.594,14.479 13.594,13.959 C13.594,13.438 13.170,13.016 12.650,13.016 Z"/>
	</symbol>
</svg>