<svg>
	<symbol id="calendar"  viewBox="0 0 55 60">
		<path fill-rule="evenodd" fill="currentColor" d="M43.338,29.466 L47.527,29.466 C48.474,29.466 49.245,28.696 49.245,27.750 L49.245,23.562 C49.245,22.616 48.474,21.846 47.527,21.846 L43.338,21.846 C42.391,21.846 41.620,22.616 41.620,23.562 L41.620,27.750 C41.620,28.696 42.391,29.466 43.338,29.466 ZM43.380,23.604 L47.485,23.604 L47.485,27.708 L43.380,27.708 L43.380,23.604 ZM43.338,40.604 L47.527,40.604 C48.474,40.604 49.245,39.834 49.245,38.887 L49.245,34.700 C49.245,33.754 48.474,32.983 47.527,32.983 L43.338,32.983 C42.391,32.983 41.620,33.754 41.620,34.700 L41.620,38.887 C41.620,39.834 42.391,40.604 43.338,40.604 ZM43.380,34.743 L47.485,34.743 L47.485,38.846 L43.380,38.846 L43.380,34.743 ZM31.383,29.466 L35.572,29.466 C36.519,29.466 37.290,28.696 37.290,27.750 L37.290,23.562 C37.290,22.616 36.519,21.846 35.572,21.846 L31.383,21.846 C30.436,21.846 29.665,22.616 29.665,23.562 L29.665,27.750 C29.665,28.696 30.436,29.466 31.383,29.466 ZM31.425,23.604 L35.530,23.604 L35.530,27.708 L31.425,27.708 L31.425,23.604 ZM11.662,43.599 L7.472,43.599 C6.525,43.599 5.755,44.369 5.755,45.316 L5.755,49.503 C5.755,50.449 6.525,51.220 7.472,51.220 L11.662,51.220 C12.609,51.220 13.379,50.449 13.379,49.503 L13.379,45.316 C13.379,44.369 12.609,43.599 11.662,43.599 ZM11.620,49.461 L7.514,49.461 L7.514,45.358 L11.620,45.358 L11.620,49.461 ZM11.662,21.846 L7.472,21.846 C6.525,21.846 5.755,22.616 5.755,23.562 L5.755,27.750 C5.755,28.696 6.525,29.466 7.472,29.466 L11.662,29.466 C12.609,29.466 13.379,28.696 13.379,27.750 L13.379,23.562 C13.379,22.616 12.609,21.846 11.662,21.846 ZM11.620,27.708 L7.514,27.708 L7.514,23.604 L11.620,23.604 L11.620,27.708 ZM31.383,40.343 L35.572,40.343 C36.519,40.343 37.290,39.573 37.290,38.626 L37.290,34.439 C37.290,33.492 36.519,32.722 35.572,32.722 L31.383,32.722 C30.436,32.722 29.665,33.492 29.665,34.439 L29.665,38.626 C29.665,39.573 30.436,40.343 31.383,40.343 ZM31.425,34.482 L35.530,34.482 L35.530,38.585 L31.425,38.585 L31.425,34.482 ZM50.119,4.004 L46.357,4.004 L46.357,2.660 C46.357,1.186 45.157,-0.015 43.682,-0.015 L43.278,-0.015 C41.803,-0.015 40.603,1.186 40.603,2.660 L40.603,4.004 L14.397,4.004 L14.397,2.660 C14.397,1.186 13.197,-0.015 11.722,-0.015 L11.318,-0.015 C9.842,-0.015 8.642,1.186 8.642,2.660 L8.642,4.004 L4.881,4.004 C2.452,4.004 0.476,5.979 0.476,8.407 L0.476,55.617 C0.476,58.040 2.449,60.013 4.875,60.013 L50.125,60.013 C52.550,60.013 54.524,58.040 54.524,55.617 L54.524,8.407 C54.523,5.979 52.548,4.004 50.119,4.004 L50.119,4.004 ZM42.362,2.660 C42.362,2.155 42.773,1.745 43.278,1.745 L43.682,1.745 C44.187,1.745 44.598,2.155 44.598,2.660 L44.598,4.004 L42.362,4.004 L42.362,2.660 ZM10.402,2.660 C10.402,2.155 10.813,1.745 11.318,1.745 L11.722,1.745 C12.227,1.745 12.637,2.155 12.637,2.660 L12.637,4.004 L10.402,4.004 L10.402,2.660 L10.402,2.660 ZM52.764,55.617 C52.764,57.071 51.580,58.254 50.125,58.254 L4.875,58.254 C3.419,58.254 2.236,57.071 2.236,55.617 L2.236,55.610 C2.973,56.166 3.889,56.496 4.881,56.496 L40.551,56.496 C41.728,56.496 42.834,56.038 43.666,55.206 L52.764,46.113 L52.764,55.617 ZM42.768,53.616 C42.837,53.332 42.874,53.035 42.874,52.730 L42.874,46.860 C42.874,45.753 43.775,44.853 44.883,44.853 L50.756,44.853 C51.061,44.853 51.358,44.816 51.643,44.746 L42.768,53.616 ZM52.764,16.570 L15.277,16.570 C14.791,16.570 14.397,16.964 14.397,17.450 C14.397,17.935 14.791,18.329 15.277,18.329 L52.764,18.329 L52.764,41.087 C52.764,42.194 51.863,43.094 50.756,43.094 L44.883,43.094 C42.805,43.094 41.115,44.784 41.115,46.860 L41.115,52.730 C41.115,53.837 40.214,54.737 39.106,54.737 L4.881,54.737 C3.422,54.737 2.236,53.551 2.236,52.093 L2.236,18.329 L11.758,18.329 C12.243,18.329 12.637,17.935 12.637,17.450 C12.637,16.964 12.243,16.570 11.758,16.570 L2.236,16.570 L2.236,8.407 C2.236,6.949 3.422,5.763 4.881,5.763 L8.642,5.763 L8.642,8.348 C8.642,9.823 9.842,11.022 11.318,11.022 C11.803,11.022 12.197,10.628 12.197,10.143 C12.197,9.657 11.803,9.264 11.318,9.264 C10.813,9.264 10.402,8.853 10.402,8.348 L10.402,5.763 L40.603,5.763 L40.603,8.348 C40.603,9.823 41.803,11.022 43.278,11.022 C43.764,11.022 44.158,10.628 44.158,10.143 C44.158,9.657 43.764,9.264 43.278,9.264 C42.773,9.264 42.362,8.853 42.362,8.348 L42.362,5.763 L50.119,5.763 C51.577,5.763 52.764,6.949 52.764,8.407 L52.764,16.570 ZM11.662,32.722 L7.472,32.722 C6.525,32.722 5.755,33.492 5.755,34.439 L5.755,38.626 C5.755,39.573 6.525,40.343 7.472,40.343 L11.662,40.343 C12.609,40.343 13.379,39.573 13.379,38.626 L13.379,34.439 C13.379,33.492 12.609,32.722 11.662,32.722 ZM11.620,38.585 L7.514,38.585 L7.514,34.482 L11.620,34.482 L11.620,38.585 ZM19.428,29.466 L23.617,29.466 C24.564,29.466 25.335,28.696 25.335,27.750 L25.335,23.562 C25.335,22.616 24.564,21.846 23.617,21.846 L19.428,21.846 C18.480,21.846 17.710,22.616 17.710,23.562 L17.710,27.750 C17.710,28.696 18.480,29.466 19.428,29.466 ZM19.469,23.604 L23.575,23.604 L23.575,27.708 L19.469,27.708 L19.469,23.604 ZM31.424,49.461 C31.402,48.995 31.017,48.624 30.545,48.624 C30.059,48.624 29.665,49.018 29.665,49.503 C29.665,50.449 30.435,51.220 31.383,51.220 L35.572,51.220 C36.519,51.220 37.290,50.449 37.290,49.503 L37.290,45.316 C37.290,44.369 36.519,43.599 35.572,43.599 L31.383,43.599 C30.435,43.599 29.665,44.369 29.665,45.316 L29.665,46.524 C29.665,47.009 30.059,47.403 30.545,47.403 C31.031,47.403 31.424,47.009 31.424,46.524 L31.424,45.358 L35.530,45.358 L35.530,49.461 L31.424,49.461 ZM19.428,40.343 L23.617,40.343 C24.564,40.343 25.335,39.573 25.335,38.626 L25.335,34.439 C25.335,33.492 24.564,32.722 23.617,32.722 L19.428,32.722 C18.480,32.722 17.710,33.492 17.710,34.439 L17.710,38.626 C17.710,39.573 18.480,40.343 19.428,40.343 ZM19.469,34.482 L23.575,34.482 L23.575,38.585 L19.469,38.585 L19.469,34.482 ZM19.428,51.220 L23.617,51.220 C24.564,51.220 25.335,50.449 25.335,49.503 L25.335,45.316 C25.335,44.369 24.564,43.599 23.617,43.599 L19.428,43.599 C18.480,43.599 17.710,44.369 17.710,45.316 L17.710,49.503 C17.710,50.449 18.480,51.220 19.428,51.220 ZM19.469,45.358 L23.575,45.358 L23.575,49.461 L19.469,49.461 L19.469,45.358 Z"/>
	</symbol>
</svg>