<svg>
	<symbol id="checked"  viewBox="0 0 16 16">
		<path fill-rule="evenodd"  fill="currentColor" d="M14.131,16.007 L1.869,16.007 C0.834,16.007 -0.008,15.166 -0.008,14.131 L-0.008,1.869 C-0.008,0.834 0.834,-0.008 1.869,-0.008 L14.131,-0.008 C15.166,-0.008 16.008,0.834 16.008,1.869 L16.008,14.131 C16.008,15.166 15.166,16.007 14.131,16.007 ZM1.869,1.244 C1.524,1.244 1.243,1.524 1.243,1.869 L1.243,14.131 C1.243,14.475 1.524,14.756 1.869,14.756 L14.131,14.756 C14.476,14.756 14.756,14.475 14.756,14.131 L14.756,1.869 C14.756,1.524 14.476,1.244 14.131,1.244 L1.869,1.244 ZM13.471,4.726 L12.539,3.891 L6.753,10.353 L3.395,7.161 L2.533,8.067 L6.825,12.148 L13.471,4.726 Z"/>
	</symbol>
</svg>