<svg>
	<symbol id="check"  viewBox="0 0 20 21">
		<path fill-rule="evenodd"  fill="currentColor" d="M19.858,3.339 C19.582,3.716 19.281,4.076 18.988,4.441 C16.548,7.476 14.107,10.511 11.669,13.547 C11.261,14.055 10.736,14.320 10.179,14.342 C9.528,14.336 9.049,14.134 8.645,13.752 C7.309,12.486 5.974,11.220 4.639,9.953 C4.399,9.725 4.288,9.455 4.388,9.125 C4.477,8.833 4.677,8.651 4.973,8.584 C5.265,8.518 5.507,8.626 5.718,8.825 C6.185,9.268 6.653,9.710 7.120,10.153 C7.964,10.955 8.808,11.756 9.652,12.558 C9.977,12.866 10.222,12.853 10.500,12.508 C13.148,9.214 15.794,5.919 18.444,2.628 C18.569,2.474 18.709,2.316 18.876,2.216 C19.177,2.036 19.564,2.126 19.798,2.387 C20.040,2.655 20.079,3.039 19.858,3.339 ZM14.833,3.592 C14.134,3.147 13.416,2.745 12.620,2.504 C9.937,1.690 7.422,2.042 5.127,3.666 C3.345,4.927 2.206,6.648 1.768,8.792 C1.274,11.209 1.742,13.447 3.194,15.449 C4.462,17.199 6.164,18.319 8.284,18.764 C10.287,19.184 12.198,18.892 14.008,17.936 C14.140,17.866 14.268,17.789 14.401,17.722 C14.804,17.519 15.257,17.653 15.460,18.032 C15.664,18.414 15.534,18.857 15.140,19.090 C14.257,19.614 13.318,19.999 12.317,20.235 C7.358,21.404 2.351,18.702 0.610,13.913 C0.352,13.202 0.179,12.469 0.095,11.717 C0.091,11.680 0.072,11.645 0.059,11.610 C0.059,10.881 0.059,10.153 0.059,9.424 C0.071,9.395 0.090,9.367 0.093,9.337 C0.336,7.289 1.134,5.484 2.495,3.939 C4.043,2.180 5.975,1.084 8.288,0.679 C8.665,0.613 9.046,0.575 9.425,0.525 C9.802,0.525 10.179,0.525 10.557,0.525 C11.025,0.590 11.497,0.637 11.962,0.725 C13.308,0.978 14.540,1.514 15.670,2.285 C16.034,2.534 16.124,2.994 15.895,3.353 C15.668,3.708 15.205,3.828 14.833,3.592 ZM18.202,12.477 C18.525,11.138 18.508,9.800 18.187,8.461 C18.079,8.013 18.268,7.633 18.654,7.487 C19.103,7.318 19.565,7.570 19.693,8.055 C19.893,8.819 20.015,9.859 19.997,10.642 C19.962,12.590 19.401,14.375 18.344,16.007 C18.080,16.415 17.622,16.525 17.228,16.278 C16.876,16.058 16.767,15.583 17.015,15.196 C17.554,14.351 17.967,13.453 18.202,12.477 Z"/>
	</symbol>
</svg>