<svg>
	<symbol id="clear"  viewBox="0 0 17 19">
		<path fill-rule="evenodd"  fill="currentColor" d="M5.690,15.683 C5.317,15.683 5.006,15.388 4.989,15.011 L4.638,6.965 C4.621,6.577 4.922,6.249 5.309,6.232 C5.696,6.214 6.024,6.516 6.041,6.904 L6.392,14.949 C6.409,15.337 6.109,15.665 5.722,15.682 C5.711,15.683 5.701,15.683 5.690,15.683 ZM7.798,14.980 L7.798,6.934 C7.798,6.546 8.112,6.231 8.500,6.231 C8.888,6.231 9.202,6.546 9.202,6.934 L9.202,14.980 C9.202,15.368 8.888,15.683 8.500,15.683 C8.112,15.683 7.798,15.368 7.798,14.980 ZM11.310,15.683 C11.299,15.683 11.289,15.683 11.278,15.682 C10.891,15.665 10.590,15.337 10.607,14.949 L10.958,6.904 C10.975,6.516 11.304,6.215 11.691,6.232 C12.078,6.249 12.379,6.577 12.362,6.965 L12.011,15.011 C11.994,15.388 11.683,15.683 11.310,15.683 ZM16.084,4.825 L15.357,4.825 L14.749,12.717 C14.720,13.086 14.413,13.366 14.050,13.366 C14.031,13.366 14.013,13.365 13.995,13.364 C13.608,13.334 13.319,12.996 13.349,12.609 L13.948,4.825 L3.052,4.825 L3.899,15.817 C3.967,16.544 4.567,17.091 5.297,17.091 L11.703,17.091 C12.435,17.091 13.036,16.550 13.102,15.833 C13.137,15.446 13.478,15.161 13.865,15.196 C14.251,15.232 14.536,15.574 14.500,15.960 C14.369,17.406 13.166,18.497 11.703,18.497 L5.297,18.497 C4.594,18.497 3.922,18.236 3.403,17.762 C2.884,17.288 2.563,16.641 2.499,15.941 C2.499,15.937 2.499,15.934 2.499,15.931 L1.643,4.825 L0.916,4.825 C0.528,4.825 0.213,4.511 0.213,4.123 C0.213,3.734 0.528,3.420 0.916,3.420 L5.164,3.420 L5.164,2.611 C5.164,1.449 6.109,0.503 7.271,0.503 L9.729,0.503 C10.891,0.503 11.836,1.449 11.836,2.611 L11.836,3.420 L16.084,3.420 C16.472,3.420 16.786,3.734 16.786,4.123 C16.786,4.511 16.472,4.825 16.084,4.825 ZM10.431,2.611 C10.431,2.224 10.116,1.908 9.729,1.908 L7.271,1.908 C6.884,1.908 6.569,2.224 6.569,2.611 L6.569,3.420 L10.431,3.420 L10.431,2.611 Z"/>
	</symbol>
</svg>