<svg>
	<symbol id="comment"  viewBox="0 0 22 18">
		<path fill-rule="evenodd"  fill="currentColor" d="M17.438,15.823 L8.302,15.823 L6.319,17.809 C6.199,17.928 6.036,17.996 5.867,17.996 C5.697,17.996 5.534,17.928 5.414,17.809 L3.252,15.644 C1.378,15.094 0.085,13.377 0.085,11.405 L0.085,4.484 C0.085,2.013 2.093,0.003 4.562,0.003 L17.438,0.003 C19.907,0.003 21.915,2.013 21.915,4.484 L21.915,11.341 C21.915,13.813 19.907,15.823 17.438,15.823 ZM20.636,4.484 C20.636,2.719 19.202,1.283 17.438,1.283 L4.562,1.283 C2.798,1.283 1.364,2.719 1.364,4.484 L1.364,11.405 C1.364,12.849 2.340,14.101 3.738,14.449 C3.851,14.477 3.954,14.536 4.036,14.618 L5.867,16.450 L7.585,14.730 C7.705,14.610 7.868,14.542 8.037,14.542 L17.438,14.542 C19.202,14.542 20.636,13.107 20.636,11.341 L20.636,4.484 ZM15.061,9.684 L6.939,9.684 C6.586,9.684 6.299,9.398 6.299,9.045 C6.299,8.691 6.586,8.404 6.939,8.404 L15.061,8.404 C15.414,8.404 15.700,8.691 15.700,9.045 C15.700,9.398 15.414,9.684 15.061,9.684 ZM15.061,7.422 L6.939,7.422 C6.586,7.422 6.299,7.135 6.299,6.781 C6.299,6.428 6.586,6.141 6.939,6.141 L15.061,6.141 C15.414,6.141 15.700,6.428 15.700,6.781 C15.700,7.135 15.414,7.422 15.061,7.422 Z"/>
	</symbol>
</svg>