<svg>
	<symbol id="copy"  viewBox="0 0 18 21">
		<path fill-rule="evenodd"  fill="currentColor" d="M13.376,0.504 C13.298,0.504 5.874,0.504 5.874,0.504 C4.552,0.504 3.374,1.717 3.374,3.003 L2.651,3.020 C1.329,3.020 0.248,4.216 0.248,5.502 L0.248,17.997 C0.248,19.283 1.426,20.496 2.749,20.496 L12.126,20.496 C13.448,20.496 14.626,19.283 14.626,17.997 L15.251,17.997 C16.574,17.997 17.751,16.784 17.751,15.498 L17.751,5.517 L13.376,0.504 ZM12.126,19.246 L2.749,19.246 C2.092,19.246 1.499,18.633 1.499,17.997 L1.499,5.502 C1.499,4.865 2.033,4.273 2.689,4.273 L3.374,4.253 L3.374,15.498 C3.374,16.784 4.552,17.997 5.874,17.997 L13.376,17.997 C13.376,18.633 12.782,19.246 12.126,19.246 ZM16.501,15.498 C16.501,16.134 15.907,16.747 15.251,16.747 L5.874,16.747 C5.218,16.747 4.624,16.134 4.624,15.498 L4.624,3.003 C4.624,2.367 5.218,1.754 5.874,1.754 L12.126,1.754 C12.116,3.192 12.126,4.268 12.126,4.268 C12.126,5.566 13.294,6.752 14.626,6.752 C14.626,6.752 15.290,6.752 16.501,6.752 L16.501,15.498 ZM14.626,5.502 C13.960,5.502 13.376,4.293 13.376,3.645 C13.376,3.645 13.376,2.987 13.376,1.773 L13.376,1.772 L16.501,5.502 L14.626,5.502 ZM13.376,9.262 L7.750,9.262 C7.405,9.262 7.125,9.541 7.125,9.886 C7.125,10.231 7.405,10.510 7.750,10.510 L13.376,10.510 C13.721,10.510 14.001,10.231 14.001,9.886 C14.001,9.541 13.721,9.262 13.376,9.262 ZM13.376,12.382 L7.750,12.382 C7.405,12.382 7.125,12.662 7.125,13.006 C7.125,13.351 7.405,13.631 7.750,13.631 L13.376,13.631 C13.721,13.631 14.001,13.351 14.001,13.006 C14.001,12.662 13.721,12.382 13.376,12.382 Z"/>
	</symbol>
</svg>