<svg>
	<symbol id="dealer"  viewBox="0 0 64 64">
		<path fill-rule="evenodd"  fill="currentColor" d="M57.717,47.216 C56.762,47.216 55.860,46.989 55.058,46.590 C54.970,47.516 54.572,48.418 53.863,49.125 C53.054,49.934 51.991,50.338 50.928,50.338 C50.784,50.338 50.640,50.331 50.498,50.316 C50.541,50.730 50.522,51.153 50.436,51.573 C50.334,52.075 49.844,52.400 49.342,52.299 C48.839,52.196 48.515,51.706 48.617,51.204 C48.770,50.451 48.539,49.677 47.998,49.132 C47.996,49.130 47.994,49.128 47.992,49.125 L45.262,46.397 C44.827,45.964 44.251,45.725 43.639,45.725 C43.026,45.725 42.450,45.964 42.016,46.397 C41.122,47.292 41.122,48.747 42.016,49.640 L44.747,52.368 C45.180,52.802 45.756,53.041 46.370,53.041 C46.526,53.041 46.678,53.025 46.822,52.995 C47.324,52.889 47.816,53.210 47.922,53.711 C48.028,54.213 47.707,54.705 47.205,54.810 C46.935,54.867 46.654,54.896 46.370,54.896 C46.225,54.896 46.082,54.888 45.941,54.874 C45.955,55.015 45.963,55.158 45.963,55.302 C45.963,56.410 45.531,57.452 44.747,58.235 C43.963,59.019 42.920,59.450 41.811,59.450 C41.666,59.450 41.523,59.443 41.380,59.428 C41.504,60.628 41.107,61.873 40.189,62.790 C39.405,63.574 38.362,64.005 37.253,64.005 C36.144,64.005 35.102,63.574 34.318,62.790 C33.674,62.147 33.287,61.342 33.155,60.505 C32.235,60.330 31.389,59.886 30.715,59.211 C29.976,58.471 29.514,57.529 29.378,56.510 C28.464,57.403 27.275,57.850 26.085,57.850 C24.878,57.850 23.671,57.392 22.752,56.474 C21.978,55.700 21.507,54.704 21.397,53.631 C20.630,54.117 19.752,54.362 18.873,54.362 C17.666,54.362 16.459,53.903 15.541,52.985 C14.703,52.149 14.220,51.053 14.166,49.878 C13.559,50.146 12.906,50.282 12.254,50.282 C11.047,50.282 9.840,49.823 8.922,48.905 C8.386,48.370 7.996,47.728 7.770,47.028 C7.287,47.152 6.790,47.216 6.283,47.216 C2.988,47.216 0.308,44.538 0.308,41.247 L0.308,16.261 C0.308,15.749 0.724,15.333 1.237,15.333 L34.190,15.333 C33.523,13.295 34.161,10.968 35.951,9.580 C38.227,7.817 41.515,8.232 43.279,10.506 L45.647,13.559 L48.580,8.368 C48.833,7.922 49.399,7.765 49.845,8.017 C50.292,8.269 50.450,8.834 50.197,9.281 L46.577,15.687 C46.425,15.957 46.146,16.133 45.836,16.156 C45.527,16.178 45.226,16.044 45.035,15.799 L41.811,11.643 C40.674,10.178 38.556,9.910 37.089,11.046 C35.622,12.183 35.354,14.300 36.491,15.765 L43.672,25.021 C44.304,25.836 45.299,26.323 46.331,26.323 C46.414,26.323 46.495,26.320 46.579,26.314 C47.703,26.233 48.707,25.598 49.263,24.614 L58.729,7.864 C59.171,7.081 59.282,6.174 59.041,5.309 C58.800,4.443 58.236,3.723 57.453,3.282 C55.837,2.369 53.780,2.941 52.868,4.555 L52.024,6.049 C51.771,6.496 51.205,6.653 50.759,6.401 C50.312,6.149 50.154,5.584 50.406,5.137 L51.251,3.643 C52.667,1.137 55.859,0.250 58.366,1.666 C59.581,2.352 60.456,3.468 60.830,4.811 C61.204,6.154 61.032,7.562 60.346,8.776 L56.640,15.334 L62.763,15.334 C63.276,15.334 63.691,15.749 63.691,16.261 L63.691,41.246 C63.691,44.538 61.011,47.216 57.717,47.216 ZM41.811,57.595 C42.424,57.595 43.000,57.356 43.434,56.924 C43.867,56.490 44.106,55.914 44.106,55.303 C44.106,54.689 43.867,54.114 43.434,53.680 L42.201,52.449 C41.768,52.017 41.192,51.778 40.579,51.778 C39.966,51.778 39.390,52.017 38.957,52.450 C38.523,52.883 38.285,53.458 38.285,54.071 C38.285,54.684 38.523,55.259 38.957,55.692 L40.189,56.924 C40.622,57.356 41.199,57.595 41.811,57.595 ZM35.631,61.478 C36.064,61.911 36.641,62.150 37.253,62.150 C37.866,62.150 38.442,61.911 38.876,61.478 C39.770,60.584 39.770,59.130 38.876,58.235 C38.429,57.788 37.841,57.565 37.253,57.565 C36.666,57.565 36.078,57.788 35.631,58.235 C34.736,59.130 34.736,60.584 35.631,61.478 ZM27.093,17.189 L12.257,17.189 L12.257,24.997 C12.257,25.509 11.842,25.925 11.329,25.925 C10.816,25.925 10.400,25.509 10.400,24.997 L10.400,17.189 L2.165,17.189 L2.165,41.247 C2.165,43.515 4.012,45.361 6.283,45.361 C6.721,45.361 7.149,45.292 7.561,45.157 C7.657,44.057 8.131,43.036 8.922,42.245 L10.400,40.768 L10.400,28.709 C10.400,28.196 10.816,27.781 11.329,27.781 C11.842,27.781 12.257,28.196 12.257,28.709 L12.257,38.912 L25.198,25.982 C25.372,25.808 25.608,25.710 25.854,25.710 C26.100,25.710 26.337,25.808 26.511,25.982 L34.195,33.660 C34.946,34.411 35.944,34.824 37.006,34.824 C38.067,34.824 39.064,34.411 39.815,33.660 C40.566,32.912 40.979,31.915 40.979,30.854 C40.979,29.794 40.566,28.797 39.815,28.047 L30.262,18.500 C29.416,17.655 28.290,17.189 27.093,17.189 ZM51.743,41.247 L51.743,24.001 L50.880,25.527 C50.018,27.053 48.460,28.039 46.712,28.166 C46.584,28.175 46.457,28.179 46.332,28.179 C44.730,28.179 43.187,27.424 42.205,26.159 L35.247,17.189 L31.575,17.189 L41.129,26.736 C42.230,27.836 42.836,29.299 42.836,30.855 C42.836,32.411 42.230,33.873 41.129,34.973 C40.027,36.074 38.563,36.680 37.007,36.680 C35.449,36.680 33.984,36.074 32.883,34.973 L25.855,27.951 L10.235,43.559 C9.696,44.097 9.399,44.814 9.399,45.575 C9.399,46.338 9.696,47.054 10.235,47.593 C11.349,48.706 13.160,48.705 14.273,47.593 L22.438,39.435 C22.800,39.073 23.388,39.073 23.751,39.435 C24.113,39.797 24.113,40.384 23.751,40.747 L16.854,47.638 C16.315,48.177 16.018,48.894 16.018,49.656 C16.018,50.418 16.315,51.135 16.854,51.674 C17.968,52.786 19.779,52.786 20.892,51.674 L29.607,42.965 C29.970,42.602 30.558,42.602 30.920,42.965 C31.283,43.327 31.283,43.915 30.920,44.277 L24.066,51.126 C23.526,51.665 23.230,52.382 23.230,53.144 C23.230,53.907 23.526,54.623 24.066,55.162 C25.179,56.275 26.991,56.275 28.104,55.162 L37.170,46.102 C37.532,45.740 38.120,45.740 38.483,46.102 C38.845,46.464 38.845,47.052 38.483,47.414 L32.024,53.868 C31.485,54.414 31.193,55.125 31.193,55.882 C31.193,56.643 31.490,57.360 32.029,57.900 C32.383,58.254 32.816,58.502 33.289,58.631 C33.481,58.006 33.824,57.417 34.318,56.924 C35.006,56.235 35.878,55.842 36.777,55.739 C36.549,55.219 36.428,54.655 36.428,54.071 C36.428,52.963 36.860,51.921 37.644,51.137 C38.283,50.498 39.095,50.094 39.974,49.966 C39.141,48.398 39.384,46.405 40.703,45.086 C41.488,44.302 42.530,43.870 43.639,43.870 C44.330,43.870 44.995,44.038 45.589,44.354 C45.717,43.477 46.122,42.667 46.761,42.028 C47.545,41.245 48.587,40.813 49.696,40.813 C50.427,40.813 51.128,41.002 51.746,41.354 C51.745,41.318 51.743,41.282 51.743,41.247 ZM52.550,44.571 L51.318,43.341 C50.885,42.907 50.308,42.669 49.696,42.669 C49.083,42.669 48.506,42.907 48.073,43.341 C47.640,43.773 47.401,44.349 47.401,44.962 C47.401,45.573 47.639,46.148 48.072,46.581 L49.305,47.813 C49.307,47.815 49.308,47.817 49.310,47.818 C50.205,48.708 51.657,48.706 52.550,47.814 C53.445,46.920 53.445,45.465 52.550,44.571 ZM61.834,17.189 L55.591,17.189 L53.599,20.714 L53.599,41.246 C53.599,43.514 55.447,45.360 57.717,45.360 C59.987,45.360 61.834,43.514 61.834,41.246 L61.834,17.189 ZM57.766,25.836 C55.984,25.836 54.534,24.387 54.534,22.607 C54.534,20.825 55.984,19.376 57.766,19.376 C59.549,19.376 60.999,20.825 60.999,22.607 C60.999,24.387 59.549,25.836 57.766,25.836 ZM57.766,21.232 C57.008,21.232 56.391,21.848 56.391,22.607 C56.391,23.364 57.008,23.980 57.766,23.980 C58.525,23.980 59.142,23.364 59.142,22.607 C59.142,21.848 58.525,21.232 57.766,21.232 ZM6.283,25.836 C4.501,25.836 3.051,24.387 3.051,22.607 C3.051,20.825 4.501,19.376 6.283,19.376 C8.065,19.376 9.515,20.825 9.515,22.607 C9.515,24.387 8.065,25.836 6.283,25.836 ZM6.283,21.232 C5.525,21.232 4.908,21.848 4.908,22.607 C4.908,23.364 5.525,23.980 6.283,23.980 C7.041,23.980 7.659,23.364 7.659,22.607 C7.659,21.848 7.041,21.232 6.283,21.232 Z"/>
	</symbol>
</svg>