<svg>
	<symbol id="delivery-address"  viewBox="0 0 36 41">
		<path fill-rule="evenodd"  fill="currentColor" d="M35.522,35.580 L18.196,40.910 C18.068,40.949 17.932,40.949 17.804,40.910 L0.478,35.580 C0.198,35.494 0.007,35.235 0.007,34.943 L0.007,16.955 C0.007,16.662 0.198,16.404 0.477,16.318 L10.473,13.243 L10.865,14.516 L2.939,16.955 L18.000,21.587 L33.061,16.955 L25.134,14.516 L25.526,13.243 L35.522,16.318 C35.802,16.404 35.993,16.662 35.993,16.955 L35.993,34.943 C35.993,35.235 35.802,35.494 35.522,35.580 ZM17.334,22.777 L1.340,17.857 L1.340,34.451 L17.334,39.371 L17.334,22.777 ZM34.660,17.857 L18.666,22.777 L18.666,39.371 L34.660,34.451 L34.660,17.857 ZM23.135,23.236 L29.799,21.186 C29.863,21.167 29.929,21.157 29.995,21.157 C30.363,21.157 30.662,21.455 30.662,21.823 L30.662,25.154 C30.661,25.447 30.471,25.705 30.191,25.791 L23.527,27.841 C23.464,27.861 23.398,27.871 23.331,27.871 C22.963,27.871 22.665,27.572 22.665,27.204 L22.665,23.873 C22.665,23.581 22.856,23.323 23.135,23.236 ZM23.998,26.302 L29.329,24.662 L29.329,22.725 L23.998,24.365 L23.998,26.302 ZM28.196,35.179 L26.863,35.589 L26.472,34.315 L27.805,33.905 L28.196,35.179 ZM30.861,34.362 L29.528,34.772 L29.136,33.498 L30.469,33.088 L30.861,34.362 ZM33.529,33.539 L32.196,33.949 L31.804,32.675 L33.137,32.265 L33.529,33.539 ZM6.201,21.186 L12.865,23.236 C13.144,23.323 13.335,23.581 13.335,23.873 L13.335,27.204 C13.335,27.572 13.037,27.871 12.669,27.871 C12.602,27.871 12.536,27.861 12.473,27.841 L5.809,25.791 C5.529,25.705 5.338,25.447 5.338,25.154 L5.338,21.823 C5.338,21.757 5.348,21.691 5.368,21.627 C5.476,21.275 5.849,21.078 6.201,21.186 ZM6.671,24.662 L12.002,26.302 L12.002,24.365 L6.671,22.725 L6.671,24.662 ZM10.872,34.710 L10.481,35.984 L9.147,35.574 L9.539,34.301 L10.872,34.710 ZM13.538,35.527 L13.146,36.801 L11.813,36.391 L12.205,35.117 L13.538,35.527 ZM16.204,36.350 L15.812,37.623 L14.479,37.214 L14.871,35.940 L16.204,36.350 ZM18.382,19.499 C18.153,19.659 17.847,19.659 17.618,19.499 C16.352,18.567 15.194,17.497 14.165,16.309 C11.878,13.680 10.670,10.908 10.670,8.293 C10.670,4.246 13.951,0.965 18.000,0.965 C22.048,0.965 25.330,4.246 25.330,8.293 C25.330,10.908 24.122,13.680 21.835,16.309 C20.806,17.497 19.648,18.567 18.382,19.499 ZM18.000,2.297 C14.689,2.301 12.006,4.983 12.002,8.293 C12.002,13.069 16.622,17.041 18.000,18.119 C19.376,17.040 23.998,13.060 23.998,8.293 C23.994,4.983 21.311,2.301 18.000,2.297 ZM14.002,8.293 C14.002,6.086 15.792,4.296 18.000,4.296 C20.208,4.296 21.998,6.086 21.998,8.293 C21.996,10.500 20.207,12.288 18.000,12.291 C15.792,12.291 14.002,10.501 14.002,8.293 ZM20.666,8.293 C20.666,6.822 19.472,5.629 18.000,5.629 C16.528,5.629 15.334,6.822 15.334,8.293 C15.336,9.765 16.528,10.957 18.000,10.958 C19.472,10.958 20.666,9.765 20.666,8.293 Z"/>
	</symbol>
</svg>