<svg>
	<symbol id="delivery-car"  viewBox="0 0 56 29">
		<path fill-rule="evenodd"  fill="currentColor" d="M45.379,14.493 C46.424,14.505 47.470,14.482 48.515,14.508 C48.746,14.514 49.046,14.601 49.183,14.762 C49.317,14.919 49.386,15.275 49.296,15.443 C49.184,15.651 48.890,15.860 48.656,15.884 C48.060,15.946 47.454,15.904 46.852,15.904 C46.330,15.904 45.807,15.915 45.284,15.902 C43.924,15.868 42.856,14.913 42.744,13.559 C42.677,12.757 42.677,11.942 42.735,11.140 C42.819,9.963 43.832,8.898 45.090,8.797 C45.605,8.756 45.960,8.978 46.019,9.392 C46.081,9.835 45.805,10.126 45.249,10.203 C44.545,10.301 44.135,10.723 44.112,11.419 C44.092,12.037 44.088,12.655 44.111,13.272 C44.139,14.029 44.616,14.485 45.379,14.493 ZM52.571,24.388 C51.652,24.395 50.734,24.389 49.795,24.389 C49.750,24.552 49.711,24.687 49.675,24.823 C49.137,26.816 47.381,28.177 45.340,28.184 C43.302,28.191 41.518,26.840 40.995,24.847 C40.899,24.480 40.762,24.380 40.395,24.381 C35.906,24.394 31.416,24.393 26.926,24.383 C26.575,24.382 26.411,24.447 26.311,24.831 C25.784,26.853 23.999,28.198 21.933,28.183 C19.899,28.169 18.146,26.800 17.634,24.789 C17.547,24.447 17.397,24.376 17.082,24.383 C16.225,24.401 15.368,24.395 14.512,24.388 C12.959,24.375 11.841,23.261 11.832,21.716 C11.825,20.573 11.828,19.431 11.831,18.288 C11.832,17.718 12.083,17.413 12.537,17.414 C12.991,17.416 13.230,17.713 13.231,18.296 C13.235,19.391 13.230,20.486 13.234,21.581 C13.238,22.516 13.704,22.980 14.641,22.985 C15.466,22.989 16.291,22.975 17.116,22.992 C17.416,22.998 17.552,22.920 17.633,22.604 C18.151,20.574 19.921,19.202 21.976,19.205 C24.023,19.207 25.782,20.549 26.309,22.553 C26.402,22.905 26.542,22.994 26.883,22.993 C31.404,22.983 35.926,22.982 40.447,22.994 C40.777,22.994 40.902,22.904 40.988,22.575 C41.515,20.564 43.262,19.216 45.306,19.204 C47.360,19.192 49.138,20.557 49.669,22.581 C49.747,22.879 49.848,23.002 50.168,22.993 C50.993,22.972 51.818,22.997 52.642,22.981 C53.332,22.967 53.844,22.512 53.868,21.837 C53.902,20.856 53.876,19.872 53.876,18.805 C53.486,18.805 53.156,18.819 52.827,18.802 C52.371,18.778 52.086,18.492 52.091,18.094 C52.095,17.699 52.383,17.431 52.848,17.411 C53.142,17.398 53.438,17.409 53.777,17.409 C53.616,16.669 53.285,16.131 52.738,15.738 C52.352,15.459 51.966,15.171 51.548,14.951 C50.841,14.580 50.396,14.005 50.075,13.300 C49.565,12.178 49.055,11.056 48.521,9.946 C47.805,8.456 46.697,7.379 44.698,7.402 C43.223,7.419 41.748,7.405 40.272,7.404 C40.102,7.404 39.931,7.404 39.698,7.404 C39.698,7.643 39.698,7.828 39.698,8.014 C39.698,9.692 39.699,11.370 39.699,13.049 C39.699,14.951 39.699,16.854 39.697,18.756 C39.697,19.353 39.432,19.688 38.980,19.675 C38.547,19.662 38.295,19.335 38.293,18.766 C38.289,17.833 38.292,16.900 38.292,15.903 C38.064,15.903 37.880,15.903 37.696,15.903 C33.428,15.901 29.160,15.900 24.893,15.898 C24.734,15.898 24.571,15.914 24.418,15.883 C24.044,15.805 23.833,15.556 23.840,15.177 C23.847,14.819 24.057,14.583 24.408,14.509 C24.576,14.474 24.756,14.492 24.930,14.492 C29.182,14.493 33.434,14.495 37.685,14.497 C37.872,14.497 38.059,14.497 38.289,14.497 C38.289,14.010 38.288,13.573 38.289,13.137 C38.289,9.876 38.291,6.615 38.291,3.355 C38.290,2.310 37.859,1.879 36.819,1.879 C29.616,1.878 22.414,1.878 15.211,1.878 C15.021,1.878 14.830,1.880 14.640,1.877 C14.077,1.868 13.752,1.607 13.754,1.168 C13.756,0.727 14.070,0.477 14.646,0.477 C22.103,0.475 29.559,0.473 37.016,0.477 C38.576,0.479 39.682,1.589 39.696,3.145 C39.704,4.077 39.698,5.008 39.698,6.001 C39.923,6.001 40.093,6.001 40.262,6.001 C41.817,6.001 43.372,5.975 44.926,6.007 C47.033,6.051 48.585,7.035 49.538,8.912 C50.210,10.238 50.813,11.598 51.485,12.924 C51.631,13.211 51.910,13.451 52.174,13.653 C52.765,14.105 53.435,14.463 53.981,14.960 C54.898,15.794 55.266,16.905 55.283,18.127 C55.300,19.317 55.295,20.507 55.285,21.697 C55.271,23.275 54.158,24.377 52.571,24.388 ZM21.982,20.605 C20.298,20.598 18.897,21.998 18.895,23.691 C18.893,25.386 20.282,26.779 21.976,26.776 C23.680,26.775 25.054,25.402 25.058,23.697 C25.061,22.001 23.679,20.611 21.982,20.605 ZM45.314,20.607 C43.618,20.617 42.237,22.012 42.247,23.706 C42.256,25.411 43.635,26.781 45.338,26.776 C47.035,26.772 48.408,25.387 48.405,23.682 C48.403,21.987 47.005,20.597 45.314,20.607 ZM45.342,24.869 C44.678,24.876 44.162,24.372 44.154,23.708 C44.146,23.048 44.658,22.518 45.311,22.510 C45.957,22.503 46.499,23.030 46.512,23.678 C46.525,24.325 45.999,24.861 45.342,24.869 ZM21.982,24.868 C21.323,24.870 20.796,24.350 20.794,23.697 C20.792,23.052 21.329,22.511 21.974,22.509 C22.625,22.507 23.148,23.031 23.151,23.689 C23.154,24.354 22.646,24.866 21.982,24.868 ZM20.327,14.506 C20.735,14.535 21.027,14.848 20.998,15.220 C20.967,15.618 20.743,15.857 20.339,15.899 C20.183,15.915 20.024,15.902 19.866,15.902 C19.866,15.900 19.866,15.898 19.866,15.896 C19.693,15.896 19.515,15.921 19.347,15.891 C18.976,15.825 18.753,15.597 18.754,15.208 C18.755,14.799 18.983,14.553 19.382,14.511 C19.694,14.478 20.013,14.485 20.327,14.506 ZM16.280,4.998 C17.692,4.998 19.104,4.997 20.516,4.999 C20.690,5.000 20.868,4.999 21.036,5.037 C21.392,5.116 21.588,5.366 21.578,5.721 C21.567,6.095 21.354,6.342 20.967,6.394 C20.811,6.415 20.651,6.408 20.492,6.407 C17.574,6.392 14.657,6.377 11.739,6.360 C11.153,6.357 10.875,6.147 10.877,5.718 C10.880,5.274 11.200,5.000 11.758,4.997 C13.266,4.990 14.773,4.995 16.280,4.995 C16.280,4.996 16.280,4.997 16.280,4.998 ZM10.673,1.863 C10.391,1.890 10.103,1.868 9.818,1.868 C9.818,1.870 9.818,1.871 9.818,1.873 C9.548,1.873 9.277,1.893 9.010,1.868 C8.590,1.830 8.322,1.528 8.354,1.140 C8.387,0.735 8.614,0.493 9.027,0.482 C9.566,0.468 10.106,0.468 10.645,0.482 C11.053,0.493 11.292,0.722 11.324,1.131 C11.356,1.526 11.099,1.821 10.673,1.863 ZM7.599,6.407 C7.112,6.394 6.624,6.380 6.137,6.357 C5.683,6.335 5.447,6.100 5.449,5.690 C5.451,5.239 5.640,5.032 6.106,5.001 C6.357,4.984 6.610,4.998 6.862,4.998 C6.862,5.000 6.862,5.002 6.862,5.004 C7.146,5.004 7.432,4.981 7.713,5.009 C8.139,5.052 8.408,5.394 8.363,5.789 C8.320,6.168 8.016,6.417 7.599,6.407 ZM2.882,11.427 C2.648,11.450 2.409,11.431 2.173,11.431 C2.173,11.430 2.173,11.430 2.173,11.429 C1.936,11.429 1.699,11.441 1.463,11.427 C1.055,11.402 0.816,11.165 0.794,10.768 C0.773,10.365 1.006,10.085 1.398,10.049 C1.899,10.002 2.409,10.002 2.910,10.042 C3.300,10.073 3.532,10.330 3.522,10.748 C3.512,11.163 3.283,11.389 2.882,11.427 ZM6.113,10.033 C6.555,10.009 7.002,10.002 7.441,10.045 C7.837,10.083 8.075,10.353 8.060,10.757 C8.046,11.155 7.808,11.398 7.399,11.428 C7.179,11.444 6.956,11.431 6.735,11.431 C6.735,11.432 6.735,11.433 6.735,11.434 C6.545,11.434 6.354,11.438 6.165,11.433 C5.756,11.423 5.504,11.235 5.483,10.807 C5.466,10.444 5.766,10.051 6.113,10.033 ZM11.124,11.435 C10.521,11.434 10.195,11.182 10.204,10.727 C10.213,10.273 10.536,10.019 11.142,10.029 C12.263,10.047 13.384,10.095 14.506,10.102 C15.152,10.106 15.798,10.039 16.444,10.031 C16.968,10.023 17.290,10.299 17.302,10.715 C17.315,11.157 16.994,11.423 16.436,11.433 C16.278,11.435 16.120,11.433 15.961,11.433 C15.961,11.434 15.961,11.434 15.961,11.435 C14.349,11.435 12.736,11.436 11.124,11.435 ZM8.362,14.500 C9.073,14.510 9.783,14.571 10.493,14.567 C11.694,14.561 12.895,14.519 14.095,14.498 C14.519,14.490 14.944,14.501 15.368,14.499 C15.767,14.497 16.074,14.772 16.096,15.158 C16.121,15.590 15.839,15.895 15.362,15.902 C14.349,15.915 13.336,15.907 12.322,15.908 C12.132,15.908 11.943,15.908 11.753,15.908 C11.753,15.907 11.753,15.907 11.753,15.906 C10.628,15.906 9.504,15.909 8.381,15.905 C7.808,15.903 7.501,15.657 7.495,15.211 C7.489,14.762 7.799,14.492 8.362,14.500 Z"/>
	</symbol>
</svg>