<svg>
	<symbol id="delivered"  viewBox="0 0 27 15">
		<path fill-rule="evenodd"  fill="currentColor" d="M26.341,2.878 C22.834,6.723 19.333,10.574 15.830,14.423 C15.117,15.206 14.348,15.189 13.653,14.379 C13.283,13.948 12.908,13.523 12.541,13.089 C11.970,12.413 11.967,11.483 12.527,10.894 C13.090,10.302 13.896,10.345 14.480,10.999 C14.579,11.110 14.670,11.228 14.829,11.419 C15.436,10.713 16.010,10.016 16.612,9.351 C19.229,6.462 21.882,3.614 24.461,0.685 C25.378,-0.357 26.709,-0.020 26.986,1.273 C26.986,1.449 26.986,1.625 26.986,1.800 C26.879,2.240 26.627,2.564 26.341,2.878 ZM15.833,5.511 C13.130,8.482 10.424,11.452 7.726,14.429 C7.296,14.903 6.813,15.128 6.227,14.906 C6.012,14.824 5.800,14.665 5.641,14.482 C3.895,12.490 2.156,10.489 0.428,8.478 C0.248,8.268 0.150,7.972 0.014,7.715 C0.014,7.520 0.014,7.325 0.014,7.130 C0.116,6.906 0.187,6.654 0.325,6.461 C0.849,5.729 1.765,5.708 2.379,6.411 C3.676,7.894 4.966,9.386 6.260,10.873 C6.394,11.027 6.537,11.170 6.743,11.390 C7.367,10.667 7.985,9.922 8.631,9.209 C11.267,6.300 13.910,3.401 16.552,0.498 C17.188,-0.200 18.089,-0.198 18.617,0.500 C19.080,1.111 19.044,1.969 18.509,2.565 C17.623,3.553 16.725,4.529 15.833,5.511 Z"/>
	</symbol>
</svg>