<svg>
	<symbol id="delivery-company"  viewBox="0 0 42 39">
		<path fill-rule="evenodd"  fill="currentColor" d="M22.356,21.792 L22.356,8.225 L23.712,8.225 L23.712,21.792 L22.356,21.792 ZM19.644,21.792 L19.644,8.225 L21.000,8.225 L21.000,21.792 L19.644,21.792 ZM16.931,21.792 L16.931,8.225 L18.287,8.225 L18.287,21.792 L16.931,21.792 ZM40.666,34.003 L35.192,34.003 C34.891,36.087 33.254,37.724 31.171,38.025 C28.577,38.399 26.170,36.598 25.796,34.003 L15.575,34.003 L15.575,32.646 L19.644,32.646 L19.644,24.506 L15.575,24.506 L15.575,23.149 L25.747,23.149 L25.747,6.868 L15.575,6.868 L15.575,5.511 L26.425,5.511 C26.800,5.511 27.103,5.815 27.103,6.190 L27.103,11.009 L38.706,12.299 C39.050,12.337 39.310,12.628 39.310,12.973 L39.310,15.687 C39.310,16.061 39.006,16.365 38.632,16.365 L37.340,16.365 L37.895,22.471 L38.632,22.471 C40.129,22.472 41.342,23.686 41.344,25.184 L41.344,33.325 C41.344,33.699 41.040,34.003 40.666,34.003 ZM30.494,36.717 C32.366,36.714 33.882,35.197 33.884,33.325 C33.884,31.451 32.366,29.933 30.494,29.933 C28.621,29.933 27.103,31.451 27.103,33.325 C27.103,35.198 28.621,36.717 30.494,36.717 ZM25.796,32.646 C26.136,30.312 28.135,28.579 30.494,28.576 C32.852,28.579 34.852,30.312 35.192,32.646 L36.558,32.646 C36.242,29.811 34.005,27.574 31.171,27.257 C27.822,26.883 24.803,29.296 24.429,32.646 L25.796,32.646 ZM31.172,22.471 L36.533,22.471 L35.978,16.365 L31.172,16.365 L31.172,22.471 ZM37.953,15.008 L37.953,13.581 L27.103,12.375 L27.103,23.827 C27.103,24.202 26.800,24.506 26.425,24.506 L21.000,24.506 L21.000,32.646 L23.066,32.646 C23.397,29.063 26.234,26.226 29.816,25.894 L29.816,15.687 C29.816,15.312 30.119,15.008 30.494,15.008 L37.953,15.008 ZM39.988,25.184 C39.987,24.435 39.380,23.828 38.632,23.827 L38.632,25.862 L39.988,25.862 L39.988,25.184 ZM39.988,29.933 L38.632,29.933 L38.632,28.576 L39.988,28.576 L39.988,27.219 L37.953,27.219 C37.579,27.219 37.275,26.915 37.275,26.541 L37.275,23.827 L31.172,23.827 L31.172,25.894 C34.754,26.226 37.590,29.063 37.922,32.646 L39.988,32.646 L39.988,29.933 ZM30.494,31.290 C31.617,31.291 32.527,32.201 32.528,33.325 C32.528,34.448 31.617,35.360 30.494,35.360 C29.370,35.360 28.459,34.448 28.459,33.325 C28.459,32.201 29.370,31.290 30.494,31.290 ZM30.494,34.003 C30.868,34.003 31.172,33.699 31.172,33.325 C31.172,32.950 30.868,32.646 30.494,32.646 C30.119,32.646 29.816,32.950 29.816,33.325 C29.816,33.699 30.119,34.003 30.494,34.003 ZM13.540,38.073 L1.334,38.073 C0.959,38.073 0.656,37.769 0.656,37.395 L0.656,0.763 C0.656,0.388 0.959,0.084 1.334,0.084 L13.540,0.084 C13.915,0.084 14.219,0.388 14.219,0.763 L14.219,37.395 C14.219,37.769 13.915,38.073 13.540,38.073 ZM8.793,1.441 L6.081,1.441 L6.081,4.155 L8.793,4.155 L8.793,1.441 ZM12.862,1.441 L10.150,1.441 L10.150,4.833 C10.150,5.208 9.846,5.511 9.472,5.511 L5.403,5.511 C5.028,5.511 4.725,5.208 4.725,4.833 L4.725,1.441 L2.012,1.441 L2.012,12.295 L12.862,12.295 L12.862,1.441 ZM6.081,13.652 L6.081,16.365 L8.793,16.365 L8.793,13.652 L6.081,13.652 ZM12.862,13.652 L10.150,13.652 L10.150,17.044 C10.150,17.418 9.846,17.722 9.472,17.722 L5.403,17.722 C5.028,17.722 4.725,17.418 4.725,17.044 L4.725,13.652 L2.012,13.652 L2.012,24.506 L12.862,24.506 L12.862,13.652 ZM6.081,25.862 L6.081,28.576 L8.793,28.576 L8.793,25.862 L6.081,25.862 ZM12.862,25.862 L10.150,25.862 L10.150,29.254 C10.150,29.629 9.846,29.933 9.472,29.933 L5.403,29.933 C5.028,29.933 4.725,29.629 4.725,29.254 L4.725,25.862 L2.012,25.862 L2.012,36.717 L12.862,36.717 L12.862,25.862 ZM11.506,35.360 L10.150,35.360 L10.150,34.003 L11.506,34.003 L11.506,35.360 ZM11.506,23.149 L10.150,23.149 L10.150,21.792 L11.506,21.792 L11.506,23.149 ZM11.506,10.938 L10.150,10.938 L10.150,9.581 L11.506,9.581 L11.506,10.938 Z"/>
	</symbol>
</svg>