<svg>
	<symbol id="delivery-pickup"  viewBox="0 0 40 46">
		<path fill-rule="evenodd"  fill="currentColor" d="M39.628,14.926 C39.626,15.538 39.395,15.848 38.949,15.861 C38.485,15.876 38.234,15.551 38.232,14.911 C38.229,13.693 38.218,12.474 38.238,11.257 C38.244,10.866 38.131,10.718 37.724,10.729 C36.798,10.754 35.870,10.737 34.853,10.737 C34.853,11.585 34.856,12.325 34.853,13.064 C34.849,13.849 34.651,14.056 33.885,14.060 C32.954,14.066 32.023,14.065 31.092,14.059 C30.362,14.055 30.154,13.840 30.150,13.097 C30.146,12.341 30.149,11.585 30.149,10.791 C29.007,10.791 27.936,10.791 26.792,10.791 C26.792,11.136 26.790,11.456 26.793,11.775 C26.803,12.936 26.817,14.096 26.824,15.257 C26.830,16.306 27.284,16.769 28.321,16.802 C30.429,16.871 32.537,16.955 34.645,17.016 C34.900,17.024 35.207,17.007 35.405,16.874 C36.531,16.122 37.799,16.449 39.007,16.371 C39.379,16.347 39.620,16.666 39.623,17.064 C39.631,18.225 39.632,19.386 39.624,20.546 C39.621,21.001 39.367,21.280 38.919,21.274 C37.632,21.255 36.345,21.203 35.058,21.162 C34.812,21.154 34.565,21.117 34.320,21.128 C32.004,21.229 29.689,21.348 27.373,21.438 C26.878,21.457 26.715,21.628 26.911,22.145 C27.100,22.154 27.303,22.173 27.507,22.173 C30.871,22.168 34.234,22.167 37.598,22.141 C37.888,22.139 38.171,21.932 38.468,21.885 C38.742,21.841 39.113,21.777 39.288,21.916 C39.465,22.057 39.559,22.460 39.501,22.704 C39.389,23.180 38.999,23.452 38.511,23.532 C38.288,23.568 38.057,23.566 37.829,23.566 C34.352,23.568 30.874,23.567 27.396,23.567 C25.781,23.566 25.407,23.197 25.393,21.599 C25.391,21.403 25.373,21.208 25.270,21.018 C25.270,21.547 25.309,22.079 25.262,22.603 C25.154,23.815 25.657,24.515 26.788,25.019 C28.363,25.721 29.839,26.643 31.372,27.443 C32.234,27.892 32.716,28.567 32.878,29.522 C33.451,32.894 34.045,36.264 34.623,39.635 C34.683,39.981 34.775,40.191 35.197,40.249 C35.976,40.355 36.422,40.897 36.604,41.635 C36.707,42.058 36.737,42.499 36.792,42.933 C36.851,43.410 36.636,43.710 36.169,43.796 C34.543,44.095 32.920,44.403 31.288,44.666 C30.485,44.795 29.985,44.391 29.836,43.576 C29.406,41.221 28.994,38.863 28.560,36.509 C28.284,35.014 27.967,33.526 27.697,32.029 C27.632,31.671 27.473,31.531 27.132,31.447 C25.768,31.112 24.409,30.757 23.054,30.385 C21.209,29.880 19.758,28.782 18.554,27.324 C18.472,27.224 18.383,27.131 18.222,26.950 C18.086,27.538 17.965,28.043 17.853,28.550 C17.541,29.961 17.219,31.371 16.930,32.787 C16.801,33.416 16.510,33.897 15.996,34.291 C14.233,35.642 12.491,37.020 10.740,38.387 C9.875,39.062 9.008,39.734 8.083,40.454 C8.848,41.528 9.627,42.620 10.400,43.705 C11.197,43.401 11.244,43.258 10.795,42.625 C10.399,42.066 9.996,41.512 9.617,40.942 C9.366,40.565 9.242,40.143 9.706,39.843 C10.144,39.560 10.486,39.751 10.751,40.170 C10.960,40.503 11.209,40.811 11.460,41.157 C12.558,40.270 13.601,39.424 14.648,38.583 C15.966,37.524 17.299,36.483 18.598,35.403 C18.889,35.161 19.135,34.816 19.287,34.468 C19.768,33.371 20.182,32.245 20.651,31.143 C20.747,30.915 20.930,30.660 21.140,30.564 C21.320,30.482 21.668,30.533 21.809,30.666 C21.970,30.818 22.112,31.175 22.043,31.358 C21.469,32.868 20.940,34.408 20.193,35.832 C19.858,36.470 19.066,36.876 18.462,37.363 C16.584,38.876 14.701,40.383 12.810,41.880 C12.504,42.122 12.333,42.314 12.459,42.770 C12.664,43.513 12.395,44.158 11.752,44.614 C11.427,44.845 11.091,45.062 10.759,45.282 C10.341,45.559 9.959,45.516 9.663,45.106 C8.692,43.766 7.719,42.428 6.777,41.068 C6.343,40.443 6.504,39.773 7.104,39.314 C9.727,37.307 12.354,35.306 14.957,33.272 C15.238,33.052 15.467,32.659 15.550,32.306 C16.102,29.955 16.689,27.606 17.088,25.227 C17.249,24.273 16.972,23.242 16.879,22.248 C16.844,21.870 16.752,21.497 16.711,21.120 C16.663,20.680 16.844,20.359 17.300,20.295 C17.748,20.233 18.028,20.465 18.100,20.913 C18.281,22.021 18.414,23.138 18.645,24.235 C18.768,24.817 18.960,25.429 19.287,25.915 C20.229,27.318 21.456,28.426 23.115,28.915 C24.644,29.365 26.191,29.756 27.737,30.143 C28.570,30.350 28.858,30.609 29.014,31.454 C29.703,35.176 30.393,38.898 31.084,42.619 C31.119,42.805 31.170,42.987 31.232,43.248 C31.946,43.121 32.648,42.996 33.349,42.870 C33.854,42.779 34.365,42.712 34.858,42.579 C35.012,42.537 35.213,42.323 35.226,42.174 C35.251,41.869 35.108,41.601 34.717,41.668 C33.949,41.798 33.184,41.939 32.417,42.075 C32.267,42.102 32.118,42.140 31.968,42.146 C31.540,42.165 31.268,41.949 31.212,41.533 C31.160,41.142 31.366,40.866 31.748,40.773 C32.243,40.652 32.745,40.566 33.311,40.451 C33.118,39.312 32.934,38.211 32.744,37.111 C32.339,34.768 31.906,32.430 31.536,30.082 C31.420,29.350 31.102,28.895 30.442,28.555 C28.550,27.581 26.698,26.529 24.808,25.553 C24.229,25.255 23.913,24.891 23.964,24.229 C23.977,24.067 23.917,23.899 23.882,23.676 C22.643,23.800 21.438,23.918 20.235,24.044 C19.842,24.085 19.508,24.016 19.328,23.625 C19.108,23.144 19.437,22.693 20.061,22.625 C21.137,22.508 22.213,22.377 23.293,22.299 C23.731,22.268 23.777,22.091 23.803,21.697 C23.902,20.188 23.490,18.972 22.143,18.125 C21.587,17.775 21.139,17.255 20.644,16.810 C20.296,16.498 20.199,16.123 20.515,15.757 C20.833,15.389 21.222,15.437 21.574,15.739 C22.049,16.146 22.515,16.563 23.030,17.016 C23.524,16.484 23.995,15.976 24.561,15.366 C23.310,14.143 22.148,12.885 20.855,11.779 C19.831,10.904 18.657,10.902 17.736,11.514 C17.315,11.794 16.991,12.171 17.042,12.685 C17.229,14.572 17.460,16.455 17.680,18.391 C18.124,18.391 18.463,18.384 18.800,18.393 C19.269,18.405 19.572,18.628 19.563,19.121 C19.555,19.587 19.252,19.800 18.813,19.802 C17.065,19.810 15.317,19.811 13.568,19.804 C13.105,19.803 12.789,19.581 12.802,19.082 C12.814,18.586 13.138,18.392 13.602,18.391 C14.470,18.390 15.339,18.391 16.286,18.391 C16.137,17.293 15.996,16.281 15.863,15.269 C15.789,14.703 15.744,14.133 15.659,13.569 C15.469,12.314 15.730,11.225 16.827,10.400 C16.636,10.242 16.479,10.114 16.323,9.985 C15.077,8.967 14.679,7.570 14.553,6.045 C14.504,5.457 14.414,4.873 14.343,4.288 C14.136,2.587 15.191,1.128 16.880,0.865 C18.005,0.689 19.141,0.563 20.277,0.484 C21.706,0.385 23.007,1.407 23.326,2.810 C23.393,3.104 23.430,3.405 23.498,3.802 C24.178,3.700 24.842,3.601 25.506,3.500 C25.657,3.477 25.805,3.442 25.956,3.426 C26.392,3.379 26.729,3.537 26.806,3.988 C26.889,4.469 26.616,4.740 26.154,4.821 C25.443,4.944 24.730,5.056 24.019,5.177 C23.773,5.218 23.570,5.255 23.541,5.608 C23.316,8.340 23.308,8.339 21.610,10.227 C22.818,11.544 24.018,12.852 25.218,14.161 C25.277,14.135 25.336,14.109 25.394,14.083 C25.394,13.296 25.423,12.508 25.389,11.722 C25.307,9.870 25.661,9.296 27.733,9.335 C31.134,9.399 34.536,9.351 37.938,9.352 C39.154,9.352 39.628,9.828 39.629,11.044 C39.630,12.338 39.633,13.632 39.628,14.926 ZM20.069,1.936 C19.085,2.018 18.103,2.132 17.126,2.271 C16.246,2.396 15.722,3.063 15.746,3.944 C15.778,5.073 15.780,5.084 16.890,4.908 C18.593,4.637 20.293,4.350 21.980,4.072 C22.137,2.661 21.386,1.827 20.069,1.936 ZM22.128,5.493 C20.079,5.828 18.103,6.152 16.100,6.479 C16.126,7.760 16.838,8.830 17.937,9.364 C18.968,9.864 19.936,9.747 20.809,9.035 C21.908,8.137 22.143,6.900 22.128,5.493 ZM25.426,16.533 C24.970,17.018 24.537,17.478 24.081,17.962 C24.749,18.555 25.335,19.126 25.978,19.624 C26.251,19.835 26.647,20.003 26.983,19.997 C28.557,19.968 30.129,19.856 31.703,19.805 C32.912,19.767 34.124,19.759 35.335,19.769 C36.166,19.776 36.997,19.850 37.829,19.860 C37.956,19.862 38.189,19.684 38.196,19.578 C38.233,19.015 38.213,18.449 38.213,17.834 C37.333,17.804 36.567,17.733 35.878,18.251 C35.672,18.406 35.346,18.468 35.078,18.460 C32.840,18.400 30.603,18.278 28.365,18.249 C27.310,18.236 26.484,17.914 25.887,17.032 C25.772,16.863 25.608,16.728 25.426,16.533 ZM33.444,10.747 C32.869,10.747 32.396,10.720 31.929,10.763 C31.793,10.776 31.582,10.976 31.566,11.110 C31.380,12.617 31.464,12.701 32.958,12.653 C33.015,12.651 33.090,12.674 33.125,12.646 C33.239,12.556 33.422,12.453 33.429,12.346 C33.462,11.842 33.444,11.334 33.444,10.747 ZM13.262,16.079 C10.849,16.084 8.436,16.085 6.023,16.080 C5.402,16.079 5.063,15.804 5.077,15.344 C5.090,14.899 5.406,14.648 6.003,14.644 C7.219,14.635 8.435,14.641 9.651,14.641 C10.848,14.642 12.045,14.636 13.242,14.644 C13.868,14.647 14.200,14.917 14.186,15.382 C14.174,15.829 13.859,16.078 13.262,16.079 ZM10.088,25.893 C10.696,25.893 11.304,25.893 11.912,25.892 C12.378,25.892 12.703,26.086 12.707,26.583 C12.712,27.077 12.396,27.290 11.929,27.291 C10.694,27.295 9.459,27.292 8.224,27.292 C7.756,27.293 7.433,27.089 7.428,26.600 C7.423,26.112 7.735,25.893 8.208,25.893 C8.835,25.893 9.462,25.893 10.088,25.893 ZM10.118,22.147 C10.752,22.148 11.080,22.402 11.070,22.865 C11.059,23.303 10.740,23.545 10.139,23.545 C7.197,23.548 4.256,23.548 1.314,23.545 C0.706,23.544 0.402,23.307 0.397,22.856 C0.391,22.401 0.697,22.150 1.294,22.148 C2.774,22.143 4.254,22.146 5.735,22.146 C7.196,22.146 8.657,22.143 10.118,22.147 Z"/>
	</symbol>
</svg>