<svg>
	<symbol id="doc"  viewBox="0 0 19 23">
		<path fill-rule="evenodd"  fill="currentColor" d="M16.277,23.003 L2.723,23.003 C1.637,23.003 0.754,22.120 0.754,21.034 L0.754,1.966 C0.754,0.880 1.637,-0.004 2.723,-0.004 L12.211,-0.004 C12.372,-0.004 12.530,0.062 12.645,0.176 L18.066,5.598 C18.181,5.713 18.246,5.871 18.246,6.033 L18.246,21.034 C18.246,22.120 17.363,23.003 16.277,23.003 ZM12.824,2.092 L12.824,4.677 C12.824,5.086 13.157,5.419 13.566,5.419 L16.151,5.419 L12.824,2.092 ZM17.019,6.646 L13.566,6.646 C12.480,6.646 11.597,5.763 11.597,4.677 L11.597,1.224 L2.723,1.224 C2.314,1.224 1.981,1.557 1.981,1.966 L1.981,21.034 C1.981,21.443 2.314,21.776 2.723,21.776 L16.277,21.776 C16.686,21.776 17.019,21.443 17.019,21.034 L17.019,6.646 ZM13.566,16.225 L5.434,16.225 C5.095,16.225 4.820,15.950 4.820,15.612 C4.820,15.273 5.095,14.998 5.434,14.998 L13.566,14.998 C13.905,14.998 14.180,15.273 14.180,15.612 C14.180,15.950 13.905,16.225 13.566,16.225 ZM13.566,13.514 L5.434,13.514 C5.095,13.514 4.820,13.239 4.820,12.901 C4.820,12.562 5.095,12.287 5.434,12.287 L13.566,12.287 C13.905,12.287 14.180,12.562 14.180,12.901 C14.180,13.239 13.905,13.514 13.566,13.514 ZM13.566,10.803 L5.434,10.803 C5.095,10.803 4.820,10.528 4.820,10.189 C4.820,9.851 5.095,9.576 5.434,9.576 L13.566,9.576 C13.905,9.576 14.180,9.851 14.180,10.189 C14.180,10.528 13.905,10.803 13.566,10.803 ZM5.434,17.709 L10.855,17.709 C11.194,17.709 11.469,17.985 11.469,18.323 C11.469,18.661 11.194,18.937 10.855,18.937 L5.434,18.937 C5.095,18.937 4.820,18.661 4.820,18.323 C4.820,17.985 5.095,17.709 5.434,17.709 Z"/>
	</symbol>
</svg>