<svg>
	<symbol id="download"  viewBox="0 0 23 21">
		<path fill-rule="evenodd"  fill="currentColor" d="M17.501,15.052 L14.167,15.052 C13.799,15.052 13.501,14.754 13.501,14.386 C13.501,14.018 13.799,13.720 14.167,13.720 L17.501,13.720 C19.342,13.720 20.835,12.228 20.835,10.388 C20.835,8.548 19.342,7.057 17.501,7.057 C17.153,7.059 16.855,6.807 16.799,6.464 C16.515,4.005 14.574,2.066 12.114,1.782 C9.187,1.443 6.540,3.540 6.202,6.464 C6.164,6.801 5.879,7.057 5.539,7.057 C3.698,7.046 2.196,8.529 2.186,10.369 C2.175,12.208 3.658,13.709 5.500,13.720 L8.833,13.720 C9.202,13.720 9.500,14.018 9.500,14.386 C9.500,14.754 9.202,15.052 8.833,15.052 L5.500,15.052 C3.128,15.054 1.131,13.277 0.860,10.922 C0.565,8.363 2.402,6.050 4.962,5.755 C5.490,3.116 7.556,1.053 10.197,0.527 C13.808,-0.192 17.319,2.150 18.039,5.759 C20.369,6.044 22.125,8.014 22.139,10.359 C22.155,12.935 20.079,15.036 17.501,15.052 ZM9.144,16.418 L10.834,18.108 L10.834,9.722 C10.834,9.354 11.132,9.056 11.501,9.056 C11.869,9.056 12.167,9.354 12.167,9.722 L12.167,18.108 L13.857,16.418 C13.863,16.413 13.868,16.407 13.874,16.402 C14.139,16.146 14.561,16.153 14.817,16.418 C15.072,16.683 15.065,17.105 14.800,17.360 L11.973,20.187 C11.911,20.248 11.838,20.297 11.757,20.330 C11.593,20.400 11.408,20.400 11.244,20.330 C11.163,20.297 11.090,20.248 11.028,20.187 L8.201,17.360 C8.195,17.355 8.190,17.349 8.184,17.344 C7.929,17.079 7.936,16.657 8.201,16.402 C8.466,16.146 8.888,16.153 9.144,16.418 Z"/>
	</symbol>
</svg>