<svg>
	<symbol id="edit"  viewBox="0 0 20 22">
		<path fill-rule="evenodd"  fill="currentColor" d="M4.699,19.316 L0.380,19.316 L0.380,14.987 L15.304,0.006 L19.619,4.339 L4.699,19.316 ZM1.669,15.519 L1.669,18.028 L4.164,18.028 L4.984,17.204 L2.487,14.697 L1.669,15.519 ZM3.396,13.785 L5.894,16.292 L14.343,7.810 L11.845,5.303 L3.396,13.785 ZM12.754,4.391 L15.252,6.897 L17.801,4.339 L15.304,1.832 L12.754,4.391 ZM19.619,18.028 L19.619,19.316 L9.217,19.316 L9.217,18.028 L19.619,18.028 ZM19.619,21.994 L0.380,21.994 L0.380,20.706 L19.619,20.706 L19.619,21.994 Z"/>
	</symbol>
</svg>