<svg>
	<symbol id="equipment"  viewBox="0 0 31 31">
		<path fill-rule="evenodd" fill="currentColor" d="M29.097,7.498 L28.934,7.498 L27.292,11.599 C27.751,11.705 28.078,12.114 28.080,12.586 L28.080,14.112 C28.080,14.674 27.624,15.130 27.063,15.130 L26.554,15.130 L26.554,16.656 C26.554,17.218 26.098,17.674 25.537,17.674 L25.028,17.674 L25.028,20.726 C25.028,20.886 24.953,21.037 24.824,21.133 L22.993,22.507 L22.993,24.287 C22.993,24.568 22.766,24.796 22.485,24.796 C22.204,24.796 21.976,24.568 21.976,24.287 L21.976,22.507 L20.145,21.133 C20.017,21.037 19.941,20.886 19.941,20.726 L19.941,17.674 L19.433,17.674 C18.871,17.674 18.415,17.218 18.415,16.656 L18.415,15.130 L17.907,15.130 C17.345,15.130 16.889,14.674 16.889,14.112 L16.889,12.586 C16.892,12.111 17.224,11.701 17.688,11.599 C17.169,10.307 17.505,11.156 16.045,7.498 C15.808,7.525 15.568,7.473 15.363,7.351 C15.046,7.178 14.850,6.843 14.855,6.481 L14.855,1.902 C14.855,1.340 15.310,0.885 15.872,0.885 L29.097,0.885 C29.659,0.885 30.115,1.340 30.115,1.902 L30.115,6.481 C30.115,7.043 29.659,7.498 29.097,7.498 ZM20.959,20.472 L22.485,21.616 L24.011,20.472 L24.011,17.674 L20.959,17.674 L20.959,20.472 ZM17.907,14.112 L20.450,14.112 C20.731,14.112 20.959,14.340 20.959,14.621 C20.959,14.902 20.731,15.130 20.450,15.130 L19.433,15.130 L19.433,16.656 L25.537,16.656 L25.537,15.130 L22.485,15.130 C22.204,15.130 21.976,14.902 21.976,14.621 C21.976,14.340 22.204,14.112 22.485,14.112 L27.063,14.112 L27.063,12.586 L17.907,12.586 L17.907,14.112 ZM18.761,11.569 L26.208,11.569 L27.815,7.498 L17.133,7.498 L18.761,11.569 ZM29.097,1.902 L15.872,1.902 L15.872,6.481 L29.097,6.481 L29.097,1.902 ZM17.398,2.920 L18.415,2.920 C18.696,2.920 18.924,3.147 18.924,3.429 C18.924,3.709 18.696,3.937 18.415,3.937 L17.398,3.937 C17.117,3.937 16.889,3.709 16.889,3.429 C16.889,3.147 17.117,2.920 17.398,2.920 ZM20.450,2.920 L27.571,2.920 C27.852,2.920 28.080,3.147 28.080,3.429 C28.080,3.709 27.852,3.937 27.571,3.937 L20.450,3.937 C20.169,3.937 19.941,3.709 19.941,3.429 C19.941,3.147 20.169,2.920 20.450,2.920 ZM7.225,18.183 C7.225,18.463 6.997,18.691 6.716,18.691 C6.435,18.691 6.207,18.463 6.207,18.183 C6.207,15.354 7.393,13.207 9.539,12.133 C9.789,12.007 10.094,12.108 10.221,12.357 C10.346,12.607 10.246,12.912 9.997,13.039 C8.206,13.934 7.225,15.761 7.225,18.183 ZM10.785,11.569 C10.785,11.288 11.013,11.060 11.294,11.060 C11.575,11.060 11.803,11.288 11.803,11.569 C11.803,11.850 11.575,12.077 11.294,12.077 C11.013,12.077 10.785,11.850 10.785,11.569 ZM16.381,17.928 C16.381,19.755 14.900,21.235 13.074,21.235 C11.249,21.232 9.771,19.753 9.768,17.928 C9.768,16.102 11.248,14.621 13.074,14.621 C14.900,14.621 16.381,16.102 16.381,17.928 ZM10.785,17.928 C10.785,19.192 11.810,20.218 13.074,20.218 C14.338,20.218 15.363,19.192 15.363,17.928 C15.363,16.664 14.338,15.639 13.074,15.639 C11.811,15.642 10.788,16.664 10.785,17.928 ZM13.329,5.997 L11.640,5.997 C11.391,5.994 11.176,6.170 11.131,6.415 L10.694,8.852 C12.267,8.445 13.917,8.445 15.490,8.852 C15.667,8.897 15.805,9.033 15.854,9.208 C15.903,9.384 15.854,9.572 15.727,9.702 C15.600,9.832 15.412,9.884 15.236,9.838 C11.113,8.739 6.821,10.908 5.261,14.880 C3.700,18.853 5.369,23.364 9.138,25.365 C12.907,27.365 17.577,26.218 19.992,22.700 C20.149,22.467 20.466,22.405 20.699,22.563 C20.932,22.720 20.994,23.037 20.837,23.270 C20.066,24.401 19.055,25.348 17.876,26.043 L19.911,27.457 C20.113,27.594 20.384,27.568 20.557,27.395 L22.215,25.737 C22.420,25.543 22.743,25.552 22.937,25.758 C23.131,25.963 23.122,26.286 22.917,26.480 L21.279,28.113 C20.758,28.636 19.938,28.711 19.331,28.292 L16.844,26.567 L16.604,26.668 L16.065,29.644 C15.931,30.379 15.285,30.908 14.539,30.896 L11.660,30.896 C10.914,30.908 10.268,30.379 10.134,29.644 L9.595,26.668 L9.356,26.567 L6.869,28.292 C6.263,28.713 5.443,28.639 4.920,28.118 L2.886,26.083 C2.363,25.562 2.288,24.742 2.708,24.135 L4.432,21.698 C4.396,21.622 4.361,21.540 4.330,21.459 L1.355,20.919 C0.620,20.785 0.091,20.140 0.103,19.393 L0.103,16.514 C0.091,15.767 0.620,15.122 1.355,14.987 L4.335,14.448 C4.366,14.366 4.402,14.285 4.437,14.208 L2.713,11.721 C2.292,11.115 2.365,10.295 2.886,9.772 L4.920,7.737 C5.441,7.215 6.262,7.140 6.869,7.559 L9.331,9.310 L9.570,9.208 L10.109,6.232 C10.243,5.498 10.889,4.968 11.635,4.980 L13.329,4.980 C13.610,4.980 13.837,5.208 13.837,5.489 C13.837,5.770 13.610,5.997 13.329,5.997 ZM11.126,29.466 C11.171,29.711 11.386,29.888 11.635,29.884 L14.509,29.884 C14.758,29.888 14.973,29.711 15.017,29.466 L15.455,27.035 C13.893,27.445 12.251,27.445 10.689,27.035 L11.126,29.466 ZM3.969,15.542 L1.538,15.979 C1.293,16.024 1.117,16.239 1.121,16.488 L1.121,19.368 C1.122,19.613 1.297,19.822 1.538,19.866 L3.969,20.304 C3.562,18.743 3.562,17.103 3.969,15.542 ZM3.557,24.725 C3.420,24.927 3.445,25.198 3.618,25.371 L5.653,27.406 C5.827,27.578 6.098,27.600 6.299,27.462 L8.334,26.053 L8.328,26.053 C6.939,25.237 5.781,24.080 4.966,22.690 L3.557,24.725 ZM6.279,8.399 C6.076,8.261 5.805,8.287 5.633,8.460 L3.598,10.495 C3.416,10.666 3.386,10.945 3.527,11.152 L4.936,13.186 C5.753,11.789 6.916,10.625 8.313,9.808 L6.279,8.399 Z"/>
	</symbol>
</svg>