<svg>
	<symbol id="exit"  viewBox="0 0 24 24">
		<path fill-rule="evenodd"  fill="currentColor" d="M23.949,10.724 C23.922,10.787 23.881,10.841 23.837,10.891 C23.828,10.901 23.825,10.914 23.815,10.923 L23.815,10.924 C23.815,10.924 23.814,10.924 23.814,10.925 L20.024,14.715 C19.906,14.833 19.749,14.899 19.582,14.899 C19.415,14.899 19.259,14.834 19.142,14.716 C18.898,14.472 18.898,14.076 19.141,13.833 L21.867,11.107 L13.769,11.107 C13.425,11.107 13.145,10.827 13.145,10.483 C13.145,10.139 13.425,9.859 13.769,9.859 L21.869,9.859 L19.141,7.132 C19.023,7.014 18.959,6.857 18.959,6.690 C18.959,6.524 19.023,6.367 19.141,6.249 C19.259,6.131 19.416,6.066 19.583,6.066 C19.749,6.066 19.906,6.131 20.024,6.249 L23.815,10.041 C23.933,10.158 23.998,10.315 23.998,10.482 C23.998,10.567 23.981,10.649 23.949,10.724 ZM15.285,7.821 C14.941,7.821 14.661,7.542 14.661,7.197 L14.661,2.648 C14.661,1.877 14.034,1.250 13.263,1.250 L5.957,1.250 L8.558,2.116 C9.326,2.384 9.843,3.106 9.843,3.911 L9.843,19.717 L13.263,19.717 C14.034,19.717 14.661,19.090 14.661,18.319 L14.661,13.769 C14.661,13.425 14.941,13.145 15.285,13.145 C15.629,13.145 15.909,13.425 15.909,13.769 L15.909,18.319 C15.909,19.778 14.722,20.965 13.263,20.965 L9.843,20.965 L9.843,22.110 C9.843,23.151 8.996,23.998 7.956,23.998 C7.751,23.998 7.559,23.969 7.369,23.910 L1.287,21.884 C0.519,21.616 0.002,20.894 0.002,20.088 L0.002,1.889 C0.002,0.934 0.725,0.175 1.647,0.051 C1.721,0.019 1.803,0.002 1.889,0.002 L13.263,0.002 C14.722,0.002 15.909,1.189 15.909,2.648 L15.909,7.197 C15.909,7.542 15.629,7.821 15.285,7.821 ZM1.889,1.250 C1.537,1.250 1.250,1.537 1.250,1.889 L1.250,20.088 C1.250,20.360 1.431,20.612 1.690,20.703 L7.748,22.721 C7.807,22.740 7.879,22.750 7.956,22.750 C8.308,22.750 8.595,22.463 8.595,22.110 L8.595,3.911 C8.595,3.640 8.414,3.388 8.154,3.297 L2.097,1.279 C2.037,1.259 1.966,1.250 1.889,1.250 Z"/>
	</symbol>
</svg>