<svg 
 xmlns="http://www.w3.org/2000/svg"
 xmlns:xlink="http://www.w3.org/1999/xlink"
 width="29px" height="26px">
<path fill-rule="evenodd"   fill="currentColor" stroke="#c8d4d9" stroke-width="1" stroke-location="inside"
 d="M26.580,2.964 C25.185,1.382 23.249,0.511 21.130,0.511 C18.149,0.511 16.262,2.290 15.204,3.782 C14.930,4.170 14.696,4.558 14.500,4.924 C14.304,4.558 14.070,4.170 13.796,3.782 C12.738,2.290 10.850,0.511 7.870,0.511 C5.750,0.511 3.815,1.382 2.419,2.964 C1.088,4.474 0.355,6.495 0.355,8.656 C0.355,11.009 1.274,13.197 3.248,15.543 C5.011,17.638 7.548,19.799 10.486,22.301 C11.581,23.233 12.713,24.198 13.918,25.251 L13.954,25.283 C14.110,25.420 14.305,25.488 14.500,25.488 C14.695,25.488 14.890,25.419 15.046,25.283 L15.082,25.251 C16.287,24.198 17.419,23.233 18.514,22.301 C21.452,19.799 23.989,17.638 25.752,15.543 C27.725,13.197 28.644,11.009 28.644,8.656 C28.644,6.495 27.911,4.474 26.580,2.964 Z"/>
</svg>