<svg>
	<symbol id="fb"  viewBox="0 0 12 19">
		<path fill-rule="evenodd" fill="currentColor" d="M7.270,19.013 L4.225,19.013 C3.717,19.013 3.303,18.599 3.303,18.090 L3.303,11.217 L1.527,11.217 C1.019,11.217 0.605,10.803 0.605,10.295 L0.605,7.349 C0.605,6.840 1.019,6.426 1.527,6.426 L3.303,6.426 L3.303,4.951 C3.303,3.489 3.762,2.245 4.630,1.353 C5.501,0.458 6.720,-0.015 8.152,-0.015 L10.474,-0.011 C10.982,-0.010 11.394,0.404 11.394,0.912 L11.394,3.646 C11.394,4.155 10.981,4.569 10.473,4.569 L8.910,4.570 C8.433,4.570 8.311,4.666 8.286,4.695 C8.243,4.744 8.192,4.881 8.192,5.261 L8.192,6.426 L10.355,6.426 C10.518,6.426 10.676,6.466 10.811,6.542 C11.104,6.706 11.286,7.015 11.286,7.350 L11.285,10.295 C11.285,10.803 10.871,11.217 10.363,11.217 L8.192,11.217 L8.192,18.090 C8.192,18.599 7.778,19.013 7.270,19.013 ZM4.418,17.898 L7.077,17.898 L7.077,10.718 C7.077,10.378 7.354,10.101 7.693,10.101 L10.170,10.101 L10.171,7.541 L7.693,7.541 C7.353,7.541 7.077,7.265 7.077,6.925 L7.077,5.261 C7.077,4.825 7.122,4.330 7.450,3.957 C7.847,3.506 8.473,3.454 8.909,3.454 L10.280,3.454 L10.280,1.104 L8.152,1.101 C5.849,1.101 4.418,2.577 4.418,4.951 L4.418,6.925 C4.418,7.265 4.142,7.541 3.802,7.541 L1.720,7.541 L1.720,10.101 L3.802,10.101 C4.142,10.101 4.418,10.378 4.418,10.718 L4.418,17.898 ZM10.472,1.104 L10.472,1.104 L10.472,1.104 Z"/>
	</symbol>
</svg>