<svg>
	<symbol id="general-doc"  viewBox="0 0 21 23">
		<path fill-rule="evenodd"  fill="currentColor" d="M9.991,23.000 C9.511,23.000 9.062,22.786 8.759,22.413 C8.453,22.038 8.335,21.550 8.433,21.074 C8.718,19.702 9.471,18.454 10.556,17.559 C10.963,17.223 11.414,16.940 11.895,16.718 L12.213,16.571 L11.982,16.309 C11.448,15.702 11.153,14.923 11.153,14.117 C11.153,12.285 12.643,10.794 14.473,10.794 C16.304,10.794 17.793,12.285 17.793,14.117 C17.793,14.923 17.499,15.702 16.965,16.309 L16.734,16.571 L17.051,16.718 C17.534,16.940 17.984,17.223 18.391,17.559 C19.451,18.434 20.199,19.653 20.496,20.992 L20.498,21.001 L20.500,21.010 C20.505,21.027 20.510,21.044 20.513,21.062 C20.613,21.540 20.492,22.033 20.184,22.412 C19.880,22.786 19.432,23.000 18.956,23.000 L9.991,23.000 ZM9.991,21.683 L19.063,21.683 L19.135,21.612 C19.185,21.565 19.218,21.504 19.228,21.437 L19.238,21.374 L19.222,21.328 C18.751,19.090 16.756,17.467 14.473,17.467 C12.185,17.467 10.187,19.097 9.721,21.342 C9.712,21.390 9.714,21.437 9.726,21.480 L9.726,21.683 L9.976,21.683 C9.981,21.683 9.986,21.683 9.991,21.683 ZM14.473,12.111 C13.368,12.111 12.469,13.011 12.469,14.117 C12.469,15.223 13.368,16.123 14.473,16.123 C15.578,16.123 16.478,15.223 16.478,14.117 C16.478,13.011 15.578,12.111 14.473,12.111 ZM3.457,23.000 C1.576,23.000 0.046,21.468 0.046,19.585 L0.046,3.415 C0.046,1.532 1.576,0.000 3.457,0.000 L14.744,0.000 C16.625,0.000 18.155,1.532 18.155,3.415 L18.155,8.881 C18.155,9.244 17.860,9.540 17.498,9.540 C17.135,9.540 16.840,9.244 16.840,8.881 L16.840,3.415 C16.840,2.258 15.899,1.317 14.744,1.317 L3.457,1.317 C2.302,1.317 1.361,2.258 1.361,3.415 L1.361,19.585 C1.361,20.742 2.302,21.683 3.457,21.683 L5.569,21.683 C5.931,21.683 6.227,21.978 6.227,22.341 C6.227,22.704 5.931,23.000 5.569,23.000 L3.457,23.000 ZM4.370,14.180 C4.008,14.180 3.712,13.884 3.712,13.521 C3.712,13.158 4.008,12.863 4.370,12.863 L8.185,12.863 C8.548,12.863 8.843,13.158 8.843,13.521 C8.843,13.884 8.548,14.180 8.185,14.180 L4.370,14.180 ZM4.370,10.504 C4.008,10.504 3.712,10.209 3.712,9.846 C3.712,9.483 4.008,9.188 4.370,9.188 L10.159,9.188 C10.521,9.188 10.817,9.483 10.817,9.846 C10.817,10.209 10.521,10.504 10.159,10.504 L4.370,10.504 ZM4.370,6.829 C4.008,6.829 3.712,6.534 3.712,6.171 C3.712,5.808 4.008,5.513 4.370,5.513 L13.825,5.513 C14.188,5.513 14.483,5.808 14.483,6.171 C14.483,6.534 14.188,6.829 13.825,6.829 L4.370,6.829 Z"/>
	</symbol>
</svg>