<svg 
 xmlns="http://www.w3.org/2000/svg"
 xmlns:xlink="http://www.w3.org/1999/xlink"
 width="25px" height="16px">
<path fill-rule="evenodd" fill="currentColor"
 d="M24.310,9.626 L22.626,9.626 L22.626,11.313 C22.626,11.645 22.357,11.915 22.025,11.915 L19.980,11.915 C19.648,11.915 19.379,11.645 19.379,11.313 L19.379,9.626 L17.695,9.626 C17.363,9.626 17.094,9.356 17.094,9.023 L17.094,6.975 C17.094,6.642 17.363,6.373 17.695,6.373 L19.379,6.373 L19.379,4.686 C19.379,4.354 19.648,4.083 19.980,4.083 L22.025,4.083 C22.357,4.083 22.626,4.354 22.626,4.686 L22.626,6.373 L24.310,6.373 C24.642,6.373 24.911,6.642 24.911,6.975 L24.911,9.023 C24.911,9.356 24.642,9.626 24.310,9.626 ZM23.709,7.578 L22.025,7.578 C21.693,7.578 21.424,7.308 21.424,6.975 L21.424,5.288 L20.582,5.288 L20.582,6.975 C20.582,7.308 20.312,7.578 19.980,7.578 L18.296,7.578 L18.296,8.421 L19.980,8.421 C20.312,8.421 20.582,8.691 20.582,9.023 L20.582,10.710 L21.424,10.710 L21.424,9.023 C21.424,8.691 21.693,8.421 22.025,8.421 L23.709,8.421 L23.709,7.578 ZM13.120,14.184 C11.700,15.350 9.906,15.992 8.067,15.992 C5.128,15.992 2.436,14.381 1.040,11.787 C0.418,10.631 0.089,9.321 0.089,7.999 C0.089,3.592 3.668,0.007 8.067,0.007 C9.924,0.007 11.733,0.661 13.160,1.847 C13.298,1.962 13.378,2.133 13.377,2.313 C13.376,2.493 13.295,2.663 13.156,2.777 L10.767,4.737 C10.567,4.900 10.286,4.918 10.067,4.781 C9.469,4.407 8.777,4.209 8.067,4.209 C6.451,4.209 5.012,5.238 4.487,6.767 C4.352,7.163 4.283,7.578 4.283,7.999 C4.283,8.458 4.364,8.905 4.523,9.329 C5.073,10.801 6.497,11.790 8.067,11.790 C8.740,11.790 9.401,11.611 9.978,11.272 C10.461,10.988 10.873,10.601 11.187,10.145 L8.229,10.145 C7.897,10.145 7.628,9.875 7.628,9.542 L7.628,6.619 C7.628,6.286 7.897,6.016 8.229,6.016 L15.315,6.016 C15.604,6.016 15.852,6.222 15.906,6.507 C15.998,6.994 16.045,7.497 16.045,7.999 C16.045,8.561 15.986,9.123 15.871,9.668 C15.497,11.432 14.520,13.035 13.120,14.184 ZM14.798,7.222 L8.830,7.222 L8.830,8.940 L12.174,8.940 C12.371,8.940 12.556,9.036 12.668,9.199 C12.780,9.361 12.806,9.569 12.737,9.753 C12.337,10.823 11.573,11.732 10.586,12.311 C9.826,12.758 8.954,12.995 8.067,12.995 C5.999,12.995 4.122,11.692 3.397,9.752 C3.187,9.193 3.080,8.603 3.080,7.999 C3.080,7.444 3.171,6.898 3.349,6.376 C4.041,4.359 5.937,3.004 8.067,3.004 C8.855,3.004 9.627,3.189 10.323,3.544 L11.798,2.334 C10.697,1.606 9.397,1.212 8.067,1.212 C4.331,1.212 1.291,4.257 1.291,7.999 C1.291,9.122 1.571,10.235 2.098,11.216 C3.284,13.418 5.571,14.786 8.067,14.786 C11.248,14.786 14.035,12.529 14.694,9.417 C14.793,8.954 14.842,8.478 14.842,7.999 C14.842,7.739 14.828,7.478 14.798,7.222 Z"/>
</svg>