<svg>
	<symbol id="history"  viewBox="0 0 21 20">
		<path fill-rule="evenodd"  fill="currentColor" d="M10.781,11.564 C9.917,11.564 9.216,10.864 9.216,10.000 C9.216,9.421 9.531,8.916 9.998,8.646 L9.998,3.900 C9.998,3.468 10.349,3.118 10.781,3.118 C11.213,3.118 11.564,3.468 11.564,3.900 L11.564,8.646 C12.031,8.916 12.346,9.421 12.346,10.000 C12.346,10.140 12.328,10.276 12.293,10.405 L14.367,12.477 C14.673,12.783 14.673,13.278 14.367,13.583 C14.215,13.736 14.014,13.812 13.814,13.812 C13.613,13.812 13.413,13.736 13.260,13.583 L11.186,11.511 C11.057,11.545 10.921,11.564 10.781,11.564 ZM17.870,2.927 C15.982,1.037 13.469,-0.006 10.797,-0.010 C10.791,-0.010 10.787,-0.010 10.781,-0.010 C5.308,-0.010 0.815,4.434 0.763,9.903 C0.741,12.235 1.539,14.512 3.009,16.316 C3.036,16.350 3.035,16.396 3.008,16.424 L1.656,17.769 C1.280,18.145 1.169,18.705 1.372,19.196 C1.576,19.688 2.052,20.007 2.585,20.007 L6.132,20.010 L6.134,20.010 C6.654,20.010 7.142,19.807 7.510,19.440 C7.879,19.072 8.081,18.583 8.081,18.063 L8.079,14.518 C8.078,13.986 7.760,13.510 7.267,13.307 C6.775,13.104 6.215,13.215 5.839,13.591 C5.837,13.593 5.834,13.595 5.832,13.597 L5.525,13.911 C5.223,14.219 5.229,14.714 5.538,15.016 C5.805,15.278 6.213,15.309 6.514,15.112 L6.515,18.064 C6.515,18.201 6.445,18.292 6.404,18.334 C6.362,18.375 6.271,18.446 6.134,18.446 C6.133,18.446 6.133,18.446 6.133,18.446 L3.196,18.444 L4.114,17.531 C4.712,16.933 4.759,15.986 4.223,15.329 C2.983,13.807 2.310,11.885 2.328,9.918 C2.372,5.303 6.163,1.554 10.781,1.554 L10.794,1.554 C15.448,1.562 19.234,5.350 19.234,10.000 C19.234,11.665 18.738,13.286 17.801,14.687 C17.560,15.046 17.657,15.532 18.016,15.772 C18.375,16.012 18.862,15.916 19.102,15.557 C20.212,13.897 20.799,11.976 20.799,10.000 C20.799,7.329 19.759,4.817 17.870,2.927 ZM15.154,17.229 C13.839,18.025 12.327,18.446 10.781,18.446 C10.349,18.446 9.998,18.796 9.998,19.227 C9.998,19.659 10.349,20.010 10.781,20.010 C12.613,20.010 14.406,19.511 15.965,18.567 C16.335,18.343 16.453,17.862 16.229,17.493 C16.005,17.124 15.523,17.005 15.154,17.229 Z"/>
	</symbol>
</svg>