<svg>
	<symbol id="home"  viewBox="0 0 21 21">
		<path fill-rule="evenodd"  fill="currentColor" d="M19.769,11.430 C19.486,11.166 19.219,10.885 18.945,10.611 C16.327,7.995 13.709,5.378 11.091,2.761 C11.055,2.724 11.016,2.690 10.929,2.608 C10.869,2.689 10.827,2.762 10.770,2.820 C7.932,5.659 5.092,8.496 2.256,11.336 C2.028,11.564 1.781,11.696 1.456,11.598 C0.952,11.446 0.776,10.846 1.117,10.446 C1.160,10.396 1.209,10.350 1.257,10.303 C4.286,7.276 7.316,4.249 10.346,1.223 C10.780,0.788 11.140,0.787 11.573,1.219 C14.608,4.251 17.643,7.284 20.680,10.313 C20.895,10.527 21.032,10.759 20.964,11.068 C20.845,11.615 20.184,11.818 19.769,11.430 ZM4.080,12.401 C4.384,12.534 4.523,12.782 4.523,13.113 C4.521,14.520 4.522,15.926 4.522,17.333 C4.523,18.555 5.467,19.491 6.692,19.491 C9.538,19.489 12.385,19.490 15.231,19.492 C16.452,19.493 17.400,18.552 17.400,17.332 C17.401,15.911 17.398,14.489 17.402,13.067 C17.403,12.687 17.673,12.386 18.032,12.346 C18.385,12.307 18.715,12.531 18.805,12.883 C18.829,12.974 18.830,13.074 18.830,13.170 C18.832,14.577 18.833,15.983 18.831,17.390 C18.828,19.326 17.223,20.920 15.275,20.922 C13.837,20.923 12.399,20.922 10.961,20.922 C9.523,20.922 8.085,20.923 6.647,20.922 C4.691,20.921 3.091,19.323 3.090,17.369 C3.089,15.947 3.088,14.526 3.091,13.104 C3.092,12.548 3.597,12.189 4.080,12.401 Z"/>
	</symbol>
</svg>