<svg>
	<symbol id="info"  viewBox="0 0 9 21">
		<path fill-rule="evenodd"  fill="currentColor" d="M8.649,18.339 L8.370,19.481 C7.533,19.812 6.864,20.064 6.365,20.237 C5.867,20.410 5.287,20.497 4.627,20.497 C3.614,20.497 2.825,20.248 2.263,19.755 C1.700,19.259 1.419,18.631 1.419,17.869 C1.419,17.574 1.439,17.271 1.482,16.962 C1.525,16.652 1.593,16.303 1.686,15.914 L2.732,12.207 C2.825,11.852 2.905,11.515 2.968,11.197 C3.032,10.881 3.063,10.591 3.063,10.329 C3.063,9.855 2.965,9.524 2.770,9.338 C2.575,9.152 2.203,9.058 1.651,9.058 C1.380,9.058 1.102,9.101 0.819,9.185 C0.534,9.269 0.291,9.351 0.087,9.426 L0.366,8.284 C1.052,8.004 1.707,7.765 2.334,7.566 C2.961,7.367 3.553,7.268 4.113,7.268 C5.120,7.268 5.897,7.511 6.443,7.998 C6.988,8.486 7.261,9.118 7.261,9.896 C7.261,10.057 7.243,10.341 7.204,10.747 C7.167,11.153 7.097,11.526 6.995,11.865 L5.953,15.557 C5.867,15.854 5.791,16.193 5.724,16.574 C5.655,16.953 5.622,17.243 5.622,17.437 C5.622,17.927 5.731,18.262 5.950,18.440 C6.171,18.618 6.551,18.706 7.090,18.706 C7.344,18.706 7.632,18.661 7.952,18.573 C8.271,18.485 8.504,18.407 8.649,18.339 ZM8.913,2.838 C8.913,3.481 8.671,4.031 8.184,4.482 C7.699,4.936 7.113,5.163 6.429,5.163 C5.742,5.163 5.156,4.936 4.665,4.482 C4.175,4.030 3.929,3.481 3.929,2.838 C3.929,2.196 4.175,1.646 4.665,1.188 C5.155,0.731 5.743,0.503 6.429,0.503 C7.113,0.503 7.699,0.732 8.184,1.188 C8.671,1.646 8.913,2.196 8.913,2.838 Z"/>
	</symbol>
</svg>