<svg 
 xmlns="http://www.w3.org/2000/svg"
 xmlns:xlink="http://www.w3.org/1999/xlink"
 width="20px" height="20px">
<path fill-rule="evenodd"  fill="currentColor"
 d="M15.031,19.657 C15.122,19.661 15.208,19.665 15.299,19.665 C16.267,19.665 17.075,19.314 17.710,18.626 C17.714,18.622 17.722,18.614 17.726,18.609 C17.953,18.337 18.208,18.090 18.480,17.830 C18.666,17.653 18.855,17.471 19.032,17.282 C19.877,16.400 19.873,15.283 19.024,14.433 L16.675,12.083 C16.271,11.663 15.789,11.441 15.278,11.441 C14.771,11.441 14.285,11.659 13.869,12.075 L12.480,13.465 C12.356,13.394 12.229,13.332 12.105,13.270 C11.949,13.192 11.804,13.118 11.677,13.040 C10.403,12.232 9.249,11.177 8.145,9.820 C7.589,9.119 7.222,8.534 6.962,7.932 C7.325,7.602 7.663,7.260 7.988,6.926 C8.108,6.806 8.227,6.683 8.351,6.559 C9.233,5.676 9.233,4.584 8.351,3.706 L7.185,2.540 C7.049,2.403 6.917,2.267 6.785,2.135 C6.525,1.871 6.258,1.596 5.990,1.348 C5.586,0.944 5.108,0.734 4.601,0.734 C4.098,0.734 3.612,0.944 3.192,1.348 L1.729,2.807 C1.193,3.343 0.888,3.995 0.822,4.749 C0.748,5.689 0.921,6.687 1.366,7.890 C2.054,9.750 3.089,11.477 4.622,13.324 C6.488,15.550 8.730,17.311 11.293,18.552 C12.270,19.018 13.576,19.562 15.031,19.657 ZM5.400,12.677 C3.942,10.920 2.965,9.288 2.318,7.540 C1.918,6.464 1.770,5.627 1.832,4.831 C1.877,4.316 2.075,3.888 2.446,3.520 L3.900,2.065 C4.123,1.851 4.366,1.739 4.605,1.739 C4.840,1.739 5.071,1.851 5.293,2.070 C5.553,2.313 5.804,2.568 6.068,2.837 C6.200,2.972 6.336,3.112 6.476,3.249 L7.642,4.415 C8.120,4.893 8.120,5.363 7.642,5.842 C7.519,5.965 7.395,6.089 7.276,6.212 C6.913,6.579 6.575,6.926 6.200,7.260 C6.192,7.268 6.188,7.272 6.179,7.281 C5.845,7.615 5.895,7.936 5.977,8.175 C5.982,8.187 5.986,8.196 5.990,8.208 C6.291,8.934 6.715,9.622 7.366,10.447 C8.541,11.894 9.777,13.019 11.145,13.889 C11.314,13.996 11.491,14.087 11.664,14.174 C11.821,14.252 11.965,14.326 12.093,14.404 C12.109,14.413 12.122,14.421 12.138,14.429 C12.270,14.495 12.398,14.528 12.530,14.528 C12.855,14.528 13.061,14.322 13.127,14.252 L14.590,12.788 C14.813,12.566 15.052,12.450 15.286,12.450 C15.575,12.450 15.810,12.631 15.962,12.788 L18.319,15.147 C18.896,15.724 18.633,16.243 18.307,16.585 C18.142,16.762 17.969,16.928 17.788,17.105 C17.512,17.369 17.227,17.645 16.968,17.954 C16.523,18.433 15.995,18.655 15.307,18.655 C15.241,18.655 15.171,18.650 15.105,18.647 C13.824,18.564 12.637,18.065 11.743,17.641 C9.303,16.466 7.173,14.796 5.400,12.677 Z"/>
</svg>