<svg>
	<symbol id="instogram"  viewBox="0 0 17 17">
		<path fill-rule="evenodd"  fill="currentColor" d="M12.056,16.986 L4.944,16.986 C2.225,16.986 0.014,14.774 0.014,12.056 L0.014,4.944 C0.014,2.225 2.225,0.013 4.944,0.013 L12.056,0.013 C14.775,0.013 16.986,2.225 16.986,4.944 L16.986,12.056 C16.986,14.774 14.775,16.986 12.056,16.986 ZM15.660,4.944 C15.660,2.956 14.043,1.339 12.056,1.339 L4.944,1.339 C2.956,1.339 1.340,2.956 1.340,4.944 L1.340,12.056 C1.340,14.042 2.956,15.660 4.944,15.660 L12.056,15.660 C14.043,15.660 15.660,14.042 15.660,12.056 L15.660,4.944 ZM13.141,4.522 C12.775,4.522 12.478,4.225 12.478,3.858 C12.478,3.492 12.775,3.195 13.141,3.195 C13.507,3.195 13.804,3.492 13.804,3.858 C13.804,4.225 13.507,4.522 13.141,4.522 ZM8.500,13.074 C5.977,13.074 3.925,11.022 3.925,8.499 C3.925,5.977 5.977,3.925 8.500,3.925 C11.022,3.925 13.075,5.977 13.075,8.499 C13.075,11.022 11.022,13.074 8.500,13.074 ZM8.500,5.251 C6.709,5.251 5.251,6.708 5.251,8.499 C5.251,10.291 6.709,11.748 8.500,11.748 C10.291,11.748 11.749,10.291 11.749,8.499 C11.749,6.708 10.291,5.251 8.500,5.251 Z"/>
	</symbol>
</svg>