<svg 
 xmlns="http://www.w3.org/2000/svg"
 xmlns:xlink="http://www.w3.org/1999/xlink"
 width="60px" height="60px">
<path fill-rule="evenodd"  fill="currentColor"
 d="M12.958,42.337 C13.274,42.492 13.499,42.566 13.683,42.698 C16.422,44.671 19.157,46.649 21.889,48.632 C22.412,49.012 22.531,49.508 22.236,49.937 C21.931,50.382 21.381,50.439 20.847,50.053 C18.112,48.075 15.381,46.091 12.646,44.112 C12.257,43.831 12.023,43.456 12.247,43.013 C12.386,42.739 12.714,42.559 12.958,42.337 ZM8.898,49.013 C9.713,49.191 10.521,49.412 11.315,49.669 C11.791,49.824 11.945,50.240 11.824,50.712 C11.714,51.142 11.388,51.331 10.840,51.349 C10.082,51.132 9.211,50.924 8.372,50.626 C7.941,50.472 7.804,50.049 7.950,49.601 C8.097,49.151 8.449,48.915 8.898,49.013 ZM37.663,50.029 C37.363,49.624 37.451,49.099 37.926,48.755 C40.735,46.711 43.544,44.669 46.377,42.661 C46.610,42.495 47.057,42.484 47.340,42.585 C47.575,42.667 47.716,43.019 47.947,43.314 C47.713,43.622 47.578,43.921 47.347,44.089 C44.559,46.127 41.759,48.149 38.956,50.166 C38.466,50.519 37.974,50.447 37.663,50.029 ZM49.109,51.319 C48.557,51.434 48.090,50.994 48.099,50.228 C48.250,50.092 48.477,49.746 48.790,49.629 C49.497,49.365 50.243,49.200 50.981,49.022 C51.463,48.906 51.918,49.184 52.039,49.620 C52.167,50.082 51.958,50.546 51.476,50.695 C50.697,50.935 49.907,51.153 49.109,51.319 ZM60.010,56.961 C60.010,57.235 60.010,57.509 60.010,57.782 C59.691,58.888 58.988,59.632 57.899,60.009 C54.734,60.009 51.569,60.009 48.404,60.009 C47.965,59.746 47.668,59.391 47.845,58.855 C48.022,58.317 48.479,58.244 48.985,58.246 C51.603,58.256 54.220,58.251 56.838,58.251 C57.778,58.251 58.217,57.971 58.225,57.368 C58.235,56.760 57.798,56.475 56.858,56.475 C38.944,56.475 21.029,56.475 3.114,56.475 C2.173,56.475 1.743,56.758 1.754,57.368 C1.765,57.975 2.188,58.249 3.137,58.249 C12.925,58.250 22.712,58.249 32.500,58.249 C36.427,58.249 40.353,58.251 44.280,58.244 C44.746,58.243 45.148,58.332 45.337,58.800 C45.550,59.325 45.250,59.684 44.887,60.009 C30.625,60.009 16.363,60.009 2.100,60.009 C1.038,59.665 0.337,58.959 -0.010,57.898 C-0.010,57.547 -0.010,57.196 -0.010,56.844 C0.025,56.775 0.069,56.708 0.094,56.636 C0.565,55.322 1.417,54.715 2.841,54.714 C9.308,54.710 15.774,54.712 22.240,54.712 C22.455,54.712 22.669,54.712 22.884,54.712 C22.892,54.687 22.900,54.661 22.908,54.637 C22.780,54.586 22.655,54.525 22.523,54.489 C19.945,53.789 17.366,53.093 14.787,52.395 C14.618,52.349 14.443,52.318 14.279,52.256 C13.806,52.079 13.583,51.650 13.708,51.180 C13.827,50.734 14.268,50.459 14.761,50.584 C16.103,50.925 17.439,51.290 18.776,51.649 C21.862,52.478 24.947,53.310 28.132,54.167 C27.997,53.907 27.912,53.727 27.813,53.554 C26.511,51.264 25.207,48.975 23.905,46.685 C23.809,46.516 23.708,46.345 23.646,46.163 C23.499,45.733 23.654,45.385 24.019,45.153 C24.395,44.914 24.776,44.968 25.085,45.286 C25.232,45.437 25.334,45.635 25.440,45.820 C26.524,47.717 27.605,49.617 28.688,51.516 C28.779,51.675 28.884,51.827 29.081,51.955 C29.081,46.012 29.081,40.070 29.081,34.035 C28.665,34.035 28.243,34.032 27.821,34.036 C27.279,34.042 26.955,33.795 26.800,33.264 C26.353,31.729 25.874,30.203 25.428,28.668 C25.330,28.332 25.180,28.184 24.821,28.220 C24.511,28.251 24.196,28.229 23.884,28.226 C23.016,28.217 22.721,27.927 22.720,27.065 C22.719,24.154 22.721,21.244 22.723,18.333 C22.723,18.140 22.723,17.948 22.723,17.667 C22.323,17.667 21.960,17.667 21.598,17.666 C20.406,17.665 19.214,17.667 18.023,17.660 C17.116,17.656 16.844,17.380 16.843,16.461 C16.839,14.746 16.842,13.029 16.842,11.249 C16.570,11.234 16.346,11.209 16.121,11.209 C12.136,11.205 8.151,11.205 4.165,11.204 C2.980,11.204 2.783,11.002 2.781,9.798 C2.780,9.154 2.778,8.508 2.774,7.864 C2.774,7.826 2.759,7.788 2.726,7.639 C2.257,7.639 1.757,7.608 1.263,7.647 C0.698,7.691 0.282,7.502 -0.010,7.023 C-0.010,5.695 -0.010,4.366 -0.010,3.038 C0.278,2.805 0.556,2.386 0.854,2.371 C2.335,2.301 3.822,2.325 5.306,2.344 C5.806,2.352 6.158,2.758 6.157,3.218 C6.155,3.681 5.803,4.061 5.301,4.085 C4.755,4.110 4.207,4.095 3.660,4.095 C3.043,4.097 2.427,4.096 1.818,4.096 C1.818,4.731 1.818,5.285 1.818,5.830 C10.353,5.830 18.839,5.830 27.332,5.830 C27.332,5.239 27.332,4.698 27.332,4.092 C27.073,4.092 26.844,4.092 26.615,4.092 C22.121,4.093 17.628,4.095 13.135,4.095 C11.904,4.095 10.673,4.104 9.443,4.086 C8.900,4.078 8.541,3.699 8.546,3.207 C8.551,2.739 8.894,2.387 9.403,2.340 C9.577,2.325 9.754,2.335 9.930,2.335 C15.498,2.333 21.065,2.332 26.633,2.331 C26.861,2.331 27.089,2.331 27.311,2.331 C27.473,1.491 27.064,0.584 27.890,-0.010 C29.297,-0.010 30.703,-0.010 32.110,-0.010 C32.998,0.566 32.540,1.512 32.727,2.334 C32.966,2.334 33.195,2.334 33.425,2.334 C41.855,2.334 50.286,2.337 58.717,2.325 C59.264,2.324 59.716,2.423 60.010,2.921 C60.010,4.288 60.010,5.656 60.010,7.023 C59.765,7.492 59.380,7.675 58.854,7.645 C58.352,7.616 57.847,7.639 57.257,7.639 C57.257,7.948 57.257,8.194 57.257,8.441 C57.262,11.432 57.506,11.209 54.464,11.205 C50.967,11.201 47.471,11.205 43.974,11.205 C43.743,11.205 43.513,11.205 43.232,11.205 C43.220,11.467 43.203,11.675 43.203,11.882 C43.202,13.328 43.205,14.773 43.206,16.219 C43.207,17.448 42.993,17.667 41.784,17.667 C40.321,17.666 38.858,17.666 37.303,17.666 C37.303,17.932 37.303,18.157 37.303,18.382 C37.303,21.254 37.304,24.126 37.302,26.998 C37.301,27.946 37.025,28.221 36.088,28.226 C35.660,28.228 35.232,28.226 34.749,28.226 C34.350,29.539 33.961,30.840 33.558,32.138 C33.002,33.923 33.286,34.138 31.152,34.045 C31.097,34.042 31.041,34.071 30.926,34.102 C30.926,40.057 30.926,46.021 30.926,52.061 C31.033,51.909 31.123,51.803 31.191,51.683 C32.323,49.700 33.439,47.708 34.593,45.739 C34.765,45.446 35.080,45.154 35.390,45.056 C35.607,44.989 36.083,45.190 36.166,45.387 C36.296,45.697 36.322,46.174 36.167,46.460 C35.185,48.279 34.141,50.066 33.117,51.863 C32.703,52.591 32.289,53.319 31.805,54.172 C32.863,53.894 33.808,53.652 34.750,53.398 C38.121,52.489 41.489,51.574 44.859,50.661 C44.953,50.636 45.049,50.619 45.145,50.599 C45.689,50.483 46.127,50.707 46.267,51.170 C46.413,51.656 46.156,52.121 45.589,52.282 C44.315,52.646 43.031,52.980 41.751,53.327 C40.321,53.715 38.891,54.104 37.462,54.495 C37.340,54.528 37.225,54.584 37.122,54.712 C37.602,54.712 38.083,54.712 38.563,54.712 C44.599,54.712 50.636,54.713 56.672,54.712 C58.672,54.712 59.280,55.119 60.010,56.961 ZM27.320,7.676 C19.717,7.676 12.157,7.676 4.575,7.676 C4.575,8.270 4.575,8.826 4.575,9.407 C12.172,9.407 19.733,9.407 27.320,9.407 C27.320,8.813 27.320,8.259 27.320,7.676 ZM30.879,1.772 C30.301,1.772 29.761,1.772 29.178,1.772 C29.178,4.343 29.178,6.866 29.178,9.384 C29.786,9.384 30.336,9.384 30.879,9.384 C30.879,6.817 30.879,4.306 30.879,1.772 ZM55.446,9.392 C55.446,8.782 55.446,8.227 55.446,7.639 C55.161,7.639 54.928,7.639 54.695,7.639 C53.249,7.638 51.803,7.647 50.358,7.631 C49.778,7.625 49.449,7.295 49.439,6.785 C49.430,6.277 49.758,5.938 50.320,5.887 C50.475,5.873 50.632,5.881 50.788,5.881 C53.055,5.880 55.321,5.881 57.587,5.879 C57.794,5.879 58.002,5.862 58.228,5.852 C58.228,5.260 58.228,4.719 58.228,4.129 C49.693,4.129 41.206,4.129 32.719,4.129 C32.719,4.722 32.719,5.276 32.719,5.876 C32.995,5.876 33.226,5.876 33.457,5.876 C37.540,5.877 41.623,5.878 45.706,5.882 C45.939,5.882 46.181,5.878 46.403,5.936 C46.862,6.056 47.083,6.386 47.039,6.855 C46.997,7.297 46.735,7.566 46.288,7.621 C46.076,7.646 45.859,7.638 45.644,7.638 C41.561,7.639 37.478,7.639 33.395,7.639 C33.169,7.639 32.943,7.639 32.719,7.639 C32.719,8.284 32.719,8.839 32.719,9.392 C40.328,9.392 47.892,9.392 55.446,9.392 ZM41.409,15.860 C41.409,14.303 41.409,12.789 41.409,11.240 C33.808,11.240 26.241,11.240 18.643,11.240 C18.643,12.821 18.643,14.335 18.643,15.860 C26.251,15.860 33.815,15.860 41.409,15.860 ZM35.515,26.426 C35.515,23.502 35.515,20.619 35.515,17.704 C31.804,17.704 28.164,17.704 24.529,17.704 C24.529,20.643 24.529,23.537 24.529,26.426 C28.217,26.426 31.858,26.426 35.515,26.426 ZM31.312,32.268 C31.458,32.265 31.698,32.173 31.731,32.069 C32.132,30.817 32.501,29.555 32.891,28.252 C30.941,28.252 29.075,28.252 27.134,28.252 C27.522,29.540 27.886,30.788 28.286,32.024 C28.324,32.143 28.580,32.257 28.739,32.262 C29.596,32.286 30.454,32.285 31.312,32.268 ZM27.209,21.188 C28.144,21.177 29.079,21.185 30.015,21.186 C30.931,21.187 31.847,21.180 32.763,21.189 C33.390,21.196 33.739,21.495 33.762,22.013 C33.785,22.556 33.421,22.933 32.791,22.938 C30.920,22.954 29.049,22.954 27.179,22.942 C26.578,22.938 26.215,22.584 26.209,22.073 C26.202,21.530 26.563,21.197 27.209,21.188 Z"/>
</svg>