<svg>
	<symbol id="login"  viewBox="0 0 21 23">
		<path fill-rule="evenodd" fill="currentColor" d="M20.039,20.420 C19.992,20.543 19.901,20.648 19.792,20.720 C19.649,20.810 16.229,22.995 10.507,22.995 C4.785,22.995 1.365,20.815 1.222,20.720 C1.108,20.648 1.022,20.543 0.975,20.420 C0.723,19.782 0.727,18.510 0.732,18.263 C0.732,18.258 0.732,18.253 0.732,18.249 C0.737,18.210 0.737,18.172 0.737,18.129 C0.766,17.192 0.827,14.987 2.892,14.278 C2.906,14.273 2.920,14.268 2.939,14.263 C5.094,13.716 6.868,12.478 6.887,12.464 C7.177,12.259 7.577,12.330 7.782,12.621 C7.986,12.911 7.915,13.311 7.625,13.516 C7.544,13.569 5.651,14.892 3.282,15.501 C2.173,15.896 2.050,17.082 2.016,18.167 C2.016,18.210 2.012,18.249 2.012,18.286 C2.002,18.715 2.035,19.377 2.112,19.757 C2.887,20.196 5.926,21.714 10.502,21.714 C15.097,21.714 18.118,20.201 18.888,19.762 C18.964,19.381 18.993,18.720 18.988,18.291 C18.983,18.253 18.983,18.215 18.983,18.172 C18.950,17.087 18.826,15.901 17.718,15.506 C15.349,14.897 13.456,13.578 13.375,13.521 C13.085,13.316 13.014,12.916 13.218,12.625 C13.423,12.335 13.822,12.264 14.113,12.469 C14.132,12.483 15.915,13.720 18.061,14.268 C18.075,14.273 18.094,14.278 18.108,14.282 C20.173,14.987 20.234,17.192 20.263,18.134 C20.263,18.177 20.268,18.215 20.268,18.253 C20.268,18.258 20.268,18.263 20.268,18.267 C20.272,18.515 20.277,19.786 20.039,20.420 ZM10.569,12.392 C10.555,12.392 10.536,12.392 10.521,12.392 C10.512,12.392 10.502,12.392 10.493,12.392 C10.464,12.392 10.440,12.392 10.417,12.392 C9.023,12.368 7.896,11.878 7.068,10.940 C5.237,8.873 5.541,5.331 5.574,4.993 C5.693,2.437 6.911,1.222 7.910,0.656 C8.904,0.089 9.941,0.003 10.469,0.003 L10.498,0.003 C10.502,0.003 10.512,0.003 10.517,0.003 L10.550,0.003 C11.511,0.023 12.372,0.251 13.109,0.675 C14.098,1.241 15.297,2.456 15.416,4.993 C15.449,5.331 15.754,8.873 13.922,10.940 C13.090,11.878 11.963,12.368 10.569,12.392 ZM14.141,5.112 C14.136,5.103 14.136,5.088 14.136,5.074 C13.989,1.846 11.806,1.323 10.521,1.294 C10.507,1.294 10.493,1.294 10.483,1.294 L10.464,1.294 C9.427,1.294 7.006,1.660 6.849,5.074 C6.849,5.083 6.844,5.098 6.844,5.112 C6.840,5.141 6.516,8.393 8.024,10.088 C8.619,10.764 9.423,11.097 10.469,11.106 C10.479,11.106 10.483,11.106 10.493,11.106 C10.502,11.106 10.507,11.106 10.517,11.106 C11.568,11.097 12.367,10.764 12.966,10.088 C14.479,8.383 14.146,5.145 14.141,5.112 Z"/>
	</symbol>
</svg>