<svg>
	<symbol id="mail"  viewBox="0 0 19 15">
		<path fill-rule="evenodd"  fill="currentColor" d="M2.721,14.498 C1.685,14.498 0.842,13.655 0.842,12.619 L0.842,6.207 L1.833,6.944 L1.833,12.619 C1.833,13.108 2.231,13.507 2.721,13.507 L16.279,13.507 C16.768,13.507 17.166,13.108 17.166,12.619 L17.166,6.944 L18.158,6.207 L18.158,12.619 C18.158,13.655 17.315,14.498 16.279,14.498 L2.721,14.498 ZM9.500,9.974 C9.096,9.974 8.708,9.845 8.378,9.600 L0.842,3.994 L0.842,2.380 C0.842,1.343 1.685,0.500 2.721,0.500 L16.279,0.500 C17.315,0.500 18.158,1.343 18.158,2.380 L18.158,3.994 L10.621,9.600 C10.292,9.845 9.904,9.974 9.500,9.974 ZM2.721,1.492 C2.231,1.492 1.833,1.890 1.833,2.380 L1.833,3.495 L8.970,8.804 C9.125,8.920 9.308,8.981 9.500,8.981 C9.691,8.981 9.874,8.920 10.030,8.804 L17.166,3.495 L17.166,2.380 C17.166,1.890 16.768,1.492 16.279,1.492 L2.721,1.492 Z"/>
	</symbol>
</svg>