<svg>
	<symbol id="map"  viewBox="0 0 26 26">
		<path fill-rule="evenodd"  fill="currentColor" d="M25.011,25.411 C24.979,25.388 24.949,25.362 24.914,25.343 C23.040,24.286 21.163,23.231 19.293,22.167 C19.120,22.069 19.000,22.079 18.834,22.174 C17.310,23.042 15.779,23.900 14.252,24.763 C13.880,24.974 13.515,25.195 13.146,25.411 C13.049,25.411 12.951,25.411 12.853,25.411 C12.825,25.386 12.800,25.354 12.768,25.336 C10.872,24.266 8.975,23.199 7.082,22.126 C6.964,22.059 6.881,22.073 6.773,22.135 C5.969,22.593 5.161,23.045 4.355,23.501 C3.232,24.137 2.111,24.775 0.989,25.411 C0.826,25.411 0.664,25.411 0.501,25.411 C0.501,25.249 0.501,25.086 0.501,24.923 C0.809,24.129 1.122,23.337 1.425,22.541 C2.329,20.164 3.226,17.784 4.138,15.410 C4.199,15.253 4.341,15.093 4.488,15.008 C5.656,14.332 6.834,13.675 8.009,13.012 C8.079,12.972 8.148,12.929 8.235,12.878 C8.196,12.808 8.165,12.745 8.128,12.686 C7.761,12.100 7.384,11.520 7.028,10.928 C4.466,6.664 7.152,1.104 12.082,0.458 C12.194,0.443 12.303,0.420 12.414,0.400 C12.805,0.400 13.195,0.400 13.586,0.400 C14.099,0.512 14.625,0.586 15.125,0.742 C18.099,1.671 20.097,4.558 19.948,7.667 C19.888,8.915 19.523,10.061 18.861,11.116 C18.499,11.694 18.135,12.271 17.759,12.868 C17.846,12.921 17.918,12.968 17.993,13.010 C19.154,13.665 20.313,14.324 21.478,14.971 C21.683,15.085 21.807,15.234 21.889,15.453 C23.057,18.547 24.231,21.638 25.405,24.729 C25.430,24.796 25.468,24.858 25.499,24.923 C25.499,25.086 25.499,25.249 25.499,25.411 C25.336,25.411 25.174,25.411 25.011,25.411 ZM7.897,15.326 C8.006,14.811 8.115,14.297 8.228,13.759 C8.165,13.780 8.133,13.786 8.106,13.801 C7.051,14.395 5.994,14.987 4.944,15.589 C4.858,15.639 4.789,15.751 4.752,15.849 C3.776,18.407 2.805,20.967 1.834,23.527 C1.754,23.737 1.680,23.948 1.588,24.198 C1.666,24.165 1.702,24.154 1.735,24.135 C3.314,23.246 4.894,22.358 6.468,21.460 C6.555,21.410 6.625,21.280 6.649,21.175 C6.883,20.120 7.103,19.062 7.332,18.005 C7.389,17.744 7.562,17.630 7.786,17.684 C7.993,17.733 8.094,17.916 8.045,18.159 C7.998,18.390 7.946,18.620 7.897,18.851 C7.715,19.708 7.533,20.565 7.349,21.437 C9.104,22.427 10.848,23.410 12.602,24.398 C12.618,24.342 12.630,24.319 12.630,24.296 C12.631,22.709 12.634,21.122 12.627,19.535 C12.627,19.467 12.556,19.390 12.501,19.333 C12.346,19.171 12.145,19.041 12.027,18.857 C11.046,17.323 10.079,15.779 9.107,14.238 C9.062,14.167 9.016,14.097 8.941,13.980 C8.917,14.075 8.905,14.111 8.897,14.148 C8.720,14.975 8.546,15.802 8.366,16.628 C8.310,16.880 8.121,17.007 7.910,16.952 C7.707,16.900 7.605,16.713 7.655,16.471 C7.734,16.088 7.816,15.707 7.897,15.326 ZM18.353,10.531 C18.952,9.571 19.220,8.504 19.235,7.371 C19.211,7.087 19.197,6.802 19.159,6.521 C18.640,2.662 14.723,0.218 11.042,1.452 C7.229,2.731 5.603,7.188 7.699,10.625 C8.076,11.242 8.470,11.850 8.856,12.462 C10.109,14.451 11.361,16.439 12.614,18.428 C12.851,18.802 13.131,18.826 13.350,18.480 C15.021,15.832 16.697,13.188 18.353,10.531 ZM17.439,15.721 C17.320,15.160 17.199,14.600 17.064,13.972 C16.983,14.099 16.936,14.169 16.891,14.241 C15.933,15.761 14.978,17.284 14.011,18.799 C13.892,18.986 13.732,19.165 13.550,19.288 C13.404,19.386 13.363,19.478 13.364,19.637 C13.368,21.135 13.366,22.633 13.366,24.131 C13.366,24.209 13.366,24.288 13.366,24.404 C13.475,24.350 13.546,24.318 13.615,24.279 C15.222,23.373 16.827,22.462 18.440,21.566 C18.623,21.464 18.643,21.363 18.604,21.183 C18.212,19.363 17.827,17.542 17.439,15.721 ZM24.332,23.973 C23.304,21.261 22.278,18.548 21.243,15.839 C21.199,15.724 21.092,15.608 20.984,15.546 C20.104,15.038 19.218,14.541 18.333,14.042 C18.159,13.944 17.983,13.851 17.783,13.741 C17.789,13.816 17.788,13.856 17.797,13.895 C18.314,16.335 18.832,18.776 19.358,21.215 C19.378,21.310 19.462,21.417 19.546,21.467 C20.206,21.851 20.874,22.223 21.539,22.598 C22.480,23.128 23.421,23.657 24.416,24.218 C24.373,24.093 24.354,24.032 24.332,23.973 ZM8.974,7.364 C8.971,5.147 10.772,3.337 12.986,3.331 C15.215,3.326 17.024,5.130 17.026,7.359 C17.028,9.579 15.230,11.386 13.015,11.391 C10.787,11.397 8.977,9.593 8.974,7.364 ZM16.293,7.367 C16.298,5.543 14.815,4.061 12.988,4.066 C11.173,4.070 9.705,5.549 9.709,7.367 C9.713,9.186 11.185,10.659 13.000,10.659 C14.813,10.659 16.289,9.184 16.293,7.367 ZM10.440,7.357 C10.442,5.941 11.592,4.794 13.003,4.798 C14.418,4.801 15.563,5.951 15.560,7.365 C15.557,8.779 14.407,9.927 12.996,9.925 C11.585,9.923 10.438,8.771 10.440,7.357 ZM14.827,7.371 C14.833,6.360 14.017,5.534 13.009,5.530 C11.999,5.527 11.179,6.340 11.172,7.352 C11.166,8.360 11.983,9.187 12.991,9.193 C13.998,9.198 14.822,8.381 14.827,7.371 Z"/>
	</symbol>
</svg>