<svg>
	<symbol id="payment-bill"  viewBox="0 0 42 40">
		<path fill-rule="evenodd"  fill="currentColor" d="M37.116,35.861 L37.116,34.481 L38.496,34.481 L38.496,35.861 L37.116,35.861 ZM37.116,23.448 L37.116,22.069 L38.496,22.069 L38.496,23.448 L37.116,23.448 ZM37.116,11.035 L37.116,9.656 L38.496,9.656 L38.496,11.035 L37.116,11.035 ZM41.946,25.517 L41.946,28.275 C41.946,28.656 41.638,28.965 41.256,28.965 L41.256,37.929 C41.256,38.310 40.947,38.619 40.566,38.619 L28.145,38.619 L28.145,37.240 L39.876,37.240 L39.876,28.965 L34.355,28.965 L34.355,33.102 C34.355,33.483 34.046,33.792 33.665,33.792 L28.145,33.792 L28.145,32.413 L32.975,32.413 L32.975,28.965 L28.145,28.965 L28.145,27.585 L32.975,27.585 L32.975,26.206 L28.145,26.206 L28.145,24.827 L39.876,24.827 L39.876,16.552 L34.355,16.552 L34.355,20.689 C34.355,21.070 34.046,21.379 33.665,21.379 L28.145,21.379 L28.145,20.000 L32.975,20.000 L32.975,16.552 L28.145,16.552 L28.145,15.173 L32.975,15.173 L32.975,13.793 L28.145,13.793 L28.145,12.414 L39.876,12.414 L39.876,4.139 L34.355,4.139 L34.355,8.277 C34.355,8.658 34.046,8.966 33.665,8.966 L25.384,8.966 C25.003,8.966 24.694,8.658 24.694,8.277 L24.694,4.139 L19.174,4.139 L19.174,8.277 L17.794,8.277 L17.794,4.139 C17.412,4.139 17.103,3.830 17.103,3.449 L17.103,0.691 C17.103,0.310 17.412,0.001 17.794,0.001 L41.256,0.001 C41.638,0.001 41.946,0.310 41.946,0.691 L41.946,3.449 C41.946,3.830 41.638,4.139 41.256,4.139 L41.256,12.414 C41.638,12.414 41.946,12.723 41.946,13.104 L41.946,15.862 C41.946,16.243 41.638,16.552 41.256,16.552 L41.256,24.827 C41.638,24.827 41.946,25.136 41.946,25.517 ZM24.694,1.380 L18.484,1.380 L18.484,2.760 L24.694,2.760 L24.694,1.380 ZM32.975,1.380 L26.074,1.380 L26.074,2.760 L32.975,2.760 L32.975,1.380 ZM32.975,4.139 L26.074,4.139 L26.074,7.587 L32.975,7.587 L32.975,4.139 ZM40.566,1.380 L34.355,1.380 L34.355,2.760 L40.566,2.760 L40.566,1.380 ZM40.566,13.793 L34.355,13.793 L34.355,15.173 L40.566,15.173 L40.566,13.793 ZM40.566,26.206 L34.355,26.206 L34.355,27.585 L40.566,27.585 L40.566,26.206 ZM21.244,11.035 L8.822,11.035 L8.822,9.656 L21.244,9.656 L21.244,11.035 ZM24.004,9.656 L24.004,11.035 L22.624,11.035 L22.624,9.656 L24.004,9.656 ZM26.765,13.104 L26.765,39.309 C26.765,39.690 26.456,39.998 26.074,39.998 L6.752,39.998 C6.371,39.998 6.062,39.690 6.062,39.309 L6.062,37.526 L4.480,39.107 L3.504,38.131 L6.954,34.683 L6.954,34.683 C8.209,33.429 8.209,31.396 6.954,30.142 C6.685,29.872 6.685,29.436 6.954,29.166 L10.060,26.063 C10.362,25.761 10.362,25.272 10.060,24.970 C9.757,24.668 9.268,24.668 8.965,24.970 L5.860,28.073 L4.884,27.098 L6.062,25.920 L6.062,24.137 L3.992,24.137 C3.230,24.138 2.612,24.755 2.612,25.517 L2.612,31.723 C2.612,31.906 2.539,32.081 2.410,32.211 L1.029,33.590 L0.053,32.614 L1.231,31.437 L1.231,25.517 C1.233,23.994 2.468,22.760 3.992,22.758 L6.062,22.758 L6.062,13.104 C6.062,12.723 6.371,12.414 6.752,12.414 L26.074,12.414 C26.456,12.414 26.765,12.723 26.765,13.104 ZM25.384,13.793 L7.442,13.793 L7.442,24.541 L7.989,23.994 C8.829,23.163 10.183,23.163 11.022,23.994 C11.867,24.832 11.873,26.195 11.036,27.039 L8.382,29.690 C9.727,31.518 9.535,34.054 7.930,35.659 L7.442,36.146 L7.442,38.619 L25.384,38.619 L25.384,13.793 ZM23.314,30.344 L10.893,30.344 L10.893,28.965 L23.314,28.965 L23.314,30.344 ZM23.314,33.102 L10.893,33.102 L10.893,31.723 L23.314,31.723 L23.314,33.102 ZM21.244,35.861 L10.893,35.861 L10.893,34.481 L21.244,34.481 L21.244,35.861 ZM15.723,26.206 L23.314,26.206 L23.314,27.585 L15.723,27.585 L15.723,26.206 ZM19.864,19.310 L21.244,19.310 L21.244,20.689 L19.864,20.689 L19.864,19.310 ZM14.343,27.585 L12.963,27.585 L12.963,26.206 L14.343,26.206 L14.343,27.585 ZM16.427,21.058 L14.791,21.058 L14.791,21.648 L17.069,21.648 L17.069,22.372 L14.791,22.372 L14.791,23.448 L13.446,23.448 L13.446,22.372 L12.411,22.372 L12.411,21.648 L13.446,21.648 L13.446,16.207 L16.427,16.207 C18.331,16.207 19.501,17.035 19.501,18.638 C19.501,20.231 18.331,21.058 16.427,21.058 ZM16.417,17.345 L14.791,17.345 L14.791,19.973 L16.417,19.973 C17.524,19.973 18.145,19.486 18.145,18.648 C18.145,17.800 17.524,17.345 16.417,17.345 ZM11.583,19.310 L12.963,19.310 L12.963,20.689 L11.583,20.689 L11.583,19.310 Z"/>
	</symbol>
</svg>