<svg>
	<symbol id="payment-receipt"  viewBox="0 0 43 41">
		<path fill-rule="evenodd"  fill="currentColor" d="M32.852,19.847 C32.676,19.847 32.495,19.842 32.325,19.832 L32.325,35.156 C32.325,38.105 29.934,40.498 26.982,40.503 L26.967,40.503 C26.860,40.503 26.790,40.489 26.619,40.483 L26.619,40.503 L5.583,40.503 L5.583,40.488 C2.731,40.359 0.482,38.015 0.473,35.162 L0.473,32.131 C0.473,31.755 0.797,31.482 1.173,31.482 L5.993,31.482 L6.154,7.600 C6.157,7.226 6.461,6.889 6.835,6.889 L23.746,6.889 C25.085,3.230 28.662,0.497 32.854,0.497 C38.188,0.497 42.526,4.842 42.526,10.172 C42.526,15.501 38.186,19.847 32.852,19.847 ZM1.836,32.844 L1.836,35.155 C1.846,37.357 3.634,39.138 5.838,39.141 L5.843,39.141 L23.407,39.141 C23.332,39.056 23.243,39.001 23.172,38.929 C22.163,37.928 21.595,36.566 21.594,35.145 L21.594,32.844 L1.836,32.844 ZM23.181,10.141 C23.184,9.507 23.247,8.874 23.367,8.250 L7.512,8.250 L7.356,31.482 L22.307,31.482 C22.481,31.476 22.649,31.542 22.773,31.665 C22.896,31.788 22.963,31.957 22.957,32.131 L22.957,35.146 C22.968,37.353 24.759,39.137 26.968,39.141 L26.981,39.141 C29.181,39.137 30.963,37.353 30.962,35.155 L30.962,19.662 C28.395,19.147 26.148,17.607 24.742,15.399 L17.568,15.399 C17.191,15.399 16.886,15.094 16.886,14.718 C16.886,14.342 17.191,14.037 17.568,14.037 L24.003,14.037 C23.459,12.810 23.179,11.483 23.181,10.141 ZM32.854,1.877 C28.264,1.877 24.544,5.595 24.544,10.181 C24.543,14.768 28.264,18.486 32.854,18.486 C37.442,18.481 41.159,14.765 41.164,10.181 C41.164,5.595 37.444,1.877 32.854,1.877 ZM33.665,11.753 L31.291,11.753 L31.291,12.557 L34.321,12.557 L34.321,13.335 L31.291,13.335 L31.291,14.930 L29.912,14.930 L29.912,13.335 L28.520,13.335 L28.520,12.557 L29.912,12.557 L29.912,5.384 L33.665,5.384 C36.122,5.384 37.637,6.502 37.637,8.562 C37.637,10.634 36.122,11.753 33.665,11.753 ZM33.665,6.571 L31.291,6.571 L31.291,10.621 L33.665,10.621 C35.331,10.621 36.259,9.871 36.259,8.575 C36.259,7.280 35.331,6.571 33.665,6.571 ZM13.194,28.705 C11.992,28.705 11.014,27.759 11.014,26.595 C11.014,25.432 11.992,24.485 13.194,24.485 C14.397,24.485 15.375,25.432 15.375,26.595 C15.375,27.759 14.397,28.705 13.194,28.705 ZM13.194,25.847 C12.743,25.847 12.376,26.183 12.376,26.595 C12.376,27.008 12.743,27.343 13.194,27.343 C13.646,27.343 14.013,27.008 14.013,26.595 C14.013,26.183 13.646,25.847 13.194,25.847 ZM13.194,22.788 C11.992,22.788 11.014,21.841 11.014,20.678 C11.014,19.514 11.992,18.568 13.194,18.568 C14.397,18.568 15.375,19.514 15.375,20.678 C15.375,21.841 14.397,22.788 13.194,22.788 ZM13.194,19.930 C12.743,19.930 12.376,20.265 12.376,20.678 C12.376,21.090 12.743,21.426 13.194,21.426 C13.646,21.426 14.013,21.090 14.013,20.678 C14.013,20.265 13.646,19.930 13.194,19.930 ZM13.194,16.870 C11.992,16.870 11.014,15.924 11.014,14.760 C11.014,13.597 11.992,12.650 13.194,12.650 C14.397,12.650 15.375,13.597 15.375,14.760 C15.375,15.924 14.397,16.870 13.194,16.870 ZM13.194,14.012 C12.743,14.012 12.376,14.348 12.376,14.760 C12.376,15.173 12.743,15.508 13.194,15.508 L13.194,15.509 C13.646,15.509 14.013,15.173 14.013,14.760 C14.013,14.347 13.646,14.012 13.194,14.012 ZM17.568,19.994 L26.651,19.994 C27.027,19.994 27.332,20.299 27.332,20.675 C27.332,21.051 27.027,21.356 26.651,21.356 L17.568,21.356 C17.191,21.356 16.886,21.051 16.886,20.675 C16.886,20.299 17.191,19.994 17.568,19.994 ZM17.568,25.951 L26.651,25.951 C27.027,25.951 27.332,26.256 27.332,26.632 C27.332,27.008 27.027,27.312 26.651,27.312 L17.568,27.312 C17.191,27.312 16.886,27.008 16.886,26.632 C16.886,26.256 17.191,25.951 17.568,25.951 Z"/>
	</symbol>
</svg>