<svg>
	<symbol id="payment-cash"  viewBox="0 0 39 40">
		<path fill-rule="evenodd"  fill="currentColor" d="M23.226,8.702 C23.321,8.530 23.478,8.405 23.667,8.351 C23.734,8.332 23.802,8.322 23.871,8.322 C24.198,8.322 24.489,8.541 24.579,8.855 C24.716,9.331 24.786,9.822 24.786,10.316 C24.786,13.225 22.417,15.592 19.505,15.592 C16.593,15.592 14.223,13.225 14.223,10.316 C14.223,10.046 14.244,9.774 14.285,9.508 C14.340,9.152 14.653,8.884 15.013,8.884 C15.050,8.884 15.088,8.886 15.126,8.892 C15.320,8.922 15.491,9.026 15.608,9.184 C15.724,9.343 15.772,9.538 15.742,9.732 C15.712,9.924 15.697,10.120 15.697,10.316 C15.697,12.413 17.405,14.119 19.505,14.119 C21.604,14.119 23.312,12.413 23.312,10.316 C23.312,9.960 23.262,9.606 23.163,9.262 C23.108,9.073 23.131,8.874 23.226,8.702 ZM36.782,20.088 L29.410,20.088 L29.410,20.235 C29.410,21.547 29.006,22.803 28.241,23.869 L26.701,26.015 L26.701,39.259 C26.701,39.664 26.370,39.995 25.964,39.995 C25.558,39.995 25.227,39.664 25.227,39.259 L25.227,25.779 C25.227,25.624 25.275,25.476 25.365,25.350 L27.043,23.011 C27.627,22.197 27.936,21.237 27.936,20.235 L27.936,20.088 L16.306,20.088 C17.637,21.236 18.419,22.923 18.419,24.683 L18.419,25.056 C18.419,25.462 18.089,25.792 17.682,25.792 C17.276,25.792 16.946,25.462 16.946,25.056 L16.946,24.683 C16.946,22.149 14.883,20.088 12.347,20.088 C11.941,20.088 11.610,19.758 11.610,19.352 L11.610,13.970 C11.610,13.136 10.930,12.457 10.095,12.457 C9.260,12.457 8.581,13.136 8.581,13.970 L8.581,24.254 C8.581,25.144 8.928,25.981 9.558,26.611 L12.225,29.275 C12.364,29.414 12.440,29.599 12.440,29.796 L12.440,39.259 C12.440,39.664 12.110,39.995 11.704,39.995 C11.297,39.995 10.967,39.664 10.967,39.259 L10.967,30.100 L8.516,27.652 C7.607,26.744 7.107,25.538 7.107,24.254 L7.107,20.088 L2.218,20.088 C1.342,20.088 0.629,19.376 0.629,18.501 L0.629,2.865 C0.629,1.990 1.342,1.277 2.218,1.277 L10.274,1.277 C10.591,0.512 11.343,0.005 12.178,0.005 L13.437,0.005 C13.925,0.005 14.390,0.175 14.761,0.488 C15.133,0.175 15.597,0.005 16.085,0.005 L17.344,0.005 C17.832,0.005 18.297,0.175 18.668,0.488 C19.039,0.175 19.504,0.005 19.992,0.005 L21.251,0.005 C21.739,0.005 22.204,0.175 22.575,0.488 C22.946,0.175 23.411,0.005 23.899,0.005 L25.158,0.005 C25.993,0.005 26.745,0.512 27.062,1.277 L31.749,1.277 C32.155,1.277 32.486,1.608 32.486,2.014 C32.486,2.420 32.155,2.750 31.749,2.750 L27.219,2.750 L27.219,3.607 L33.595,3.607 C34.002,3.607 34.332,3.937 34.332,4.343 C34.332,4.878 34.768,5.312 35.302,5.312 C35.709,5.312 36.039,5.643 36.039,6.049 L36.039,15.317 C36.039,15.723 35.709,16.053 35.302,16.053 C34.768,16.053 34.332,16.488 34.332,17.023 C34.332,17.429 34.002,17.759 33.595,17.759 L31.157,17.759 C30.751,17.759 30.420,17.429 30.420,17.023 C30.420,16.617 30.751,16.287 31.157,16.287 L32.972,16.287 C33.212,15.530 33.808,14.934 34.565,14.695 L34.565,6.672 C33.808,6.432 33.212,5.836 32.972,5.079 L27.115,5.079 C26.787,6.234 25.740,7.031 24.528,7.031 C23.957,7.031 23.400,6.847 22.941,6.511 C22.457,7.334 21.585,7.838 20.622,7.838 C20.021,7.838 19.442,7.637 18.971,7.270 C18.476,8.031 17.627,8.496 16.715,8.496 C15.802,8.496 14.954,8.031 14.459,7.270 C13.987,7.637 13.408,7.838 12.808,7.838 C11.324,7.838 10.117,6.632 10.117,5.150 L10.117,5.079 L6.028,5.079 C5.788,5.836 5.192,6.432 4.434,6.672 L4.434,8.190 C4.434,8.596 4.104,8.926 3.697,8.926 C3.291,8.926 2.960,8.596 2.960,8.190 L2.960,6.048 C2.960,5.643 3.291,5.312 3.697,5.312 C4.232,5.312 4.668,4.877 4.668,4.343 C4.668,3.937 4.998,3.607 5.405,3.607 L10.117,3.607 L10.117,2.750 L2.218,2.750 C2.154,2.750 2.103,2.802 2.103,2.865 L2.103,18.501 C2.103,18.564 2.154,18.616 2.218,18.616 L7.107,18.616 L7.107,17.759 L5.405,17.759 C4.998,17.759 4.668,17.429 4.668,17.023 C4.668,16.488 4.232,16.053 3.697,16.053 C3.291,16.053 2.960,15.723 2.960,15.317 L2.960,10.672 C2.960,10.266 3.291,9.936 3.697,9.936 C4.104,9.936 4.434,10.266 4.434,10.672 L4.434,14.695 C5.192,14.934 5.788,15.530 6.028,16.287 L7.107,16.287 L7.107,13.970 C7.107,12.324 8.447,10.985 10.095,10.985 C11.743,10.985 13.084,12.324 13.084,13.970 L13.084,16.287 L28.673,16.287 C29.079,16.287 29.410,16.617 29.410,17.023 C29.410,17.429 29.079,17.759 28.673,17.759 L13.084,17.759 L13.084,18.616 L36.782,18.616 C36.845,18.616 36.897,18.564 36.897,18.501 L36.897,2.865 C36.897,2.802 36.845,2.750 36.782,2.750 L34.233,2.750 C33.827,2.750 33.496,2.420 33.496,2.014 C33.496,1.608 33.827,1.277 34.233,1.277 L36.782,1.277 C37.658,1.277 38.371,1.990 38.371,2.865 L38.371,18.501 C38.371,19.376 37.658,20.088 36.782,20.088 ZM23.312,4.343 C23.312,5.013 23.858,5.558 24.528,5.558 C25.199,5.558 25.745,5.013 25.745,4.343 L25.745,2.064 C25.745,1.740 25.482,1.477 25.158,1.477 L23.899,1.477 C23.575,1.477 23.312,1.740 23.312,2.064 L23.312,4.343 ZM19.405,5.150 C19.405,5.820 19.951,6.365 20.622,6.365 C21.292,6.365 21.838,5.820 21.838,5.150 L21.838,2.064 C21.838,1.740 21.575,1.477 21.251,1.477 L19.992,1.477 C19.668,1.477 19.405,1.740 19.405,2.064 L19.405,5.150 ZM15.498,5.808 C15.498,6.478 16.044,7.023 16.715,7.023 C17.385,7.023 17.931,6.478 17.931,5.808 L17.931,2.064 C17.931,1.740 17.668,1.477 17.344,1.477 L16.085,1.477 C15.762,1.477 15.498,1.740 15.498,2.064 L15.498,5.808 ZM11.591,5.150 C11.591,5.820 12.137,6.365 12.808,6.365 C13.479,6.365 14.024,5.820 14.024,5.150 L14.024,2.064 C14.024,1.740 13.761,1.477 13.437,1.477 L12.178,1.477 C11.855,1.477 11.591,1.740 11.591,2.064 L11.591,2.064 L11.591,5.150 Z"/>
	</symbol>
</svg>