<svg>
	<symbol id="payment-bank"  viewBox="0 0 30 43">
		<path fill-rule="evenodd"  fill="currentColor" d="M26.198,32.705 L19.899,32.705 L19.899,34.547 C19.899,38.937 16.329,42.509 11.942,42.509 L1.003,42.509 C0.616,42.509 0.303,42.196 0.303,41.809 L0.303,23.958 C0.302,22.216 0.901,20.506 1.989,19.144 L8.702,10.750 L8.702,3.992 C8.702,2.061 10.271,0.491 12.201,0.491 L26.198,0.491 C28.128,0.491 29.698,2.061 29.698,3.992 L29.698,29.203 C29.698,31.134 28.128,32.705 26.198,32.705 ZM12.901,1.891 L12.201,1.891 C11.043,1.891 10.101,2.834 10.101,3.992 L10.101,22.360 L12.901,19.384 L12.901,1.891 ZM16.400,1.891 L14.301,1.891 L14.301,17.895 L15.499,16.621 C15.761,16.343 16.069,16.128 16.400,15.961 L16.400,1.891 ZM7.112,27.582 L6.092,26.622 L8.702,23.848 L8.702,12.993 L3.083,20.019 C2.192,21.132 1.702,22.531 1.703,23.958 L1.703,41.108 L11.942,41.108 C15.557,41.108 18.500,38.165 18.500,34.547 L18.500,32.705 L13.942,32.705 C13.154,35.531 11.071,37.905 8.247,38.963 L7.756,37.652 C10.834,36.498 12.901,33.514 12.901,30.226 L12.901,27.803 C12.901,27.637 12.960,27.476 13.067,27.350 L19.258,20.033 C19.878,19.295 19.832,18.223 19.118,17.508 C18.761,17.171 18.295,17.003 17.803,17.006 C17.311,17.020 16.854,17.224 16.518,17.582 L7.112,27.582 ZM14.216,31.304 L16.400,31.304 L16.400,25.578 L14.300,28.059 L14.300,30.226 C14.300,30.590 14.259,30.947 14.216,31.304 ZM28.298,3.992 C28.298,2.834 27.356,1.891 26.198,1.891 L17.800,1.891 L17.800,15.608 C18.659,15.589 19.460,15.904 20.072,16.483 C20.080,16.490 20.136,16.544 20.143,16.551 C21.339,17.752 21.419,19.636 20.328,20.937 L17.800,23.924 L17.800,31.304 L26.198,31.304 C27.356,31.304 28.298,30.362 28.298,29.203 L28.298,3.992 ZM25.498,29.203 L21.299,29.203 C20.913,29.203 20.599,28.890 20.599,28.503 L20.599,24.301 C20.599,23.914 20.913,23.601 21.299,23.601 L25.498,23.601 C25.885,23.601 26.198,23.914 26.198,24.301 L26.198,28.503 C26.198,28.890 25.885,29.203 25.498,29.203 ZM24.798,25.002 L21.999,25.002 L21.999,27.803 L24.798,27.803 L24.798,25.002 ZM24.798,3.992 L26.198,3.992 L26.198,13.096 L24.798,13.096 L24.798,3.992 ZM21.299,3.992 L22.699,3.992 L22.699,9.595 L21.299,9.595 L21.299,3.992 Z"/>
	</symbol>
</svg>