<svg 
 xmlns="http://www.w3.org/2000/svg"
 xmlns:xlink="http://www.w3.org/1999/xlink"
 width="19px" height="19px">
<path fill-rule="evenodd"  fill="currentColor"
 d="M18.383,9.132 C18.357,9.136 18.331,9.140 18.305,9.140 C18.088,9.140 17.896,8.985 17.859,8.764 C17.554,6.968 16.706,5.332 15.405,4.030 C14.104,2.728 12.468,1.880 10.673,1.575 C10.430,1.534 10.264,1.302 10.305,1.054 C10.345,0.811 10.577,0.645 10.824,0.686 C12.807,1.022 14.609,1.958 16.046,3.392 C17.480,4.826 18.416,6.629 18.751,8.613 C18.796,8.856 18.630,9.092 18.383,9.132 ZM10.673,3.970 C11.871,4.174 12.962,4.738 13.835,5.608 C14.701,6.475 15.269,7.569 15.471,8.768 C15.516,9.011 15.350,9.247 15.103,9.287 C15.077,9.291 15.051,9.295 15.026,9.295 C14.808,9.295 14.616,9.140 14.580,8.919 C14.406,7.904 13.927,6.979 13.194,6.246 C12.457,5.512 11.536,5.033 10.522,4.859 C10.279,4.819 10.113,4.587 10.154,4.340 C10.194,4.096 10.426,3.930 10.673,3.970 ZM7.227,7.271 C6.936,7.569 6.634,7.875 6.310,8.170 C6.542,8.709 6.870,9.232 7.368,9.859 C8.355,11.072 9.387,12.015 10.526,12.739 C10.640,12.808 10.769,12.875 10.909,12.944 C11.020,13.000 11.134,13.055 11.244,13.118 L12.486,11.875 C12.859,11.503 13.293,11.308 13.747,11.308 C14.204,11.308 14.635,11.507 14.996,11.883 L17.097,13.984 C17.856,14.744 17.859,15.743 17.104,16.532 C16.946,16.702 16.776,16.863 16.610,17.022 C16.367,17.255 16.138,17.476 15.936,17.719 C15.932,17.723 15.925,17.730 15.921,17.734 C15.353,18.349 14.631,18.663 13.765,18.663 C13.684,18.663 13.607,18.659 13.526,18.656 C12.225,18.571 11.056,18.085 10.183,17.667 C7.891,16.558 5.886,14.984 4.217,12.993 C2.846,11.341 1.921,9.796 1.305,8.134 C0.907,7.057 0.752,6.165 0.819,5.324 C0.878,4.650 1.150,4.066 1.630,3.587 L2.938,2.282 C3.314,1.921 3.749,1.733 4.198,1.733 C4.651,1.733 5.079,1.921 5.440,2.282 C5.680,2.504 5.919,2.750 6.151,2.987 C6.269,3.104 6.387,3.226 6.509,3.348 L7.552,4.391 C8.340,5.177 8.340,6.153 7.552,6.943 C7.441,7.053 7.334,7.163 7.227,7.271 ZM6.918,5.025 L5.875,3.982 C5.750,3.860 5.628,3.735 5.510,3.613 C5.274,3.373 5.049,3.145 4.817,2.928 C4.618,2.732 4.412,2.633 4.202,2.633 C3.988,2.633 3.771,2.732 3.572,2.924 L2.271,4.225 C1.939,4.554 1.762,4.937 1.722,5.397 C1.666,6.109 1.799,6.858 2.157,7.820 C2.735,9.383 3.608,10.843 4.913,12.414 C6.498,14.309 8.403,15.802 10.585,16.853 C11.384,17.233 12.446,17.679 13.592,17.752 C13.651,17.756 13.714,17.760 13.773,17.760 C14.388,17.760 14.860,17.561 15.258,17.133 C15.490,16.857 15.744,16.610 15.991,16.374 C16.153,16.215 16.308,16.067 16.455,15.909 C16.747,15.603 16.982,15.139 16.466,14.623 L14.358,12.513 C14.222,12.373 14.012,12.211 13.754,12.211 C13.544,12.211 13.330,12.314 13.131,12.513 L11.823,13.822 C11.764,13.885 11.580,14.070 11.289,14.070 C11.171,14.070 11.056,14.040 10.939,13.980 C10.924,13.974 10.913,13.966 10.898,13.959 C10.784,13.889 10.655,13.822 10.515,13.752 C10.360,13.675 10.201,13.594 10.050,13.498 C8.827,12.720 7.721,11.713 6.671,10.419 C6.089,9.682 5.709,9.066 5.440,8.417 C5.436,8.406 5.433,8.399 5.429,8.388 C5.355,8.174 5.311,7.887 5.610,7.588 C5.617,7.580 5.621,7.577 5.628,7.569 C5.963,7.271 6.266,6.961 6.590,6.633 C6.697,6.522 6.807,6.411 6.918,6.301 C7.345,5.873 7.345,5.453 6.918,5.025 Z"/>
</svg>