<svg>
	<symbol id="price"  viewBox="0 0 21 20">
		<path fill-rule="evenodd"  fill="currentColor" d="M20.466,10.235 C20.466,12.884 20.467,15.532 20.464,18.181 C20.463,18.968 20.101,19.534 19.384,19.863 C19.245,19.927 19.089,19.957 18.941,20.003 C14.422,20.003 9.902,20.003 5.382,20.003 C5.242,19.979 5.102,19.954 4.961,19.931 C2.692,19.565 0.929,17.765 0.586,15.465 C0.255,13.241 1.450,10.989 3.486,9.994 C4.034,9.726 4.611,9.565 5.226,9.482 C5.226,9.393 5.226,9.316 5.226,9.239 C5.226,6.759 5.223,4.279 5.227,1.799 C5.229,1.018 5.599,0.462 6.306,0.137 C6.446,0.072 6.601,0.042 6.750,-0.003 C9.876,-0.003 13.002,-0.003 16.128,-0.003 C16.259,0.099 16.404,0.187 16.521,0.304 C17.748,1.525 18.969,2.752 20.197,3.972 C20.385,4.159 20.470,4.364 20.469,4.631 C20.462,6.499 20.466,8.367 20.466,10.235 ZM5.819,10.625 C3.552,10.622 1.706,12.468 1.709,14.735 C1.712,16.993 3.556,18.832 5.814,18.831 C8.072,18.830 9.914,16.988 9.915,14.730 C9.916,12.471 8.077,10.629 5.819,10.625 ZM16.570,2.063 C16.570,2.668 16.570,3.278 16.570,3.888 C17.194,3.888 17.806,3.888 18.392,3.888 C17.787,3.282 17.178,2.672 16.570,2.063 ZM19.293,5.076 C18.195,5.076 17.128,5.077 16.060,5.076 C15.614,5.076 15.386,4.849 15.386,4.405 C15.385,3.395 15.385,2.386 15.384,1.377 C15.384,1.314 15.384,1.250 15.384,1.169 C15.303,1.169 15.239,1.169 15.176,1.169 C12.480,1.169 9.784,1.169 7.089,1.169 C6.620,1.169 6.398,1.393 6.398,1.865 C6.398,4.332 6.398,6.800 6.398,9.268 C6.398,9.338 6.398,9.408 6.398,9.483 C7.395,9.605 8.274,9.967 9.055,10.567 C9.110,10.609 9.199,10.623 9.271,10.623 C10.541,10.626 11.811,10.625 13.081,10.625 C14.415,10.624 15.750,10.625 17.085,10.623 C17.360,10.623 17.568,10.731 17.680,10.983 C17.859,11.385 17.558,11.796 17.087,11.797 C14.880,11.798 12.672,11.797 10.465,11.797 C10.389,11.797 10.314,11.797 10.200,11.797 C10.670,12.530 10.956,13.295 11.053,14.133 C11.122,14.136 11.179,14.141 11.236,14.142 C11.849,14.142 12.461,14.142 13.073,14.141 C14.421,14.141 15.768,14.140 17.116,14.142 C17.442,14.142 17.688,14.358 17.726,14.660 C17.763,14.950 17.566,15.230 17.269,15.297 C17.188,15.316 17.101,15.313 17.017,15.313 C15.109,15.314 13.201,15.314 11.293,15.314 C11.216,15.314 11.140,15.314 11.057,15.314 C10.875,16.729 10.243,17.883 9.128,18.831 C9.239,18.831 9.296,18.831 9.353,18.831 C12.439,18.831 15.525,18.831 18.612,18.831 C19.066,18.831 19.293,18.601 19.293,18.144 C19.293,13.860 19.293,9.575 19.293,5.291 C19.293,5.222 19.293,5.154 19.293,5.076 ZM17.081,8.282 C15.662,8.280 14.243,8.281 12.825,8.281 C12.825,8.281 12.825,8.281 12.825,8.282 C11.413,8.282 10.000,8.283 8.588,8.281 C8.115,8.280 7.822,7.838 8.026,7.436 C8.148,7.195 8.356,7.107 8.620,7.107 C10.345,7.109 12.069,7.108 13.793,7.108 C14.900,7.107 16.006,7.105 17.112,7.109 C17.583,7.110 17.871,7.561 17.661,7.961 C17.539,8.193 17.336,8.282 17.081,8.282 ZM6.952,13.985 C6.706,14.059 6.444,13.966 6.304,13.748 C6.263,13.684 6.221,13.607 6.217,13.534 C6.210,13.387 6.144,13.348 6.007,13.358 C5.858,13.369 5.708,13.364 5.558,13.359 C5.458,13.356 5.417,13.396 5.420,13.497 C5.425,13.666 5.425,13.835 5.420,14.005 C5.417,14.105 5.456,14.146 5.558,14.143 C5.727,14.138 5.896,14.141 6.065,14.141 C6.846,14.140 7.372,14.667 7.375,15.452 C7.375,15.602 7.375,15.751 7.375,15.901 C7.374,16.611 7.088,17.012 6.409,17.246 C6.372,17.804 6.178,18.056 5.803,18.050 C5.435,18.044 5.252,17.798 5.216,17.245 C5.163,17.227 5.103,17.208 5.045,17.185 C4.576,17.005 4.250,16.543 4.249,16.058 C4.247,15.736 4.472,15.480 4.786,15.444 C5.068,15.413 5.352,15.617 5.405,15.922 C5.430,16.065 5.480,16.108 5.617,16.098 C5.765,16.087 5.917,16.107 6.065,16.089 C6.115,16.083 6.191,16.008 6.196,15.958 C6.213,15.790 6.199,15.620 6.204,15.451 C6.206,15.351 6.166,15.310 6.066,15.313 C5.897,15.318 5.727,15.314 5.558,15.315 C4.787,15.316 4.253,14.790 4.249,14.023 C4.248,13.867 4.249,13.710 4.249,13.554 C4.249,12.843 4.536,12.442 5.208,12.213 C5.288,11.621 5.455,11.401 5.820,11.406 C6.179,11.412 6.336,11.625 6.414,12.211 C7.036,12.435 7.384,12.872 7.375,13.416 C7.371,13.686 7.204,13.910 6.952,13.985 Z"/>
	</symbol>
</svg>