<svg>
	<symbol id="schedule"  viewBox="0 0 24 24">
		<path fill-rule="evenodd"  fill="currentColor" d="M18.782,23.495 C17.476,23.495 16.247,22.986 15.322,22.062 C15.002,21.742 14.728,21.380 14.508,20.987 L2.212,20.987 C1.708,20.987 1.235,20.790 0.878,20.434 C0.521,20.076 0.324,19.603 0.324,19.102 L0.324,18.445 C0.324,18.188 0.534,17.980 0.791,17.980 C1.048,17.980 1.256,18.188 1.256,18.445 L1.256,19.102 C1.256,19.354 1.356,19.593 1.537,19.774 C1.719,19.955 1.958,20.055 2.212,20.055 L14.108,20.055 C13.962,19.588 13.888,19.100 13.888,18.605 C13.888,18.118 13.961,17.634 14.105,17.167 C14.249,16.700 14.461,16.260 14.735,15.857 C14.822,15.729 14.966,15.653 15.121,15.653 C15.215,15.653 15.305,15.681 15.383,15.734 C15.485,15.804 15.554,15.910 15.577,16.032 C15.600,16.154 15.574,16.278 15.504,16.380 C15.282,16.708 15.110,17.064 14.994,17.440 C14.880,17.815 14.822,18.207 14.822,18.605 C14.822,19.662 15.234,20.657 15.981,21.404 C16.730,22.152 17.725,22.564 18.782,22.564 C19.840,22.564 20.836,22.152 21.584,21.404 C22.332,20.657 22.743,19.662 22.743,18.605 C22.743,17.547 22.332,16.553 21.584,15.806 C20.836,15.058 19.840,14.646 18.782,14.646 C18.366,14.646 17.954,14.710 17.559,14.838 C17.163,14.967 16.792,15.156 16.457,15.400 C16.377,15.458 16.282,15.488 16.184,15.488 C16.034,15.488 15.893,15.416 15.806,15.296 C15.733,15.195 15.704,15.072 15.723,14.950 C15.743,14.827 15.809,14.719 15.911,14.646 C16.325,14.345 16.783,14.112 17.272,13.953 C17.760,13.794 18.268,13.714 18.782,13.714 C19.392,13.714 19.983,13.824 20.542,14.040 L20.542,9.436 C20.542,9.179 20.751,8.971 21.008,8.971 C21.266,8.971 21.475,9.179 21.475,9.436 L21.475,14.520 C21.751,14.702 22.009,14.913 22.243,15.147 C23.167,16.070 23.676,17.298 23.676,18.605 C23.676,19.911 23.167,21.139 22.243,22.062 C21.319,22.986 20.089,23.495 18.782,23.495 ZM16.700,21.518 C16.590,21.518 16.483,21.479 16.399,21.408 C16.204,21.242 16.179,20.949 16.344,20.752 L18.317,18.435 L18.317,15.627 C18.317,15.371 18.525,15.162 18.782,15.162 C19.039,15.162 19.249,15.371 19.249,15.627 L19.249,18.605 C19.249,18.725 19.203,18.839 19.120,18.926 L17.055,21.353 C16.967,21.458 16.837,21.518 16.700,21.518 ZM8.902,18.877 C8.645,18.877 8.436,18.668 8.436,18.410 L8.436,14.418 C8.436,14.161 8.645,13.952 8.902,13.952 L12.896,13.952 C13.154,13.952 13.363,14.161 13.363,14.418 L13.363,18.410 C13.363,18.668 13.154,18.877 12.896,18.877 L8.902,18.877 ZM12.431,17.945 L12.431,14.885 L9.368,14.885 L9.368,17.945 L12.431,17.945 ZM2.902,18.877 C2.645,18.877 2.437,18.668 2.437,18.410 L2.437,14.418 C2.437,14.161 2.645,13.952 2.902,13.952 L6.898,13.952 C7.155,13.952 7.363,14.161 7.363,14.418 L7.363,18.410 C7.363,18.668 7.155,18.877 6.898,18.877 L2.902,18.877 ZM6.431,17.945 L6.431,14.885 L3.369,14.885 L3.369,17.945 L6.431,17.945 ZM0.791,17.379 C0.534,17.379 0.324,17.170 0.324,16.914 L0.324,4.382 C0.324,3.842 0.535,3.334 0.919,2.951 C1.303,2.568 1.811,2.357 2.350,2.357 L2.594,2.357 L2.594,1.752 C2.594,1.419 2.724,1.106 2.960,0.870 C3.198,0.634 3.511,0.505 3.842,0.505 C4.173,0.505 4.486,0.634 4.724,0.870 C4.960,1.108 5.090,1.421 5.090,1.752 L5.090,2.357 L7.299,2.357 L7.299,1.752 C7.299,1.419 7.429,1.106 7.666,0.870 C7.902,0.634 8.215,0.505 8.547,0.505 C8.879,0.505 9.192,0.634 9.428,0.870 C9.665,1.107 9.795,1.420 9.795,1.752 L9.795,2.357 L12.004,2.357 L12.004,1.752 C12.004,1.421 12.134,1.108 12.370,0.871 C12.607,0.634 12.920,0.505 13.252,0.505 C13.583,0.505 13.896,0.634 14.133,0.870 C14.370,1.106 14.500,1.419 14.500,1.752 L14.500,2.357 L16.709,2.357 L16.709,1.761 C16.709,1.428 16.839,1.115 17.075,0.879 C17.311,0.643 17.624,0.513 17.957,0.513 C18.289,0.513 18.602,0.643 18.838,0.879 C19.075,1.116 19.205,1.429 19.205,1.761 L19.205,2.357 L19.448,2.357 C19.987,2.357 20.496,2.568 20.880,2.951 C21.264,3.334 21.475,3.842 21.475,4.382 L21.475,7.905 C21.475,8.162 21.265,8.371 21.008,8.371 C20.751,8.371 20.541,8.162 20.541,7.905 L20.541,7.057 L11.666,7.057 C11.409,7.057 11.199,6.849 11.199,6.592 C11.199,6.335 11.409,6.126 11.666,6.126 L20.541,6.126 L20.541,4.382 C20.541,4.091 20.428,3.817 20.221,3.611 C20.013,3.403 19.739,3.289 19.448,3.289 L19.205,3.289 L19.205,3.885 C19.205,4.216 19.075,4.529 18.838,4.766 C18.603,5.002 18.290,5.132 17.957,5.132 C17.623,5.132 17.310,5.002 17.075,4.766 C16.839,4.530 16.709,4.217 16.709,3.885 L16.709,3.289 L14.500,3.289 L14.500,3.876 C14.500,4.208 14.370,4.521 14.134,4.757 C13.896,4.993 13.583,5.123 13.252,5.123 C12.920,5.123 12.607,4.993 12.370,4.757 C12.133,4.520 12.004,4.207 12.004,3.876 L12.004,3.289 L9.795,3.289 L9.795,3.876 C9.795,4.207 9.665,4.520 9.428,4.757 C9.192,4.993 8.879,5.123 8.547,5.123 C8.215,5.123 7.902,4.993 7.665,4.757 C7.429,4.521 7.299,4.208 7.299,3.876 L7.299,3.289 L5.090,3.289 L5.090,3.876 C5.090,4.207 4.960,4.519 4.724,4.757 C4.486,4.993 4.173,5.123 3.842,5.123 C3.511,5.123 3.198,4.993 2.960,4.757 C2.724,4.519 2.594,4.207 2.594,3.876 L2.594,3.289 L2.350,3.289 C2.058,3.289 1.785,3.403 1.579,3.610 C1.371,3.818 1.256,4.092 1.256,4.382 L1.256,6.126 L10.133,6.126 C10.390,6.126 10.600,6.335 10.600,6.592 C10.600,6.849 10.390,7.058 10.133,7.058 L1.256,7.058 L1.256,16.914 C1.256,17.170 1.048,17.379 0.791,17.379 ZM17.957,1.446 C17.874,1.446 17.794,1.479 17.734,1.539 C17.674,1.599 17.641,1.678 17.641,1.761 L17.641,3.885 C17.641,3.968 17.674,4.047 17.734,4.107 C17.794,4.167 17.874,4.200 17.957,4.200 C18.040,4.200 18.119,4.167 18.179,4.107 C18.239,4.047 18.272,3.968 18.272,3.885 L18.272,1.761 C18.272,1.678 18.239,1.599 18.179,1.539 C18.119,1.479 18.040,1.446 17.957,1.446 ZM13.252,1.436 C13.168,1.436 13.089,1.469 13.029,1.529 C12.969,1.589 12.936,1.668 12.936,1.752 L12.936,3.876 C12.936,3.959 12.969,4.038 13.029,4.098 C13.089,4.158 13.168,4.191 13.252,4.191 C13.336,4.191 13.415,4.158 13.475,4.098 C13.535,4.038 13.568,3.959 13.568,3.876 L13.568,1.752 C13.568,1.668 13.535,1.589 13.475,1.529 C13.415,1.469 13.336,1.436 13.252,1.436 ZM8.548,1.436 C8.464,1.436 8.385,1.469 8.325,1.529 C8.265,1.589 8.232,1.668 8.232,1.752 L8.232,3.876 C8.232,3.959 8.265,4.038 8.325,4.098 C8.385,4.158 8.464,4.191 8.548,4.191 C8.630,4.191 8.709,4.158 8.769,4.098 C8.829,4.038 8.862,3.959 8.862,3.876 L8.862,1.752 C8.862,1.668 8.829,1.589 8.769,1.529 C8.709,1.469 8.630,1.436 8.548,1.436 ZM3.842,1.436 C3.758,1.436 3.679,1.469 3.619,1.529 C3.559,1.589 3.526,1.668 3.526,1.752 L3.526,3.876 C3.526,3.959 3.559,4.038 3.619,4.098 C3.679,4.158 3.758,4.191 3.842,4.191 C3.926,4.191 4.005,4.158 4.065,4.098 C4.125,4.038 4.158,3.959 4.158,3.876 L4.158,1.752 C4.158,1.668 4.125,1.589 4.065,1.529 C4.005,1.469 3.926,1.436 3.842,1.436 ZM14.901,13.161 C14.644,13.161 14.435,12.952 14.435,12.694 L14.435,8.702 C14.435,8.446 14.644,8.237 14.901,8.237 L18.896,8.237 C19.153,8.237 19.363,8.446 19.363,8.702 L19.363,12.694 C19.363,12.952 19.153,13.161 18.896,13.161 L14.901,13.161 ZM18.430,12.229 L18.430,9.169 L15.368,9.169 L15.368,12.229 L18.430,12.229 ZM8.902,13.161 C8.645,13.161 8.436,12.952 8.436,12.694 L8.436,8.702 C8.436,8.446 8.645,8.237 8.902,8.237 L12.896,8.237 C13.154,8.237 13.363,8.446 13.363,8.702 L13.363,12.694 C13.363,12.952 13.154,13.161 12.896,13.161 L8.902,13.161 ZM12.431,12.229 L12.431,9.169 L9.368,9.169 L9.368,12.229 L12.431,12.229 ZM2.902,13.161 C2.645,13.161 2.437,12.952 2.437,12.694 L2.437,8.702 C2.437,8.446 2.645,8.237 2.902,8.237 L6.898,8.237 C7.155,8.237 7.363,8.446 7.363,8.702 L7.363,12.694 C7.363,12.952 7.155,13.161 6.898,13.161 L2.902,13.161 ZM6.431,12.229 L6.431,9.169 L3.369,9.169 L3.369,12.229 L6.431,12.229 Z"/>
	</symbol>
</svg>