<svg 
 xmlns="http://www.w3.org/2000/svg"
 xmlns:xlink="http://www.w3.org/1999/xlink"
 width="26px" height="26px">
<path fill-rule="evenodd"  fill="currentColor"
 d="M19.559,18.649 C21.341,16.654 22.326,14.072 22.324,11.397 C22.324,5.374 17.424,0.480 11.410,0.480 C5.388,0.480 0.495,5.381 0.495,11.397 C0.495,17.412 5.395,22.313 11.410,22.313 C14.084,22.316 16.666,21.331 18.660,19.548 L24.414,25.302 C24.533,25.423 24.697,25.490 24.866,25.487 C25.035,25.486 25.197,25.421 25.319,25.302 C25.438,25.183 25.505,25.022 25.505,24.853 C25.505,24.684 25.438,24.523 25.319,24.404 L19.559,18.649 ZM1.763,11.397 C1.763,6.082 6.089,1.755 11.403,1.755 C16.717,1.755 21.043,6.082 21.043,11.397 C21.043,16.712 16.717,21.039 11.403,21.039 C6.089,21.039 1.763,16.712 1.763,11.397 Z"/>
</svg>