<svg>
	<symbol id="sertificate"  viewBox="0 0 66 57">
		<path fill-rule="evenodd" fill="currentColor" d="M16.175,30.278 C16.486,32.143 16.585,34.055 17.082,35.885 C17.200,36.318 17.337,36.751 17.526,37.159 C17.623,37.369 17.737,37.774 17.999,37.819 C18.494,37.906 19.060,36.845 19.172,36.474 C19.426,35.637 20.808,35.515 20.992,36.474 C21.195,37.525 21.740,37.789 22.729,37.789 C23.244,37.788 23.759,37.787 24.273,37.786 C25.875,37.784 27.477,37.780 29.079,37.775 C30.296,37.772 30.294,39.661 29.079,39.665 C27.211,39.670 25.342,39.674 23.474,39.677 C22.235,39.679 20.906,39.725 20.013,38.694 C19.680,39.062 19.288,39.365 18.859,39.538 C17.656,40.023 16.532,39.378 15.981,38.288 C15.765,37.860 15.588,37.422 15.440,36.974 C15.164,38.203 14.808,39.413 14.359,40.595 C13.931,41.722 12.107,41.231 12.539,40.093 C13.702,37.027 14.237,33.801 14.321,30.530 C14.348,29.502 15.995,29.197 16.175,30.278 ZM13.025,23.674 L35.723,23.674 C36.244,23.674 36.666,24.098 36.666,24.619 C36.666,25.141 36.244,25.564 35.723,25.564 L13.025,25.564 C11.805,25.564 11.805,23.674 13.025,23.674 ZM13.025,14.073 C11.805,14.073 11.805,12.183 13.025,12.183 L45.560,12.183 C46.780,12.183 46.780,14.073 45.560,14.073 L13.025,14.073 ZM53.919,18.874 C53.919,19.395 53.496,19.818 52.975,19.818 L13.025,19.818 C11.805,19.818 11.805,17.929 13.025,17.929 L52.975,17.929 C53.496,17.929 53.919,18.352 53.919,18.874 ZM63.012,50.895 L50.918,50.895 L50.918,55.171 C50.918,55.873 50.147,56.293 49.576,56.027 L47.268,54.953 L44.961,56.027 C44.201,56.232 43.753,55.947 43.619,55.171 L43.619,50.895 L2.988,50.895 C1.774,50.895 0.786,49.906 0.786,48.690 L0.786,15.169 C0.786,13.948 2.673,13.948 2.673,15.169 L2.673,48.690 C2.673,48.864 2.814,49.005 2.988,49.005 L43.619,49.005 L43.619,47.040 L5.590,47.040 C5.069,47.040 4.646,46.617 4.646,46.096 L4.646,5.221 C4.646,4.699 5.069,4.276 5.590,4.276 L60.410,4.276 C60.931,4.276 61.354,4.699 61.354,5.221 L61.354,31.165 C61.354,32.386 59.466,32.386 59.466,31.165 L59.466,6.166 L6.534,6.166 L6.534,45.151 L43.619,45.151 L43.619,40.959 C41.457,41.146 40.377,40.271 40.575,38.008 C40.649,37.166 40.569,36.936 39.923,36.397 C38.227,34.987 38.258,33.503 39.923,32.118 C40.569,31.579 40.649,31.349 40.575,30.507 C40.386,28.354 41.416,27.361 43.529,27.547 C44.369,27.622 44.596,27.542 45.132,26.895 C46.540,25.193 48.023,25.224 49.405,26.895 C49.940,27.542 50.168,27.622 51.008,27.547 C53.160,27.359 54.147,28.394 53.962,30.507 C53.888,31.349 53.968,31.579 54.614,32.118 C56.310,33.529 56.279,35.012 54.614,36.397 C53.968,36.936 53.888,37.166 53.962,38.007 C54.030,38.793 54.116,39.769 53.441,40.445 C52.766,41.122 51.792,41.036 51.008,40.967 C50.979,40.965 50.948,40.962 50.918,40.959 L50.918,45.151 L59.466,45.151 L59.466,36.203 C59.466,34.982 61.354,34.982 61.354,36.203 L61.354,46.096 C61.354,46.617 60.931,47.040 60.410,47.040 L50.918,47.040 L50.918,49.005 L63.012,49.005 C63.186,49.005 63.327,48.864 63.327,48.690 L63.327,2.626 C63.327,2.452 63.186,2.311 63.012,2.311 L2.988,2.311 C2.814,2.311 2.673,2.452 2.673,2.626 L2.673,10.384 C2.673,11.605 0.786,11.605 0.786,10.384 L0.786,2.626 C0.786,1.410 1.774,0.422 2.988,0.422 L63.012,0.422 C64.226,0.422 65.214,1.410 65.214,2.626 L65.214,48.690 C65.214,49.906 64.226,50.895 63.012,50.895 ZM45.507,53.690 L46.870,53.055 C47.123,52.937 47.414,52.937 47.666,53.055 L49.030,53.690 L49.030,42.058 C48.582,42.551 48.030,43.009 47.268,43.009 C46.507,43.009 45.954,42.551 45.507,42.058 L45.507,53.690 ZM51.173,39.085 C52.118,39.168 52.164,39.118 52.081,38.172 C51.954,36.722 52.288,35.876 53.407,34.944 C54.173,34.307 54.173,34.207 53.407,33.570 C52.288,32.638 51.954,31.793 52.081,30.342 C52.164,29.396 52.118,29.346 51.173,29.429 C49.724,29.557 48.880,29.221 47.951,28.099 C47.317,27.333 47.220,27.333 46.585,28.099 C45.657,29.221 44.812,29.558 43.363,29.429 C42.418,29.346 42.373,29.396 42.455,30.342 C42.582,31.793 42.249,32.639 41.129,33.570 C40.364,34.208 40.363,34.307 41.129,34.944 C42.249,35.876 42.582,36.722 42.455,38.173 C42.373,39.118 42.418,39.168 43.363,39.085 C43.990,38.989 44.609,39.033 45.220,39.220 C45.793,39.458 46.196,39.944 46.585,40.415 C46.769,40.637 47.103,41.042 47.268,41.114 C47.433,41.042 47.767,40.637 47.951,40.415 C48.340,39.944 48.743,39.458 49.316,39.220 C49.908,38.974 50.580,39.033 51.173,39.085 ZM47.268,37.947 C45.236,37.947 43.582,36.291 43.582,34.257 C43.582,32.223 45.236,30.568 47.268,30.568 C49.301,30.568 50.955,32.223 50.955,34.257 C50.955,36.291 49.301,37.947 47.268,37.947 ZM47.268,32.457 C46.276,32.457 45.470,33.265 45.470,34.257 C45.470,35.250 46.276,36.057 47.268,36.057 C48.260,36.057 49.067,35.249 49.067,34.257 C49.067,33.265 48.260,32.457 47.268,32.457 Z"/>
	</symbol>
</svg>