<svg>
	<symbol id="storage"  viewBox="0 0 64 61">
		<path fill-rule="evenodd"  fill="currentColor" d="M39.108,18.696 C39.617,18.696 40.029,19.108 40.029,19.617 C40.029,20.124 39.617,20.537 39.108,20.537 L34.343,20.537 C33.835,20.537 33.422,20.124 33.422,19.617 C33.422,19.108 33.835,18.696 34.343,18.696 L39.108,18.696 ZM29.656,18.696 C30.165,18.696 30.577,19.108 30.577,19.617 C30.577,20.124 30.165,20.537 29.656,20.537 L24.891,20.537 C24.383,20.537 23.971,20.124 23.971,19.617 C23.971,19.108 24.383,18.696 24.891,18.696 L29.656,18.696 ZM63.192,16.688 C62.720,17.834 61.615,18.574 60.376,18.574 C59.978,18.574 59.589,18.497 59.219,18.345 L56.472,17.214 L56.472,53.509 C56.472,54.856 55.376,55.952 54.029,55.952 L39.740,55.952 L39.740,59.901 C39.740,60.410 39.328,60.822 38.819,60.822 L1.498,60.822 C0.990,60.822 0.578,60.410 0.578,59.901 L0.578,38.866 C0.578,37.758 1.478,36.858 2.585,36.858 L8.802,36.858 C8.804,36.858 8.806,36.858 8.807,36.858 L15.421,36.858 C15.423,36.858 15.425,36.858 15.426,36.858 L17.440,36.858 L17.440,26.982 C17.440,25.443 18.692,24.190 20.231,24.190 L43.768,24.190 C45.307,24.190 46.559,25.443 46.559,26.982 L46.559,54.109 L54.029,54.109 C54.361,54.109 54.631,53.841 54.631,53.509 L54.631,16.456 L32.000,7.140 L9.369,16.456 L9.369,34.021 C9.369,34.529 8.956,34.941 8.448,34.941 C7.939,34.941 7.528,34.529 7.528,34.021 L7.528,17.214 L4.781,18.345 C3.216,18.989 1.444,18.234 0.808,16.688 C0.169,15.135 0.911,13.353 2.464,12.714 L20.003,5.493 C20.473,5.299 21.011,5.525 21.205,5.994 C21.398,6.465 21.174,7.003 20.704,7.197 L3.165,14.417 C2.551,14.669 2.257,15.374 2.510,15.987 C2.764,16.604 3.468,16.895 4.080,16.642 L31.649,5.293 C31.874,5.200 32.126,5.200 32.350,5.293 L59.919,16.642 C60.066,16.702 60.220,16.733 60.376,16.733 C60.866,16.733 61.303,16.440 61.489,15.987 C61.742,15.374 61.448,14.669 60.835,14.417 L32.457,2.735 C32.162,2.613 31.837,2.613 31.542,2.735 L24.179,5.766 C23.708,5.959 23.170,5.736 22.977,5.265 C22.783,4.795 23.008,4.256 23.478,4.063 L30.841,1.031 C31.588,0.724 32.411,0.724 33.158,1.031 L61.536,12.714 C63.088,13.353 63.831,15.135 63.192,16.688 ZM23.651,58.980 L37.898,58.980 L37.898,44.059 L34.201,44.059 L34.201,48.865 C34.201,49.256 33.984,49.606 33.635,49.781 C33.286,49.955 32.875,49.917 32.563,49.683 L32.028,49.280 L31.391,49.759 C31.209,49.895 30.993,49.964 30.775,49.964 C30.559,49.964 30.342,49.896 30.161,49.759 L29.522,49.279 L28.986,49.683 C28.673,49.917 28.263,49.955 27.914,49.780 C27.565,49.606 27.348,49.255 27.348,48.865 L27.348,44.059 L23.651,44.059 L23.651,58.980 ZM32.360,47.289 L32.360,44.059 L29.189,44.059 L29.189,47.289 C29.297,47.252 29.410,47.233 29.522,47.233 C29.739,47.233 29.956,47.302 30.137,47.438 L30.775,47.918 L31.413,47.438 C31.688,47.231 32.046,47.181 32.360,47.289 ZM14.501,38.699 L9.728,38.699 L9.728,43.762 L9.827,43.688 C10.014,43.548 10.237,43.478 10.461,43.478 C10.685,43.478 10.909,43.548 11.096,43.688 L12.115,44.454 L13.133,43.688 C13.507,43.407 14.029,43.407 14.403,43.688 L14.501,43.762 L14.501,38.699 ZM18.361,38.699 L18.337,38.699 L16.342,38.699 L16.342,45.337 C16.342,45.740 16.119,46.101 15.758,46.281 C15.397,46.461 14.974,46.423 14.652,46.180 L13.769,45.515 L12.750,46.282 C12.563,46.423 12.339,46.493 12.116,46.493 C11.892,46.493 11.668,46.423 11.481,46.283 L10.461,45.515 L9.577,46.180 C9.255,46.423 8.831,46.461 8.471,46.281 C8.111,46.101 7.887,45.740 7.887,45.337 L7.887,38.699 L2.585,38.699 C2.493,38.699 2.419,38.774 2.419,38.866 L2.419,58.980 L21.811,58.980 L21.811,38.866 C21.811,38.774 21.736,38.699 21.644,38.699 L18.385,38.699 L18.361,38.699 ZM44.718,26.982 C44.718,26.458 44.292,26.031 43.768,26.031 L20.231,26.031 C19.708,26.031 19.281,26.458 19.281,26.982 L19.281,28.195 L44.718,28.195 L44.718,26.982 ZM44.718,30.036 L19.281,30.036 L19.281,32.526 L44.718,32.526 L44.718,30.036 ZM44.718,34.367 L19.281,34.367 L19.281,36.858 L21.644,36.858 C22.751,36.858 23.651,37.758 23.651,38.866 L23.651,42.217 L28.264,42.217 C28.266,42.217 28.267,42.217 28.269,42.217 L33.281,42.217 C33.282,42.217 33.284,42.217 33.285,42.217 L37.995,42.217 C38.957,42.217 39.740,43.000 39.740,43.961 L39.740,54.109 L44.718,54.109 L44.718,34.367 ZM16.411,55.797 L7.818,55.797 C7.309,55.797 6.897,55.384 6.897,54.876 C6.897,54.367 7.309,53.955 7.818,53.955 L16.411,53.955 C16.920,53.955 17.332,54.367 17.332,54.876 C17.332,55.384 16.920,55.797 16.411,55.797 ZM16.411,51.929 L7.818,51.929 C7.309,51.929 6.897,51.517 6.897,51.009 C6.897,50.500 7.309,50.088 7.818,50.088 L16.411,50.088 C16.920,50.088 17.332,50.500 17.332,51.009 C17.332,51.517 16.920,51.929 16.411,51.929 ZM33.657,52.088 C34.165,52.088 34.578,52.501 34.578,53.009 C34.578,53.518 34.165,53.929 33.657,53.929 L27.893,53.929 C27.384,53.929 26.972,53.518 26.972,53.009 C26.972,52.501 27.384,52.088 27.893,52.088 L33.657,52.088 ZM27.893,54.683 L33.657,54.683 C34.165,54.683 34.578,55.094 34.578,55.603 C34.578,56.111 34.165,56.524 33.657,56.524 L27.893,56.524 C27.384,56.524 26.972,56.111 26.972,55.603 C26.972,55.094 27.384,54.683 27.893,54.683 Z"/>
	</symbol>
</svg>