<svg 
 xmlns="http://www.w3.org/2000/svg"
 xmlns:xlink="http://www.w3.org/1999/xlink"
 width="23px" height="23px">
<path fill-rule="evenodd"  fill="currentColor"
 d="M21.949,0.154 L1.355,6.884 C0.773,7.074 0.689,7.865 1.218,8.173 L9.001,12.698 C9.246,12.841 9.553,12.824 9.781,12.654 L11.969,11.030 L10.344,13.217 C10.175,13.445 10.158,13.752 10.301,13.998 L14.826,21.780 C15.134,22.310 15.925,22.226 16.115,21.644 L22.845,1.050 C23.025,0.497 22.499,-0.026 21.949,0.154 L21.949,0.154 ZM15.257,19.696 L11.764,13.688 L15.976,8.016 C16.186,7.733 16.157,7.340 15.908,7.090 C15.659,6.841 15.265,6.813 14.983,7.022 L9.310,11.235 L3.302,7.741 L21.060,1.939 L15.257,19.696 ZM8.322,15.681 L3.607,20.396 C3.329,20.674 2.879,20.674 2.602,20.396 C2.325,20.119 2.325,19.670 2.602,19.392 L7.317,14.677 C7.595,14.399 8.045,14.399 8.322,14.677 C8.599,14.954 8.599,15.404 8.322,15.681 ZM2.092,15.860 C1.815,15.582 1.815,15.133 2.092,14.856 L3.953,12.995 C4.230,12.717 4.680,12.717 4.957,12.995 C5.235,13.272 5.235,13.722 4.957,13.999 L3.097,15.860 C2.819,16.137 2.370,16.137 2.092,15.860 ZM10.004,18.041 C10.281,18.318 10.281,18.768 10.004,19.045 L8.143,20.906 C8.005,21.045 7.823,21.114 7.641,21.114 C7.014,21.114 6.690,20.350 7.139,19.902 L9.000,18.041 C9.277,17.764 9.727,17.764 10.004,18.041 L10.004,18.041 Z"/>
</svg>