<svg 
 xmlns="http://www.w3.org/2000/svg"
 xmlns:xlink="http://www.w3.org/1999/xlink"
 width="66px" height="65px">
<path fill-rule="evenodd"  fill="currentColor"
 d="M47.287,6.599 C46.761,6.599 46.333,6.173 46.333,5.647 C46.333,5.120 46.761,4.693 47.287,4.693 L48.302,4.693 C48.829,4.693 49.256,5.120 49.256,5.647 C49.256,6.173 48.829,6.599 48.302,6.599 L47.287,6.599 ZM60.339,6.599 L52.015,6.599 C51.488,6.599 51.061,6.173 51.061,5.647 C51.061,5.120 51.488,4.693 52.015,4.693 L60.339,4.693 C60.866,4.693 61.293,5.120 61.293,5.647 C61.293,6.173 60.866,6.599 60.339,6.599 ZM60.339,11.078 L47.287,11.078 C46.761,11.078 46.333,10.652 46.333,10.125 C46.333,9.598 46.761,9.171 47.287,9.171 L60.339,9.171 C60.866,9.171 61.294,9.598 61.294,10.125 C61.294,10.652 60.866,11.078 60.339,11.078 ZM64.611,9.072 C65.138,9.072 65.565,9.499 65.565,10.026 L65.565,11.743 C65.565,13.798 63.893,15.469 61.837,15.469 L53.622,15.469 C53.389,15.469 53.170,15.593 53.050,15.792 L49.383,21.904 C49.016,22.514 48.306,22.803 47.611,22.611 C46.921,22.420 46.457,21.810 46.457,21.094 L46.457,16.135 C46.457,15.768 46.158,15.469 45.790,15.469 C43.734,15.469 42.062,13.798 42.062,11.743 L42.062,3.723 C42.062,1.669 43.734,-0.003 45.790,-0.003 L61.836,-0.003 C63.892,-0.003 65.565,1.669 65.565,3.723 L65.565,5.569 C65.565,6.095 65.138,6.522 64.611,6.522 C64.084,6.522 63.657,6.095 63.657,5.569 L63.657,3.723 C63.657,2.720 62.840,1.904 61.836,1.904 L45.790,1.904 C44.786,1.904 43.969,2.720 43.969,3.723 L43.969,11.743 C43.969,12.746 44.786,13.562 45.790,13.562 C47.210,13.562 48.364,14.716 48.364,16.135 L48.364,19.893 L51.414,14.812 C51.876,14.041 52.722,13.562 53.622,13.562 L61.837,13.562 C62.840,13.562 63.657,12.746 63.657,11.743 L63.657,10.026 C63.657,9.499 64.084,9.072 64.611,9.072 ZM37.670,30.695 L35.824,30.695 C34.989,32.115 33.852,33.308 32.233,34.354 L32.233,37.017 C32.233,37.611 32.524,38.163 33.005,38.502 L43.448,38.502 C45.686,38.502 47.446,40.377 47.325,42.592 L47.148,45.847 C49.466,48.865 50.738,52.601 50.738,56.410 L50.738,60.001 C51.213,60.532 51.501,61.231 51.501,61.998 C51.501,63.654 50.153,65.001 48.496,65.001 L3.440,65.001 C1.783,65.001 0.434,63.654 0.434,61.998 C0.434,61.231 0.723,60.532 1.198,60.001 L1.198,56.410 C1.198,52.601 2.470,48.865 4.788,45.847 L4.611,42.592 C4.490,40.359 6.267,38.502 8.488,38.502 L18.928,38.502 C19.410,38.161 19.703,37.609 19.703,37.017 L19.703,34.343 C19.209,34.023 18.728,33.664 18.263,33.263 C16.282,31.552 15.017,29.091 14.698,26.397 L13.467,26.397 C11.771,26.397 10.392,25.019 10.392,23.325 L10.392,19.704 C10.392,18.503 11.087,17.441 12.127,16.939 L12.127,12.662 C12.127,7.651 16.207,3.573 21.223,3.573 L31.327,3.573 C33.603,3.573 35.455,5.423 35.455,7.699 C35.455,7.764 35.508,7.817 35.573,7.817 L35.680,7.817 C37.957,7.817 39.809,9.667 39.809,11.942 L39.809,16.939 C40.848,17.441 41.544,18.503 41.544,19.704 L41.544,26.824 C41.544,28.958 39.806,30.695 37.670,30.695 ZM33.168,30.284 C33.554,30.284 33.868,29.970 33.868,29.585 C33.868,29.199 33.554,28.886 33.168,28.886 L30.774,28.886 C30.388,28.886 30.074,29.199 30.074,29.585 C30.074,29.970 30.388,30.284 30.774,30.284 L33.168,30.284 ZM48.830,56.410 C48.830,53.847 48.180,51.322 46.973,49.080 L46.434,58.995 L48.496,58.995 C48.609,58.995 48.720,59.002 48.830,59.013 L48.830,56.410 ZM2.343,61.998 C2.343,62.603 2.835,63.095 3.440,63.095 L48.496,63.095 C49.101,63.095 49.593,62.603 49.593,61.998 C49.593,61.394 49.101,60.901 48.496,60.901 L3.440,60.901 C2.835,60.901 2.343,61.394 2.343,61.998 ZM26.776,53.469 L25.161,53.469 C23.910,53.469 22.893,52.453 22.893,51.202 L22.893,47.736 C20.743,49.494 20.496,52.680 22.340,54.741 L22.363,54.767 C23.436,55.957 24.106,57.432 24.301,58.995 L27.635,58.995 C27.830,57.432 28.500,55.957 29.574,54.766 L29.594,54.744 C31.452,52.666 31.179,49.482 29.044,47.736 L29.044,51.202 C29.044,52.453 28.026,53.469 26.776,53.469 ZM8.488,40.409 C7.350,40.409 6.455,41.362 6.516,42.489 L7.019,51.751 C7.048,52.277 6.644,52.727 6.118,52.755 C5.593,52.785 5.143,52.381 5.114,51.854 L4.963,49.080 C3.756,51.322 3.106,53.847 3.106,56.410 L3.106,59.013 C3.216,59.002 3.327,58.995 3.440,58.995 L5.502,58.995 L5.354,56.280 C5.326,55.754 5.729,55.305 6.255,55.276 C6.782,55.246 7.231,55.650 7.260,56.176 L7.413,58.995 L22.373,58.995 C22.191,57.906 21.700,56.882 20.944,56.042 L20.920,56.015 C18.036,52.791 18.883,47.741 22.626,45.615 C23.586,45.070 24.801,45.752 24.801,46.877 L24.801,51.203 C24.801,51.401 24.962,51.562 25.161,51.562 L26.775,51.562 C26.974,51.562 27.135,51.401 27.135,51.203 L27.135,46.877 C27.135,45.750 28.352,45.072 29.310,45.615 C33.043,47.735 33.907,52.783 31.019,56.012 L30.992,56.042 C30.236,56.882 29.745,57.906 29.563,58.995 L44.523,58.995 L45.420,42.489 C45.481,41.353 44.578,40.409 43.448,40.409 L8.488,40.409 ZM21.301,38.502 L30.635,38.502 C30.434,38.041 30.325,37.537 30.325,37.017 L30.325,35.356 C28.982,35.909 27.550,36.202 26.037,36.226 C26.032,36.226 26.027,36.226 26.022,36.226 L26.015,36.226 C24.462,36.215 22.991,35.920 21.612,35.349 L21.612,37.017 C21.612,37.537 21.502,38.041 21.301,38.502 ZM16.527,25.296 C16.665,30.725 21.201,34.280 26.018,34.319 C28.220,34.282 30.224,33.565 31.986,32.191 L30.774,32.191 C29.336,32.191 28.166,31.022 28.166,29.585 C28.166,28.148 29.336,26.978 30.774,26.978 L33.168,26.978 C33.898,26.978 34.559,27.281 35.033,27.767 C35.263,27.002 35.399,26.198 35.426,25.373 L35.426,21.494 C34.227,21.599 33.216,20.652 33.218,19.470 L33.221,15.679 C33.228,14.031 31.728,12.774 29.504,13.488 C27.299,14.196 24.644,14.198 22.432,13.488 C20.098,12.738 18.708,14.128 18.715,15.676 L18.719,19.470 C18.721,20.581 17.821,21.503 16.686,21.503 C16.627,21.503 16.569,21.500 16.510,21.494 C16.515,22.713 16.496,24.043 16.527,25.296 ZM12.398,19.238 C12.336,19.382 12.300,19.539 12.300,19.704 L12.300,23.325 C12.300,23.968 12.824,24.491 13.467,24.491 L14.602,24.491 L14.602,20.897 L14.014,20.692 C13.286,20.438 12.714,19.905 12.398,19.238 ZM37.901,11.943 C37.901,10.719 36.905,9.724 35.681,9.724 L35.574,9.724 C34.457,9.724 33.547,8.815 33.547,7.699 C33.547,6.475 32.551,5.480 31.327,5.480 L21.223,5.480 C17.260,5.480 14.035,8.702 14.035,12.663 L14.035,12.663 L14.035,18.039 C14.035,18.423 14.279,18.765 14.641,18.891 L16.647,19.589 C16.726,19.618 16.811,19.560 16.811,19.473 L16.806,15.681 C16.795,12.888 19.423,10.519 23.016,11.673 C24.835,12.257 27.095,12.259 28.920,11.673 C32.550,10.507 35.141,12.919 35.130,15.684 L35.126,19.473 C35.126,19.559 35.209,19.617 35.290,19.589 L37.295,18.892 C37.657,18.765 37.901,18.423 37.901,18.039 L37.901,11.943 ZM39.636,19.704 C39.636,19.539 39.601,19.382 39.538,19.238 C39.222,19.905 38.650,20.438 37.923,20.692 L37.335,20.897 L37.335,24.491 L38.469,24.491 C39.113,24.491 39.636,23.968 39.636,23.325 L39.636,19.704 ZM39.636,26.167 C39.276,26.315 38.882,26.397 38.469,26.397 L37.258,26.397 C37.160,27.221 36.975,28.023 36.706,28.788 L37.670,28.788 C38.754,28.788 39.636,27.907 39.636,26.824 L39.636,26.167 Z"/>
</svg>