<svg 
 xmlns="http://www.w3.org/2000/svg"
 xmlns:xlink="http://www.w3.org/1999/xlink"
 width="20px" height="17px">
<path fill-rule="evenodd"  fill="currentColor"
 d="M19.427,0.932 C19.195,0.649 18.849,0.494 18.451,0.494 C18.234,0.494 18.005,0.539 17.770,0.629 L1.740,6.744 C0.889,7.068 0.774,7.555 0.782,7.817 C0.789,8.078 0.931,8.558 1.799,8.834 C1.804,8.835 1.809,8.837 1.814,8.839 L5.140,9.789 L6.938,14.928 C7.183,15.629 7.733,16.064 8.374,16.064 C8.778,16.064 9.176,15.895 9.524,15.575 L11.580,13.682 L14.564,16.083 C14.564,16.083 14.564,16.083 14.564,16.083 L14.593,16.106 C14.595,16.108 14.598,16.110 14.601,16.112 C14.932,16.369 15.294,16.505 15.648,16.505 L15.648,16.505 C16.339,16.505 16.889,15.994 17.049,15.204 L19.676,2.243 C19.781,1.722 19.693,1.257 19.427,0.932 ZM6.252,9.609 L12.667,6.334 L8.673,10.575 C8.607,10.645 8.561,10.730 8.538,10.822 L7.768,13.940 L6.252,9.609 ZM8.772,14.758 C8.745,14.783 8.719,14.805 8.692,14.825 L9.407,11.933 L10.706,12.979 L8.772,14.758 ZM18.588,2.023 L15.961,14.983 C15.936,15.107 15.856,15.396 15.648,15.396 C15.545,15.396 15.416,15.341 15.285,15.239 L11.904,12.519 C11.904,12.519 11.903,12.518 11.903,12.518 L9.891,10.899 L15.668,4.765 C15.853,4.569 15.869,4.268 15.707,4.052 C15.545,3.837 15.252,3.768 15.011,3.891 L5.511,8.742 L2.140,7.779 L18.166,1.665 C18.301,1.613 18.396,1.603 18.451,1.603 C18.485,1.603 18.545,1.606 18.568,1.634 C18.597,1.670 18.635,1.793 18.588,2.023 Z"/>
</svg>