<svg>
	<symbol id="time"  viewBox="0 0 19 20">
		<path fill-rule="evenodd"  fill="currentColor" d="M9.617,14.532 C9.185,14.533 8.835,14.185 8.834,13.754 C8.833,13.323 9.181,12.971 9.612,12.970 C10.043,12.968 10.393,13.316 10.394,13.748 C10.396,14.178 10.046,14.531 9.617,14.532 ZM9.584,17.268 C9.158,17.254 8.820,16.887 8.835,16.456 C8.849,16.028 9.214,15.690 9.645,15.706 C10.072,15.721 10.411,16.087 10.395,16.516 C10.379,16.943 10.013,17.282 9.584,17.268 ZM17.792,1.559 C17.481,1.566 17.170,1.560 16.835,1.560 C16.835,1.701 16.834,1.829 16.835,1.957 C16.845,2.765 16.844,3.571 16.657,4.365 C16.135,6.579 14.804,8.151 12.823,9.205 C12.606,9.321 12.374,9.411 12.158,9.529 C12.089,9.567 12.014,9.647 11.999,9.719 C11.966,9.870 11.959,10.029 11.964,10.184 C11.971,10.383 12.054,10.517 12.256,10.617 C13.555,11.255 14.669,12.123 15.517,13.310 C15.732,13.611 15.733,13.982 15.528,14.257 C15.324,14.530 14.952,14.655 14.641,14.518 C14.493,14.454 14.346,14.341 14.251,14.212 C13.543,13.253 12.642,12.525 11.572,12.024 C10.810,11.667 10.470,11.071 10.404,10.275 C10.368,9.850 10.412,9.430 10.575,9.029 C10.747,8.606 11.034,8.299 11.461,8.119 C12.648,7.618 13.665,6.898 14.380,5.801 C14.952,4.923 15.238,3.954 15.270,2.910 C15.284,2.469 15.272,2.027 15.272,1.572 C11.499,1.572 7.737,1.572 3.965,1.572 C3.965,2.084 3.965,2.589 3.965,3.124 C4.043,3.124 4.111,3.124 4.180,3.124 C7.022,3.124 9.865,3.123 12.708,3.124 C12.830,3.124 12.957,3.127 13.074,3.158 C13.459,3.260 13.687,3.621 13.635,4.025 C13.589,4.384 13.273,4.676 12.898,4.684 C12.450,4.693 12.001,4.688 11.552,4.688 C9.216,4.688 6.881,4.688 4.546,4.688 C4.476,4.688 4.406,4.688 4.314,4.688 C4.502,5.217 4.772,5.672 5.103,6.092 C5.764,6.932 6.603,7.547 7.556,8.012 C8.545,8.494 8.957,9.251 8.820,10.356 C8.757,10.860 8.609,11.329 8.212,11.670 C8.038,11.819 7.823,11.927 7.616,12.033 C6.260,12.727 5.159,13.684 4.481,15.076 C4.129,15.800 3.943,16.565 3.954,17.375 C3.959,17.720 3.955,18.065 3.955,18.425 C7.724,18.425 11.486,18.425 15.274,18.425 C15.274,18.038 15.268,17.649 15.276,17.261 C15.283,16.932 15.441,16.689 15.743,16.555 C16.047,16.421 16.330,16.476 16.578,16.691 C16.755,16.844 16.835,17.046 16.835,17.280 C16.835,17.657 16.835,18.034 16.835,18.441 C17.160,18.441 17.476,18.432 17.791,18.443 C18.110,18.453 18.350,18.608 18.482,18.902 C18.613,19.197 18.578,19.487 18.361,19.720 C18.247,19.843 18.074,19.910 17.928,20.003 C12.360,20.003 6.791,20.003 1.223,20.003 C0.993,19.916 0.790,19.798 0.677,19.564 C0.430,19.051 0.784,18.458 1.357,18.441 C1.698,18.431 2.040,18.439 2.393,18.439 C2.393,18.057 2.394,17.700 2.392,17.343 C2.387,16.439 2.568,15.572 2.920,14.742 C3.726,12.845 5.133,11.530 6.952,10.629 C7.175,10.518 7.264,10.374 7.268,10.151 C7.270,10.022 7.252,9.892 7.242,9.763 C7.232,9.624 7.148,9.555 7.028,9.491 C6.594,9.257 6.151,9.035 5.741,8.763 C4.124,7.688 3.016,6.241 2.566,4.324 C2.383,3.543 2.386,2.749 2.393,1.956 C2.395,1.828 2.394,1.700 2.394,1.559 C2.032,1.559 1.695,1.565 1.358,1.557 C0.979,1.548 0.677,1.282 0.608,0.911 C0.544,0.560 0.741,0.203 1.081,0.057 C1.128,0.037 1.175,0.017 1.223,-0.003 C6.791,-0.003 12.360,-0.003 17.928,-0.003 C17.975,0.017 18.023,0.037 18.070,0.057 C18.410,0.203 18.608,0.562 18.543,0.912 C18.474,1.281 18.169,1.550 17.792,1.559 Z"/>
	</simbol>
</svg>