<svg>
	<symbol id="timing"  viewBox="0 0 26 30">
		<path fill-rule="evenodd" fill="currentColor" d="M7.314,21.481 L6.472,21.966 C6.381,22.018 6.278,22.046 6.174,22.046 C5.961,22.046 5.762,21.930 5.655,21.745 C5.491,21.459 5.590,21.092 5.876,20.927 L6.718,20.443 C6.809,20.391 6.912,20.364 7.016,20.364 C7.230,20.364 7.429,20.478 7.535,20.664 C7.699,20.950 7.600,21.317 7.314,21.481 ZM6.698,17.522 C6.698,17.853 6.429,18.120 6.100,18.120 L5.128,18.120 C4.798,18.120 4.530,17.853 4.530,17.522 C4.530,17.192 4.798,16.923 5.128,16.923 L6.100,16.923 C6.429,16.923 6.698,17.192 6.698,17.522 ZM6.174,12.999 C6.278,12.999 6.381,13.026 6.472,13.079 L7.314,13.563 C7.600,13.727 7.699,14.094 7.535,14.381 C7.429,14.566 7.230,14.681 7.016,14.681 C6.912,14.681 6.809,14.653 6.718,14.601 L5.876,14.117 C5.737,14.037 5.638,13.908 5.596,13.754 C5.555,13.600 5.576,13.438 5.655,13.300 C5.762,13.114 5.961,12.999 6.174,12.999 ZM13.598,24.428 L13.598,25.402 C13.598,25.731 13.329,26.000 13.000,26.000 C12.670,26.000 12.402,25.731 12.402,25.402 L12.402,24.428 C12.402,24.099 12.670,23.830 13.000,23.830 C13.329,23.830 13.598,24.099 13.598,24.428 ZM9.563,22.912 C9.667,22.912 9.770,22.939 9.861,22.991 C10.147,23.156 10.246,23.523 10.081,23.809 L9.598,24.652 C9.491,24.838 9.292,24.953 9.078,24.953 C8.974,24.953 8.871,24.926 8.781,24.873 C8.495,24.709 8.396,24.342 8.560,24.056 L9.044,23.213 C9.150,23.027 9.349,22.912 9.563,22.912 ZM8.781,10.171 C8.872,10.119 8.974,10.092 9.079,10.092 C9.292,10.092 9.491,10.206 9.598,10.392 L10.081,11.235 C10.246,11.521 10.147,11.888 9.861,12.052 C9.770,12.105 9.667,12.132 9.563,12.132 C9.349,12.132 9.150,12.017 9.044,11.831 L8.560,10.989 C8.396,10.702 8.495,10.335 8.781,10.171 ZM13.000,11.214 C12.670,11.214 12.402,10.945 12.402,10.615 L12.402,9.643 C12.402,9.313 12.670,9.045 13.000,9.045 C13.329,9.045 13.598,9.313 13.598,9.643 L13.598,10.615 C13.598,10.945 13.329,11.214 13.000,11.214 ZM13.598,15.682 C14.390,15.939 14.934,16.679 14.934,17.522 C14.933,18.589 14.066,19.458 13.000,19.458 C12.157,19.458 11.418,18.914 11.161,18.120 L9.563,18.120 C9.233,18.120 8.965,17.853 8.965,17.522 C8.965,17.192 9.233,16.923 9.563,16.923 L11.161,16.923 C11.352,16.335 11.813,15.873 12.402,15.682 L12.402,12.386 C12.402,12.057 12.670,11.788 13.000,11.788 C13.329,11.788 13.598,12.057 13.598,12.386 L13.598,15.682 ZM13.000,16.785 C12.593,16.785 12.262,17.115 12.262,17.522 C12.262,17.929 12.593,18.260 13.000,18.260 C13.406,18.260 13.737,17.929 13.737,17.522 C13.737,17.115 13.406,16.785 13.000,16.785 ZM16.436,22.912 C16.650,22.912 16.849,23.027 16.955,23.213 L17.439,24.056 C17.603,24.342 17.504,24.709 17.218,24.873 C17.128,24.926 17.025,24.953 16.921,24.953 C16.707,24.953 16.508,24.838 16.402,24.652 L15.918,23.809 C15.754,23.523 15.853,23.156 16.139,22.991 C16.229,22.939 16.332,22.912 16.436,22.912 ZM16.402,10.392 C16.508,10.206 16.707,10.092 16.921,10.092 C17.025,10.092 17.128,10.119 17.218,10.170 C17.504,10.335 17.603,10.702 17.439,10.989 L16.955,11.831 C16.849,12.017 16.650,12.132 16.436,12.132 C16.332,12.132 16.229,12.105 16.139,12.052 C15.853,11.888 15.754,11.521 15.918,11.235 L16.402,10.392 ZM19.826,10.531 C19.991,10.531 20.150,10.601 20.263,10.721 C21.993,12.571 22.945,14.987 22.945,17.522 C22.945,23.011 18.484,27.478 13.000,27.478 C7.515,27.478 3.054,23.011 3.054,17.522 C3.054,12.032 7.515,7.567 13.000,7.567 C15.062,7.567 17.041,8.194 18.722,9.379 C18.852,9.471 18.939,9.609 18.967,9.766 C18.994,9.924 18.958,10.082 18.866,10.213 C18.754,10.372 18.571,10.467 18.377,10.467 C18.253,10.467 18.134,10.429 18.033,10.358 C16.555,9.316 14.814,8.764 13.000,8.764 C8.175,8.764 4.250,12.693 4.250,17.522 C4.250,22.351 8.175,26.280 13.000,26.280 C17.824,26.280 21.749,22.351 21.749,17.522 C21.749,15.292 20.911,13.167 19.389,11.539 C19.280,11.423 19.223,11.270 19.228,11.110 C19.233,10.950 19.300,10.803 19.417,10.693 C19.528,10.588 19.673,10.531 19.826,10.531 ZM18.685,13.563 L19.527,13.079 C19.618,13.026 19.721,12.999 19.825,12.999 C20.039,12.999 20.238,13.114 20.344,13.300 C20.508,13.586 20.409,13.952 20.123,14.117 L19.281,14.601 C19.190,14.653 19.087,14.681 18.983,14.681 C18.770,14.681 18.571,14.566 18.464,14.381 C18.300,14.094 18.399,13.727 18.685,13.563 ZM19.302,17.522 C19.302,17.192 19.570,16.923 19.900,16.923 L20.871,16.923 C21.201,16.923 21.470,17.192 21.470,17.522 C21.470,17.853 21.201,18.120 20.871,18.120 L19.900,18.120 C19.570,18.120 19.302,17.853 19.302,17.522 ZM19.825,22.046 C19.721,22.046 19.618,22.018 19.527,21.966 L18.685,21.481 C18.399,21.317 18.300,20.950 18.464,20.664 C18.571,20.478 18.770,20.364 18.983,20.364 C19.087,20.364 19.190,20.391 19.281,20.443 L20.123,20.927 C20.409,21.092 20.508,21.459 20.344,21.745 C20.238,21.930 20.039,22.046 19.825,22.046 ZM25.019,8.327 C24.797,8.437 24.550,8.495 24.304,8.495 C23.958,8.495 23.626,8.385 23.345,8.177 C23.287,8.133 23.230,8.085 23.178,8.032 L22.323,9.255 C24.348,11.540 25.461,14.471 25.461,17.522 C25.461,24.400 19.871,29.995 13.000,29.995 C9.975,29.995 7.059,28.898 4.788,26.905 C4.668,26.799 4.596,26.653 4.585,26.493 C4.575,26.333 4.627,26.180 4.732,26.059 C4.846,25.930 5.010,25.855 5.182,25.855 C5.328,25.855 5.467,25.908 5.577,26.004 C7.630,27.806 10.266,28.797 13.000,28.797 C16.004,28.797 18.831,27.623 20.962,25.492 C23.092,23.359 24.265,20.529 24.265,17.522 C24.265,11.305 19.211,6.246 13.000,6.246 C6.788,6.246 1.734,11.305 1.734,17.522 C1.734,20.135 2.648,22.683 4.307,24.694 C4.517,24.949 4.480,25.327 4.226,25.537 C4.119,25.625 3.984,25.674 3.845,25.674 C3.666,25.674 3.498,25.595 3.384,25.457 C1.549,23.231 0.538,20.413 0.538,17.522 C0.538,14.471 1.651,11.540 3.676,9.255 L2.821,8.032 C2.769,8.085 2.713,8.133 2.654,8.177 C2.373,8.385 2.042,8.495 1.695,8.495 C1.449,8.495 1.202,8.437 0.980,8.327 C0.595,8.137 0.307,7.807 0.169,7.398 C0.030,6.990 0.059,6.553 0.249,6.167 C1.181,4.278 2.977,2.946 5.054,2.603 C5.141,2.589 5.230,2.582 5.317,2.582 C6.109,2.582 6.777,3.149 6.906,3.932 C7.010,4.562 6.722,5.200 6.196,5.545 L6.948,6.621 C8.104,5.975 9.346,5.522 10.643,5.273 L10.643,3.612 L10.111,3.612 C9.621,3.612 9.223,3.213 9.223,2.724 L9.223,0.892 C9.223,0.402 9.621,0.004 10.111,0.004 L11.542,0.004 C11.872,0.004 12.141,0.272 12.141,0.602 C12.141,0.932 11.872,1.201 11.542,1.201 L10.420,1.201 L10.420,2.414 L15.580,2.414 L15.580,1.201 L13.434,1.201 C13.105,1.201 12.836,0.932 12.836,0.602 C12.836,0.272 13.105,0.004 13.434,0.004 L15.888,0.004 C16.378,0.004 16.776,0.402 16.776,0.892 L16.776,2.724 C16.776,3.213 16.378,3.612 15.888,3.612 L15.356,3.612 L15.356,5.273 C16.653,5.522 17.895,5.976 19.051,6.621 L19.804,5.545 C19.278,5.200 18.989,4.562 19.093,3.932 C19.222,3.149 19.890,2.582 20.683,2.582 C20.770,2.582 20.858,2.589 20.945,2.603 C23.022,2.946 24.818,4.278 25.750,6.168 C26.143,6.964 25.815,7.934 25.019,8.327 ZM5.317,3.779 C5.294,3.779 5.271,3.782 5.249,3.785 C3.552,4.064 2.084,5.154 1.322,6.698 C1.273,6.796 1.266,6.909 1.301,7.014 C1.337,7.119 1.411,7.205 1.510,7.254 C1.568,7.282 1.630,7.297 1.694,7.297 C1.784,7.297 1.869,7.269 1.942,7.214 C1.994,7.176 2.036,7.125 2.066,7.065 C2.709,5.761 3.949,4.841 5.384,4.604 C5.609,4.567 5.763,4.353 5.726,4.127 C5.692,3.926 5.520,3.779 5.317,3.779 ZM5.008,5.935 C4.430,6.140 3.926,6.496 3.540,6.972 L4.527,8.383 C4.967,7.975 5.438,7.597 5.931,7.255 L5.008,5.935 ZM14.160,3.612 L11.839,3.612 L11.839,5.103 C12.227,5.067 12.616,5.049 13.000,5.049 C13.383,5.049 13.773,5.067 14.160,5.103 L14.160,3.612 ZM21.472,8.383 L22.459,6.972 C22.073,6.496 21.570,6.140 20.992,5.935 L20.068,7.255 C20.561,7.597 21.032,7.975 21.472,8.383 ZM24.677,6.698 C23.916,5.154 22.448,4.064 20.750,3.785 C20.728,3.782 20.705,3.779 20.682,3.779 C20.482,3.779 20.306,3.929 20.274,4.127 C20.237,4.353 20.390,4.567 20.616,4.604 C22.050,4.841 23.290,5.761 23.933,7.065 C23.963,7.125 24.005,7.176 24.058,7.215 C24.130,7.269 24.216,7.297 24.305,7.297 C24.369,7.297 24.431,7.282 24.489,7.254 C24.694,7.152 24.779,6.902 24.677,6.698 Z"/>
	</symbol>
</svg>