<svg>
	<symbol id="total"  viewBox="0 0 35 40">
		<path fill-rule="evenodd"  fill="currentColor" d="M1.755,27.214 C1.960,27.214 2.161,27.298 2.306,27.443 C2.451,27.588 2.534,27.789 2.534,27.994 C2.534,28.199 2.451,28.400 2.306,28.545 C2.161,28.690 1.960,28.774 1.755,28.774 C1.549,28.774 1.348,28.690 1.204,28.545 C1.059,28.400 0.975,28.199 0.975,27.994 C0.975,27.789 1.059,27.588 1.204,27.443 C1.348,27.298 1.550,27.214 1.755,27.214 ZM30.127,40.001 L4.873,40.001 C2.724,40.001 0.975,38.253 0.975,36.103 L0.975,31.497 C0.975,31.066 1.324,30.717 1.755,30.717 C2.185,30.717 2.534,31.066 2.534,31.497 L2.534,36.103 C2.534,37.393 3.583,38.442 4.873,38.442 L26.698,38.442 C27.987,38.442 29.036,37.393 29.036,36.103 L29.036,31.892 L20.930,31.892 C18.781,31.892 17.032,30.144 17.032,27.994 C17.032,25.845 18.781,24.096 20.930,24.096 L29.036,24.096 L29.036,19.885 C29.036,18.596 27.987,17.546 26.698,17.546 L4.873,17.546 C3.583,17.546 2.534,18.596 2.534,19.885 L2.534,24.485 C2.534,24.916 2.185,25.265 1.755,25.265 C1.324,25.265 0.975,24.916 0.975,24.485 L0.975,19.885 C0.975,17.736 2.724,15.987 4.873,15.987 L8.429,15.987 C7.740,15.195 7.321,14.161 7.321,13.032 C7.321,10.545 9.344,8.523 11.829,8.523 C14.315,8.523 16.337,10.545 16.337,13.032 C16.337,14.161 15.918,15.195 15.230,15.987 L30.127,15.987 C32.276,15.987 34.025,17.736 34.025,19.885 L34.025,36.103 C34.025,38.253 32.276,40.001 30.127,40.001 ZM11.829,10.082 C10.203,10.082 8.880,11.405 8.880,13.032 C8.880,14.658 10.203,15.981 11.829,15.981 C13.455,15.981 14.778,14.658 14.778,13.032 C14.778,11.405 13.455,10.082 11.829,10.082 ZM32.466,19.885 C32.466,18.596 31.417,17.546 30.127,17.546 L29.814,17.546 C30.304,18.198 30.595,19.008 30.595,19.885 L30.595,24.096 L32.466,24.096 L32.466,19.885 ZM32.466,25.655 L20.930,25.655 C19.640,25.655 18.591,26.704 18.591,27.994 C18.591,29.284 19.640,30.333 20.930,30.333 L32.466,30.333 L32.466,25.655 ZM32.466,31.892 L30.595,31.892 L30.595,36.103 C30.595,36.980 30.304,37.790 29.814,38.442 L30.127,38.442 C31.417,38.442 32.466,37.393 32.466,36.103 L32.466,31.892 ZM20.178,28.545 C20.033,28.400 19.951,28.199 19.951,27.994 C19.951,27.789 20.033,27.588 20.178,27.443 C20.323,27.298 20.524,27.214 20.730,27.214 C20.935,27.214 21.136,27.298 21.281,27.443 C21.426,27.588 21.510,27.789 21.510,27.994 C21.510,28.199 21.426,28.400 21.281,28.545 C21.135,28.690 20.935,28.774 20.730,28.774 C20.524,28.774 20.324,28.690 20.178,28.545 ZM23.171,10.732 C20.685,10.732 18.663,8.709 18.663,6.222 C18.663,3.736 20.685,1.713 23.171,1.713 C25.656,1.713 27.679,3.736 27.679,6.222 C27.679,8.709 25.656,10.732 23.171,10.732 ZM23.171,3.273 C21.545,3.273 20.222,4.596 20.222,6.222 C20.222,7.849 21.545,9.172 23.171,9.172 C24.797,9.172 26.120,7.849 26.120,6.222 C26.120,4.596 24.797,3.273 23.171,3.273 ZM15.558,7.685 C15.127,7.685 14.778,7.336 14.778,6.905 L14.778,0.778 C14.778,0.347 15.127,-0.002 15.558,-0.002 C15.988,-0.002 16.337,0.347 16.337,0.778 L16.337,6.905 C16.337,7.336 15.988,7.685 15.558,7.685 ZM11.816,4.988 C11.386,4.988 11.037,4.639 11.037,4.208 L11.037,0.778 C11.037,0.347 11.386,-0.002 11.816,-0.002 C12.247,-0.002 12.596,0.347 12.596,0.778 L12.596,4.208 C12.596,4.639 12.247,4.988 11.816,4.988 Z"/>
	</symbol>
</svg>