<svg>
	<symbol id="tw" viewBox="0 0 21 17">
		<path fill-rule="evenodd" fill="currentColor" d="M1.036,14.301 C2.863,15.459 4.989,16.071 7.184,16.071 C10.399,16.071 13.345,14.837 15.480,12.597 C17.523,10.453 18.647,7.572 18.591,4.649 C19.365,3.986 20.276,2.722 20.276,1.490 C20.276,1.017 19.763,0.717 19.347,0.959 C18.620,1.386 17.956,1.497 17.274,1.306 C15.880,-0.051 13.806,-0.337 12.058,0.605 C10.530,1.426 9.681,2.929 9.758,4.572 C7.177,4.258 4.792,2.964 3.130,0.955 C2.857,0.627 2.339,0.667 2.122,1.038 C1.321,2.407 1.330,3.995 2.026,5.278 C1.695,5.336 1.490,5.614 1.490,5.916 C1.490,7.205 2.070,8.389 3.005,9.197 C2.831,9.365 2.773,9.614 2.847,9.836 C3.258,11.070 4.189,12.034 5.352,12.517 C4.087,13.121 2.688,13.322 1.442,13.170 C0.798,13.082 0.479,13.948 1.036,14.301 L1.036,14.301 ZM7.353,12.728 C7.814,12.374 7.569,11.637 6.990,11.624 C5.971,11.603 5.042,11.101 4.465,10.311 C4.743,10.293 5.032,10.251 5.306,10.177 C5.932,10.008 5.902,9.106 5.267,8.978 C4.113,8.747 3.208,7.907 2.869,6.826 C3.179,6.903 3.494,6.945 3.809,6.951 C4.433,6.955 4.669,6.155 4.160,5.821 C3.013,5.066 2.524,3.733 2.848,2.479 C4.851,4.507 7.568,5.728 10.442,5.866 C10.854,5.891 11.163,5.504 11.073,5.113 C10.683,3.421 11.628,2.235 12.643,1.690 C13.648,1.148 15.261,0.978 16.498,2.275 C16.865,2.661 18.105,2.676 18.736,2.529 C18.453,3.061 18.018,3.566 17.611,3.851 C17.437,3.972 17.338,4.174 17.349,4.386 C17.481,7.084 16.475,9.767 14.588,11.746 C12.687,13.739 10.059,14.838 7.185,14.838 C6.042,14.838 4.922,14.652 3.863,14.294 C5.129,14.049 6.332,13.514 7.353,12.728 L7.353,12.728 Z"/>
	</symbol>
</svg>