<svg 
 xmlns="http://www.w3.org/2000/svg"
 xmlns:xlink="http://www.w3.org/1999/xlink"
 width="18px" height="21px">
<path fill-rule="evenodd"   fill="currentColor"
 d="M16.810,18.270 C16.769,18.378 16.690,18.469 16.595,18.532 C16.470,18.611 13.491,20.514 8.506,20.514 C3.521,20.514 0.542,18.615 0.418,18.532 C0.318,18.469 0.244,18.378 0.202,18.270 C-0.017,17.715 -0.013,16.607 -0.009,16.391 C-0.009,16.387 -0.009,16.383 -0.009,16.379 C-0.005,16.346 -0.005,16.313 -0.005,16.275 C0.020,15.458 0.074,13.538 1.872,12.920 C1.885,12.916 1.897,12.911 1.914,12.908 C3.791,12.430 5.336,11.352 5.353,11.340 C5.606,11.161 5.954,11.223 6.132,11.476 C6.310,11.729 6.248,12.078 5.995,12.256 C5.925,12.302 4.275,13.455 2.212,13.986 C1.246,14.330 1.139,15.363 1.110,16.308 C1.110,16.346 1.106,16.379 1.106,16.412 C1.097,16.786 1.126,17.362 1.193,17.694 C1.868,18.076 4.516,19.398 8.502,19.398 C12.505,19.398 15.136,18.079 15.807,17.698 C15.874,17.366 15.899,16.790 15.894,16.416 C15.890,16.383 15.890,16.350 15.890,16.313 C15.861,15.367 15.753,14.334 14.788,13.990 C12.724,13.459 11.075,12.310 11.005,12.260 C10.752,12.082 10.690,11.733 10.868,11.481 C11.046,11.228 11.394,11.165 11.647,11.344 C11.664,11.356 13.218,12.435 15.086,12.911 C15.099,12.916 15.115,12.920 15.128,12.924 C16.926,13.538 16.980,15.458 17.005,16.280 C17.005,16.317 17.009,16.350 17.009,16.383 C17.009,16.387 17.009,16.391 17.009,16.396 C17.013,16.611 17.017,17.718 16.810,18.270 ZM8.560,11.277 C8.548,11.277 8.531,11.277 8.519,11.277 C8.510,11.277 8.502,11.277 8.494,11.277 C8.469,11.277 8.448,11.277 8.427,11.277 C7.213,11.257 6.231,10.829 5.510,10.012 C3.915,8.212 4.180,5.126 4.209,4.832 C4.313,2.604 5.374,1.547 6.244,1.053 C7.110,0.560 8.013,0.485 8.473,0.485 L8.498,0.485 C8.502,0.485 8.510,0.485 8.514,0.485 L8.543,0.485 C9.380,0.502 10.130,0.701 10.773,1.070 C11.635,1.564 12.679,2.621 12.782,4.832 C12.812,5.126 13.077,8.212 11.481,10.012 C10.756,10.829 9.774,11.257 8.560,11.277 ZM11.672,4.936 C11.668,4.927 11.668,4.915 11.668,4.902 C11.539,2.090 9.637,1.634 8.519,1.609 C8.506,1.609 8.494,1.609 8.485,1.609 L8.469,1.609 C7.565,1.609 5.456,1.929 5.320,4.902 C5.320,4.910 5.316,4.923 5.316,4.936 C5.311,4.961 5.030,7.793 6.343,9.270 C6.861,9.859 7.561,10.149 8.473,10.158 C8.481,10.158 8.485,10.158 8.494,10.158 C8.502,10.158 8.506,10.158 8.514,10.158 C9.430,10.149 10.126,9.859 10.648,9.270 C11.966,7.785 11.676,4.964 11.672,4.936 Z"/>
</svg>