<svg 
 xmlns="http://www.w3.org/2000/svg"
 xmlns:xlink="http://www.w3.org/1999/xlink"
 width="23px" height="14px">
<path fill-rule="evenodd"  fill="currentColor"
 d="M18.848,14.002 C17.960,14.002 17.517,13.506 16.713,12.608 C16.424,12.285 16.096,11.919 15.686,11.506 C14.689,10.538 14.168,10.248 13.906,10.174 L13.755,10.131 L13.746,10.288 C13.730,10.550 13.734,10.970 13.738,11.415 C13.678,11.582 13.697,11.807 13.718,12.066 C13.756,12.511 13.802,13.064 13.443,13.453 C13.108,13.817 12.448,14.002 11.482,14.002 C7.658,14.002 4.806,10.929 3.086,8.351 C1.061,5.314 0.045,2.165 0.045,1.255 C0.045,0.456 0.552,-0.002 1.436,-0.002 L3.779,-0.002 C4.732,-0.002 5.113,0.521 5.390,1.307 C6.344,4.111 7.676,6.183 8.338,6.891 L8.578,7.149 L8.557,6.798 C8.489,5.704 8.519,4.946 8.544,4.337 C8.586,3.297 8.607,2.776 8.034,2.058 C7.640,1.566 7.535,1.064 7.737,0.645 C7.924,0.257 8.355,-0.003 8.810,-0.003 L12.493,-0.003 C12.884,-0.003 13.169,0.095 13.366,0.296 C13.791,0.732 13.768,1.612 13.744,2.545 C13.742,2.612 13.740,2.679 13.739,2.747 C13.723,3.437 13.699,4.481 13.732,5.826 L13.739,6.096 L13.942,5.917 C15.049,4.946 16.471,2.261 16.955,1.031 C17.234,0.365 17.789,-0.003 18.518,-0.003 L20.862,-0.003 C21.380,-0.003 21.762,0.154 21.998,0.465 C22.153,0.671 22.303,1.039 22.136,1.616 L22.135,1.617 L22.134,1.621 L22.130,1.635 L22.130,1.637 C21.794,2.984 19.553,6.348 18.917,7.187 L18.764,7.390 L18.800,7.390 L18.776,7.436 L18.815,7.498 C18.864,7.574 19.028,7.746 19.363,8.094 C20.274,9.039 22.171,11.007 22.562,12.235 C22.746,12.859 22.582,13.261 22.412,13.488 C22.236,13.723 21.882,14.002 21.191,14.002 L18.848,14.002 ZM19.720,12.829 C20.145,12.829 20.450,12.829 20.673,12.830 C20.801,12.830 20.902,12.830 20.982,12.830 C21.222,12.830 21.289,12.828 21.356,12.817 L21.488,12.796 L21.459,12.666 C21.256,11.727 19.079,9.484 18.363,8.748 L18.344,8.727 C18.117,8.493 17.987,8.350 17.942,8.295 L17.931,8.283 C17.388,7.566 17.610,7.070 17.908,6.584 C17.916,6.573 17.924,6.560 17.934,6.547 C18.390,5.911 20.743,2.461 20.991,1.339 L20.992,1.336 L20.993,1.329 L21.047,1.170 L18.518,1.170 C18.225,1.170 18.128,1.274 18.043,1.477 C17.993,1.601 16.803,4.509 15.064,6.470 C14.313,7.229 13.779,7.387 13.463,7.387 C12.918,7.387 12.566,6.894 12.566,6.131 C12.543,5.378 12.552,2.719 12.556,1.718 C12.557,1.296 12.557,1.296 12.556,1.286 L12.543,1.174 L8.828,1.170 L8.991,1.375 C9.227,1.672 9.666,2.226 9.730,3.396 L9.731,6.911 C9.731,7.604 9.615,8.401 8.710,8.401 C7.309,8.401 5.236,4.504 4.280,1.691 C4.124,1.249 4.073,1.171 3.779,1.171 L3.040,1.171 L1.968,1.171 C1.469,1.171 1.371,1.172 1.343,1.175 L1.218,1.186 L1.229,1.310 C1.312,2.317 2.384,5.191 4.104,7.757 C5.655,10.071 8.194,12.829 11.482,12.829 C12.086,12.829 12.363,12.769 12.489,12.720 L12.579,12.685 L12.568,12.589 C12.567,12.580 12.566,12.572 12.564,12.564 C12.565,12.352 12.565,11.978 12.563,11.451 C12.563,11.368 12.562,11.284 12.560,11.203 C12.549,10.358 12.539,9.628 12.903,9.260 C13.089,9.071 13.373,8.980 13.769,8.980 C14.479,8.980 15.275,9.471 16.513,10.674 C17.008,11.172 17.371,11.580 17.663,11.906 C18.212,12.521 18.487,12.829 18.848,12.829 C19.184,12.829 19.473,12.829 19.720,12.829 Z"/>
</svg>