<svg>
	<symbol id="whatsapp"  viewBox="0 0 19 18">
		<path fill-rule="evenodd"  fill="currentColor" d="M16.163,14.902 C14.514,16.550 12.321,17.458 9.988,17.458 C8.609,17.458 7.234,17.127 6.010,16.500 L1.879,17.945 C1.785,17.978 1.687,17.995 1.588,17.995 C1.357,17.995 1.138,17.905 0.973,17.738 C0.734,17.500 0.654,17.153 0.766,16.833 L2.212,12.706 C1.585,11.482 1.254,10.109 1.254,8.731 C1.254,6.399 2.163,4.208 3.812,2.560 C4.628,1.745 5.581,1.108 6.645,0.667 C7.709,0.227 8.833,0.004 9.987,0.004 C12.321,0.004 14.514,0.911 16.163,2.560 C17.813,4.208 18.722,6.399 18.722,8.731 C18.722,11.062 17.813,13.253 16.163,14.902 ZM15.322,3.401 C13.897,1.977 12.003,1.193 9.988,1.193 L9.987,1.122 L9.987,1.193 C7.973,1.194 6.079,1.977 4.654,3.401 C3.229,4.825 2.445,6.717 2.445,8.731 C2.445,9.962 2.750,11.186 3.327,12.268 C3.442,12.484 3.461,12.740 3.381,12.969 L2.107,16.605 L5.746,15.333 C5.839,15.300 5.935,15.284 6.034,15.284 C6.177,15.284 6.320,15.320 6.447,15.387 C7.531,15.963 8.755,16.268 9.988,16.268 C12.003,16.268 13.897,15.484 15.322,14.061 C16.746,12.637 17.531,10.744 17.531,8.731 C17.531,6.717 16.746,4.825 15.322,3.401 ZM14.310,12.295 L14.310,12.294 L13.493,13.111 C13.197,13.406 12.796,13.555 12.299,13.555 C11.859,13.555 11.357,13.436 10.809,13.201 C9.809,12.774 8.711,11.991 7.718,10.998 C6.725,10.006 5.942,8.909 5.513,7.911 C5.012,6.741 5.044,5.789 5.604,5.229 L6.544,4.290 C6.750,4.084 7.025,3.970 7.317,3.970 C7.609,3.970 7.884,4.084 8.090,4.290 L9.265,5.463 C9.471,5.669 9.584,5.944 9.584,6.236 C9.584,6.528 9.471,6.802 9.265,7.009 L8.867,7.406 C9.439,8.436 10.284,9.279 11.313,9.850 L11.711,9.453 C11.917,9.247 12.192,9.134 12.484,9.134 C12.777,9.134 13.051,9.247 13.258,9.453 L14.432,10.627 C14.639,10.833 14.752,11.107 14.752,11.399 C14.752,11.691 14.639,11.966 14.432,12.172 L14.310,12.295 ZM12.484,10.363 L11.989,10.858 C11.824,11.023 11.605,11.114 11.372,11.114 C11.235,11.114 11.098,11.081 10.975,11.019 C9.556,10.295 8.422,9.163 7.698,7.744 C7.526,7.406 7.591,6.999 7.859,6.731 L8.354,6.236 L7.317,5.200 L6.446,6.070 C6.335,6.181 6.244,6.595 6.608,7.442 C6.978,8.305 7.671,9.269 8.560,10.158 C9.449,11.045 10.414,11.738 11.278,12.109 C11.778,12.322 12.106,12.368 12.293,12.368 C12.458,12.368 12.589,12.332 12.651,12.270 L13.522,11.399 L12.484,10.363 Z"/>
	</symbol>
</svg>