<svg>
	<symbol id="writeme"  viewBox="0 0 22 12">
		<path fill-rule="evenodd"  fill="currentColor" d="M21.594,10.140 C21.588,11.204 20.788,11.977 19.724,11.977 C14.989,11.982 10.254,11.982 5.518,11.978 C4.455,11.978 3.661,11.176 3.646,10.112 C3.643,9.902 3.641,9.692 3.646,9.482 C3.652,9.189 3.829,8.996 4.090,8.987 C4.364,8.979 4.555,9.165 4.565,9.472 C4.575,9.768 4.567,10.065 4.567,10.362 C4.594,10.369 4.622,10.375 4.649,10.382 C6.348,8.922 8.047,7.463 9.770,5.983 C8.054,4.509 6.351,3.046 4.595,1.538 C4.584,1.782 4.575,1.970 4.569,2.158 C4.563,2.300 4.572,2.445 4.555,2.585 C4.525,2.822 4.341,2.976 4.110,2.978 C3.872,2.980 3.663,2.812 3.655,2.570 C3.643,2.226 3.628,1.874 3.680,1.537 C3.824,0.619 4.574,-0.011 5.499,-0.012 C10.242,-0.015 14.985,-0.015 19.728,-0.011 C20.791,-0.010 21.589,0.762 21.594,1.828 C21.607,4.599 21.607,7.370 21.594,10.140 ZM5.303,11.036 C10.207,11.036 15.049,11.036 19.946,11.036 C18.192,9.529 16.484,8.060 14.768,6.585 C14.331,6.965 13.918,7.335 13.494,7.690 C13.031,8.077 12.420,8.120 11.925,7.813 C11.843,7.763 11.767,7.699 11.694,7.635 C11.292,7.289 10.893,6.941 10.483,6.586 C8.762,8.065 7.057,9.529 5.303,11.036 ZM5.306,0.922 C5.401,1.010 5.449,1.055 5.499,1.098 C7.736,3.016 9.972,4.934 12.210,6.851 C12.531,7.127 12.722,7.126 13.037,6.856 C15.273,4.938 17.509,3.020 19.745,1.101 C19.800,1.055 19.852,1.005 19.941,0.922 C15.051,0.922 10.210,0.922 5.306,0.922 ZM20.654,1.538 C18.908,3.039 17.205,4.503 15.481,5.984 C17.205,7.464 18.908,8.927 20.654,10.427 C20.654,7.446 20.654,4.519 20.654,1.538 ZM5.407,4.366 C5.735,4.368 5.936,4.541 5.942,4.816 C5.949,5.101 5.747,5.292 5.412,5.294 C4.543,5.299 3.675,5.299 2.806,5.294 C2.473,5.293 2.260,5.098 2.266,4.821 C2.272,4.544 2.487,4.367 2.824,4.365 C3.251,4.363 3.678,4.365 4.105,4.364 C4.539,4.364 4.973,4.362 5.407,4.366 ZM5.944,7.135 C5.946,7.412 5.745,7.600 5.425,7.601 C4.751,7.606 4.078,7.603 3.404,7.603 C2.730,7.603 2.056,7.604 1.382,7.602 C1.167,7.601 1.000,7.507 0.922,7.304 C0.852,7.124 0.873,6.934 1.032,6.813 C1.132,6.737 1.274,6.678 1.398,6.677 C2.746,6.667 4.094,6.668 5.442,6.673 C5.748,6.675 5.943,6.868 5.944,7.135 Z"/>
	</symbol>
</svg>