<svg 
 xmlns="http://www.w3.org/2000/svg"
 xmlns:xlink="http://www.w3.org/1999/xlink"
 width="13px" height="13px">
<path fill-rule="evenodd"  fill="rgb(83, 99, 116)"
 d="M8.000,11.000 L8.000,8.000 L11.000,8.000 L11.000,11.000 L8.000,11.000 ZM8.000,4.000 L11.000,4.000 L11.000,6.999 L8.000,6.999 L8.000,4.000 ZM8.000,-0.000 L11.000,-0.000 L11.000,3.000 L8.000,3.000 L8.000,-0.000 ZM4.000,8.000 L7.000,8.000 L7.000,11.000 L4.000,11.000 L4.000,8.000 ZM4.000,4.000 L7.000,4.000 L7.000,6.999 L4.000,6.999 L4.000,4.000 ZM-0.000,8.000 L3.000,8.000 L3.000,11.000 L-0.000,11.000 L-0.000,8.000 Z"/>
</svg>